<?xml version="1.0" encoding="UTF-8" standalone="no"?>
<svg
   width="1043"
   height="1129"
   version="1.1"
   id="svg33"
   sodipodi:docname="vileblood crest.svg"
   inkscape:version="1.3 (0e150ed6c4, 2023-07-21)"
   xmlns:inkscape="http://www.inkscape.org/namespaces/inkscape"
   xmlns:sodipodi="http://sodipodi.sourceforge.net/DTD/sodipodi-0.dtd"
   xmlns="http://www.w3.org/2000/svg"
   xmlns:svg="http://www.w3.org/2000/svg">
  <defs
     id="defs33" />
  <sodipodi:namedview
     id="namedview33"
     pagecolor="#505050"
     bordercolor="#eeeeee"
     borderopacity="1"
     inkscape:showpageshadow="0"
     inkscape:pageopacity="0"
     inkscape:pagecheckerboard="0"
     inkscape:deskcolor="#505050"
     inkscape:zoom="0.84828351"
     inkscape:cx="615.94973"
     inkscape:cy="946.02806"
     inkscape:window-width="1920"
     inkscape:window-height="1027"
     inkscape:window-x="1358"
     inkscape:window-y="-8"
     inkscape:window-maximized="1"
     inkscape:current-layer="svg33" />
  <path
     style="fill:#ffffff; stroke:none;"
     d="M0 0L0 1129L1043 1129L1043 0L0 0z"
     id="path1" />
  <path
     style="fill:#000000; stroke:none;"
     d="M280 137L284 138C280.379 146.285 270.826 152.907 274.894 162.957C278.948 172.975 291.75 170.658 300 170.089C304.814 169.758 310.215 168.791 315 169.188C332.48 170.638 361.273 187.33 355.434 208C352.732 217.568 342.925 220.766 334 220.985C315.353 221.443 296.581 218.894 279 212.565C273.409 210.552 267.737 208.805 262.09 206.951C260.284 206.358 257.508 204.725 255.703 206.082C253.158 207.995 254.002 213.243 254 216C250.862 212.872 248.034 209.881 244 208C244.685 206.068 245.166 204.23 247.228 203.309C249.908 202.111 256.099 203.981 255.534 198.996C255.022 194.482 246.209 191.491 243 188.904C229.618 178.116 215.662 168.851 198 167.171C190.505 166.459 184.202 170.369 177 171.531C174.377 171.954 170.567 172.025 169.637 168.852C168.684 165.6 171.467 160.966 172.576 158C175.261 150.817 177.393 144.255 173.722 137.004C170.411 130.462 163.363 126.403 158.039 121.576C148.145 112.603 139.805 101.615 133.284 90C129.443 83.1576 126.292 75.9944 128.022 68C128.395 66.2784 128.897 64.6018 129.648 63.0046C134.71 52.2361 145.188 63.6066 154 62.892C170.06 61.5897 175.699 45.1205 173.812 31C172.729 22.8983 167.55 22.0538 161.285 19.0964C158.807 17.9266 156.943 16.155 153.996 16.7616C150.118 17.5598 147.675 21.1708 144 22.3859C138.149 24.3204 131.168 20.7272 125.004 22.4337C115.267 25.129 110.752 38.5424 108 47C105.141 45.4167 98.7921 40.0784 96.0463 44.3333C94.3547 46.9546 96.2676 50.4016 97.0301 53C99.2771 60.6569 101.501 67.6185 104.571 75C107.033 80.9204 103.874 84.1671 104.113 90C104.375 96.4242 108.782 101.76 109.969 108C110.804 112.384 108.14 115.885 108.647 120C109.439 126.44 118.048 129.208 118.226 136C118.338 140.267 114.888 143.852 114.225 148C113.287 153.861 116.879 157.591 117.686 163C118.936 171.382 111.492 184.464 121 190C117.666 198.903 119.228 208.017 129 211.991C133.539 213.837 139.14 212.573 141.508 218.044C144.837 225.732 134.32 237.246 147 241C147.028 251.197 151.463 260.115 153.485 270C154.869 276.764 154.914 285.081 154.996 292C155.048 296.323 155.122 300.684 154.846 305C154.714 307.053 154.149 309.7 155.778 311.353C160.543 316.186 171.328 298.742 175.902 308.282C177.45 311.51 174.461 316.281 175.434 320C176.205 322.951 178.443 325.145 179.412 328C180.418 330.965 179.825 334.093 181.313 336.961C182.811 339.847 185.483 341.832 186.428 345.039C187.624 349.096 184.277 358.258 187.606 360.972C189.259 362.32 192.029 361.977 194 362C194.269 365.565 194.832 367.256 198 369C195.403 374.056 192.788 378.201 194 384C195.195 383.402 194.977 383.534 196 382C198.318 385.968 201.682 385.961 206 386C196.505 398.442 188.046 411.645 178.331 424C171.953 432.111 164.189 439.122 157.785 447.17C154.125 451.769 151.481 457.179 147.975 461.911C142.641 469.106 136.642 475.844 131.231 483C125.678 490.345 123.504 498.089 119.201 506C115.738 512.368 110.266 518.707 104.83 523.485C94.9643 532.158 82.0732 540.542 70 545.712C62.052 549.116 53.6055 550.531 46 554.873C32.3448 562.668 24.1548 573.86 20.7894 589C20.0895 592.148 16.1735 598.588 18.6582 601.397C21.0589 604.11 25.9361 602.975 28.0995 600.682C34.6074 593.785 39.3579 586.64 48 581.904C56.4863 577.254 66.4941 576.836 75 572C78.3623 590.111 68.8516 610.059 78.5324 627C81.0984 631.49 85.4566 636.56 90 639.127C92.1382 640.335 95.3433 640.992 96.9329 638.552C98.3232 636.417 97.2326 633.268 96.8032 631C95.8583 626.008 95.0253 621.09 95.0008 616C94.9104 597.264 105.244 571.866 125 566C123.755 581.24 117.155 596.074 109.4 609C106.792 613.347 98.7678 622.476 100.658 627.851C102.615 633.414 109.986 628.766 113 626.985C123.564 620.744 132.938 611.953 140.076 602C152.766 584.308 148.357 563.421 155.079 544C159.667 530.746 170.54 520.991 175.532 508C177.59 502.643 177.984 496.68 178 491C197.086 497.035 212.672 483.644 231.424 483.862C236.36 483.919 241.234 484.64 246 485.92C249.143 486.764 252.69 488.568 255.852 486.806C260.881 484.003 258.569 476.499 258 472C265.978 473.503 279.546 476.992 286.895 472.142C290.082 470.039 291.584 466.379 293 463C299.932 469.445 300.43 480.442 303.685 489C307.146 498.098 313.154 505.679 319.428 513C330.19 525.556 343.772 535.737 357 545.522C362.963 549.934 369.616 553.857 374.91 559.093C389.236 573.26 399.404 596.942 401 617C399.197 612.222 398.266 602.958 393.582 600.043C389.746 597.656 384.214 601.78 380 601.468C371.734 600.854 364.13 597.118 357 593.208C343.757 585.948 333.316 571.294 319 566.598C310.7 563.876 302.191 565.643 294 567.849C277.107 572.397 264.506 578.498 252 591C245.697 597.301 239.598 602.972 237.669 612C236.474 617.595 235.431 625.312 236.134 631C236.517 634.093 238.872 636.878 238.677 640C238.314 645.807 234.282 649.667 235.469 656C236.747 662.821 246.126 670.083 243.82 677C241.171 684.95 232.11 690.423 226 695.464C218.325 701.795 212.454 709.48 209.36 719C203.763 736.217 211.489 754.068 219.694 769C223.428 775.795 231.621 786.797 225.146 794.566C222.61 797.609 218.444 796.871 215 796.424C209.922 795.766 204.068 795.438 199 796.329C190.143 797.885 184.6 804.877 175 803.714C152.146 800.945 130.873 784.244 107 788.464C93.128 790.916 80.7327 801.029 75.2315 814C73.716 817.573 71.7133 822.003 72.2685 825.981C73.7219 836.392 84.6677 827.722 88 824C85.2192 830.688 82.0883 836.49 83.3048 843.999C83.7097 846.499 84.7523 850.364 87.9498 850.364C91.5731 850.364 92.8385 844.76 95.3403 842.843C99.7187 839.49 106.863 838.915 112 837C102.323 845.477 92.5335 853.667 90.439 867C89.788 871.144 89.3135 879.584 95.1049 880.422C98.6904 880.941 102.379 877.498 105 875.501C110.805 871.078 117.777 866.991 124.945 871.368C132.734 876.123 128.739 888.462 129.044 896C129.251 901.123 131.296 905.198 137.001 904.876C146.304 904.35 154.615 896.157 163 892.826C174.543 888.239 187.325 887.622 199 883.453C210.943 879.188 222.337 871.467 235 869.286C242.448 868.004 249.893 867.062 257 870.248C261.131 872.099 264.23 875.332 268 877.753C277.362 883.765 291.803 887.977 300.2 877.787C303.967 873.215 304 867.603 304 862C304 846.135 293.988 833.798 289.789 819C287.939 812.482 289 804.723 289 798C292.05 801.142 295.714 803.885 299.985 805.177C302.206 805.849 304.99 805.709 305.342 802.852C305.811 799.038 302.013 795.646 301.278 792C299.878 785.057 300.606 778.02 298.711 771C296.019 761.032 290.67 751.985 288 742C297.407 746.237 296 735.262 296 729C296 714.352 292.001 695.59 306.004 685.649C308.437 683.921 311.205 682.953 314 682C315.111 685.951 315.439 691.307 318.008 694.606C323.719 701.936 334.471 696.204 340 692C341.316 703.806 354.327 703.781 359 694C359.715 696.229 359.97 699.456 361.742 701.142C370.149 709.144 382.867 693.289 386 687C386.397 693.845 381.773 702.503 379.413 709C374.901 721.419 371.18 734.309 367.439 747C362.791 762.768 364.777 778.101 362.711 794C361.456 803.655 356.981 811.776 354.489 821C352.676 827.713 350.629 836.156 352.804 842.996C354.092 847.047 357.439 850.41 361.996 849.653C367.718 848.702 368.809 843.187 371.684 839.17C373.478 836.663 375.525 834.736 377 832C381.639 839.123 380.995 848.113 386.185 854.772C392.351 862.681 399.056 854.828 400 848C402.488 852.148 403.944 854.61 409 855C408.424 862.456 399.724 862.351 399.282 870C398.286 887.237 422.799 903.414 438 897C436.505 901.713 434.814 907 435.504 912C437.423 925.903 452.358 932.738 465 933C452.441 947.497 469.581 960.255 476.215 973C483.361 986.73 481.006 1004.04 481 1019C480.997 1026.03 480.886 1034.14 476.442 1039.98C471.965 1045.87 464.945 1048.46 458 1050.12C442.972 1053.7 425.903 1052.3 414.428 1040.79C406.792 1033.13 400.131 1015.95 389 1013.39C367.417 1008.43 346.544 1023.05 338.995 1043C337.446 1047.09 338.857 1051.34 337.745 1055.42C335.698 1062.94 332.033 1066.73 334 1075C326.357 1078.26 321.145 1086.54 322.305 1095C322.686 1097.78 323.534 1101.47 326.224 1102.93C332.975 1106.58 336.774 1090.26 344.853 1094.82C351.409 1098.51 346.62 1109.59 353.228 1113.43C358.965 1116.76 365.385 1113.7 371 1111.89C377.92 1109.66 387.763 1107.91 395 1109.23C400.461 1110.22 404.434 1115.28 408.424 1118.76C414.458 1124.02 421.948 1127.5 430 1125.21C449.234 1119.75 460.012 1098.34 478 1089.78C491.241 1083.48 509.334 1091.62 520.895 1080.79C523.812 1078.05 525.315 1074.53 527 1071C528.685 1074.53 530.188 1078.05 533.105 1080.79C544.666 1091.62 562.759 1083.48 576 1089.78C593.988 1098.34 604.767 1119.75 624 1125.21C632.052 1127.5 639.542 1124.02 645.576 1118.76C649.567 1115.28 653.539 1110.22 659 1109.23C666.237 1107.91 676.08 1109.66 683 1111.89C688.615 1113.7 695.035 1116.76 700.772 1113.43C707.38 1109.59 702.591 1098.51 709.147 1094.82C717.226 1090.26 721.025 1106.58 727.776 1102.93C730.466 1101.47 731.314 1097.78 731.695 1095C732.855 1086.54 727.643 1078.26 720 1075C721.971 1066.72 718.282 1062.84 716.255 1055.29C715.17 1051.24 716.538 1047.05 715.005 1043C707.456 1023.05 686.583 1008.43 665 1013.39C653.869 1015.95 647.208 1033.13 639.572 1040.79C628.097 1052.3 611.028 1053.7 596 1050.12C589.055 1048.46 582.035 1045.87 577.558 1039.98C573.114 1034.14 573.003 1026.03 573 1019C572.994 1004.04 570.639 986.73 577.786 973C584.419 960.255 601.559 947.496 589 933C601.642 932.738 616.577 925.903 618.496 912C619.186 906.999 617.495 901.713 616 897C631.201 903.414 655.714 887.237 654.718 870C654.276 862.351 645.576 862.456 645 855C649.875 854.624 651.619 852.594 653 848C653.835 849.924 654.417 852.108 655.42 853.946C658.068 858.803 664.47 859.062 667.815 854.772C673.005 848.113 672.361 839.123 677 832C678.475 834.736 680.523 836.663 682.316 839.17C685.191 843.187 686.282 848.702 692.004 849.653C706.029 851.983 701.471 829.005 699.761 822C697.418 812.404 692.587 803.984 691.289 794C689.315 778.809 690.96 764.159 687.104 749C681.765 728.01 671.979 707.961 667 687C671.379 692.517 675.356 698.562 682 701.583C689.271 704.888 693.821 701.361 694 694C700.174 701.908 712.518 705.299 714 692C719.529 696.204 730.281 701.936 735.992 694.606C738.561 691.307 738.889 685.951 740 682C742.795 682.953 745.563 683.921 747.996 685.649C761.999 695.59 758 714.352 758 729C758 735.262 756.593 746.237 766 742C763.33 751.985 757.981 761.032 755.289 771C753.394 778.02 754.122 785.057 752.722 792C752.011 795.528 748.902 798.354 748.647 801.941C748.408 805.314 751.344 805.984 754.015 805.177C758.039 803.96 761.871 801.582 764 798C769.884 817.904 755.43 833.774 750.761 852C748.767 859.782 748.586 872.491 754.532 878.61C768.782 893.27 784.213 875.979 797 870.248C803.87 867.168 810.789 868.034 818 869.134C831.056 871.126 842.744 879.076 855 883.453C866.674 887.622 879.457 888.239 891 892.826C899.384 896.157 907.696 904.35 916.999 904.876C922.704 905.198 924.749 901.123 924.956 896C925.261 888.462 921.266 876.123 929.055 871.368C936.223 866.991 943.195 871.078 949 875.501C951.621 877.498 955.31 880.941 958.895 880.422C964.686 879.584 964.212 871.144 963.561 867C961.467 853.667 951.677 845.477 942 837C947.137 838.915 954.281 839.49 958.66 842.843C961.161 844.76 962.427 850.364 966.05 850.364C969.248 850.364 970.29 846.499 970.695 843.999C971.912 836.49 968.781 830.688 966 824C969.332 827.722 980.278 836.392 981.732 825.981C982.287 822.003 980.284 817.573 978.769 814C973.267 801.029 960.872 790.916 947 788.464C923.127 784.244 901.854 800.945 879 803.714C869.119 804.911 863.243 797.34 854 796.185C849.509 795.624 844.488 795.758 840 796.286C836.592 796.686 832.408 797.797 829.513 795.258C821.558 788.281 830.733 775.501 834.306 769C843.537 752.201 851.188 732.722 842.688 714C838.072 703.835 830.297 697.731 822 690.704C817.63 687.002 811.072 682.004 809.891 676C808.533 669.095 817.722 662.118 818.695 655C819.492 649.171 815.659 645.368 815.323 640C815.072 635.976 818.07 632.293 817.956 628C817.769 620.988 817.352 612.47 814.471 606C810.595 597.295 801.125 589.398 794 583.3C784.153 574.873 772.291 571.158 760 567.849C751.101 565.453 741.828 563.65 733 567.349C726.07 570.252 720.733 575.886 715 580.576C707.53 586.687 699.576 591.95 691 596.36C685.607 599.132 678.191 601.957 672 601.501C668.534 601.245 664.708 598.336 661.225 599.647C656.041 601.596 654.388 612.258 654 617C652.032 607.891 657.659 596.37 661 588C665.077 577.784 670.566 568.078 678.171 560.04C685.475 552.318 695.494 546.595 704 540.268C716.696 530.826 728.738 520.298 738.739 508C744.934 500.383 749.438 492.337 752.482 483C754.823 475.816 755.2 468.392 761 463C762.416 466.378 763.918 470.039 767.105 472.142C774.454 476.992 788.022 473.503 796 472C795.431 476.499 793.119 484.003 798.148 486.806C801.31 488.568 804.857 486.763 808 485.92C812.816 484.627 817.729 483.919 822.714 483.862C841.429 483.648 856.936 497.029 876 491C876.016 496.68 876.41 502.643 878.468 508C883.46 520.991 894.333 530.746 898.921 544C905.642 563.421 901.234 584.308 913.924 602C921.062 611.953 930.436 620.744 941 626.985C944.014 628.766 951.385 633.414 953.342 627.851C955.232 622.476 947.208 613.347 944.6 609C936.845 596.074 930.245 581.24 929 566C948.756 571.866 959.09 597.264 958.999 616C958.975 621.091 958.142 626.008 957.197 631C956.767 633.268 955.677 636.417 957.067 638.552C958.657 640.992 961.862 640.335 964 639.127C968.543 636.56 972.902 631.49 975.468 627C985.149 610.059 975.638 590.111 979 572C987.506 576.836 997.514 577.254 1006 581.904C1014.64 586.64 1019.39 593.785 1025.9 600.682C1028.06 602.975 1032.94 604.11 1035.34 601.397C1037.83 598.588 1033.91 592.148 1033.21 589C1029.84 573.86 1021.66 562.668 1008 554.873C1000.39 550.531 991.948 549.116 984 545.712C971.927 540.542 959.036 532.158 949.17 523.485C943.734 518.707 938.262 512.368 934.799 506C930.496 498.089 928.323 490.345 922.768 483C917.358 475.844 911.359 469.106 906.026 461.911C902.519 457.179 899.875 451.769 896.215 447.17C889.811 439.122 882.047 432.111 875.669 424C865.954 411.645 857.495 398.442 848 386C852.318 385.961 855.682 385.968 858 382C859.023 383.534 858.805 383.402 860 384C861.212 378.201 858.597 374.056 856 369C859.168 367.256 859.731 365.565 860 362C861.971 361.977 864.741 362.32 866.394 360.972C869.723 358.258 866.376 349.096 867.572 345.039C868.517 341.832 871.189 339.847 872.687 336.961C874.175 334.093 873.582 330.965 874.588 328C875.557 325.145 877.795 322.951 878.566 320C879.539 316.281 876.55 311.51 878.098 308.282C882.672 298.742 893.457 316.186 898.222 311.353C899.851 309.7 899.285 307.053 899.154 305C898.878 300.685 898.952 296.323 899.004 292C899.086 285.081 899.131 276.764 900.515 270C902.537 260.115 906.972 251.197 907 241C919.68 237.246 909.163 225.731 912.492 218.044C914.86 212.573 920.461 213.837 925 211.991C934.772 208.017 936.334 198.903 933 190C942.508 184.464 935.064 171.383 936.314 163C937.121 157.591 940.713 153.861 939.775 148C939.112 143.852 935.662 140.267 935.774 136C935.952 129.208 944.561 126.44 945.353 120C945.86 115.885 943.196 112.384 944.031 108C945.218 101.76 949.625 96.4243 949.887 90C950.126 84.1672 946.967 80.9205 949.429 75C952.499 67.6187 954.723 60.6566 956.97 53C957.732 50.4016 959.645 46.9547 957.954 44.3333C955.208 40.0784 948.859 45.4167 946 47C943.248 38.5422 938.733 25.129 928.996 22.4337C922.832 20.7272 915.851 24.3204 910 22.3859C906.325 21.1708 903.882 17.5598 900.004 16.7616C897.057 16.155 895.192 17.9266 892.714 19.0964C886.45 22.0538 881.271 22.8983 880.188 31C878.301 45.1205 883.94 61.5897 900 62.892C908.812 63.6066 919.29 52.2361 924.352 63.0046C925.103 64.6019 925.605 66.2784 925.978 68C927.708 75.9944 924.557 83.1575 920.716 90C914.195 101.615 905.855 112.603 895.961 121.576C890.637 126.403 883.589 130.462 880.278 137.004C876.607 144.255 878.739 150.817 881.424 158C882.533 160.966 885.316 165.6 884.363 168.852C883.433 172.025 879.623 171.954 877 171.531C869.798 170.369 863.495 166.459 856 167.171C838.338 168.851 824.382 178.116 811 188.904C807.791 191.491 798.978 194.482 798.466 198.996C797.901 203.981 804.092 202.111 806.772 203.309C808.834 204.231 809.315 206.068 810 208C805.966 209.881 803.138 212.872 800 216C799.998 213.243 800.842 207.995 798.297 206.082C796.492 204.725 793.716 206.358 791.911 206.951C786.263 208.805 780.591 210.552 775 212.565C757.419 218.894 738.648 221.443 720 220.985C711.075 220.766 701.268 217.568 698.566 208C692.724 187.32 720.828 171.574 738 169.304C743.056 168.636 748.897 169.738 754 170.089C762.25 170.658 775.052 172.975 779.107 162.957C783.174 152.908 773.621 146.285 770 138L774 137C772.883 130.282 765.764 129.947 760 130.004C746.886 130.134 731.804 135.286 720 140.781C716.528 142.397 705.735 149.626 703.788 142.877C702.372 137.97 706.802 130.019 709.208 126C713.746 118.415 719.671 111.695 728 108.199C740.128 103.108 752.925 103.682 762.985 93.9568C773.026 84.2501 781.453 64.3062 769.725 52.2246C759.775 41.9736 741.933 51.7258 730 50.0656C726.137 49.5281 721.532 49.4291 718 47.6968C713.193 45.3394 709.295 41.1477 705 38.0146C697.624 32.6343 689.149 28.5323 680 27.4429C665.052 25.663 652.44 38.8778 638 36.6952C628.476 35.2555 617.579 27.1405 610.439 20.9893C605.646 16.8604 602.233 12.2112 596 10.105C589.371 7.86475 581.909 7.95312 575 8.00073C572.437 8.01843 567.87 7.60962 567.466 11.1443C566.911 16.0017 576.335 23.2229 579.116 27C582.462 31.5454 585.567 36.277 588.656 41C593.301 48.1024 598.228 54.9843 603 62C586.626 61.6624 575.165 50.3779 560 46.4784C553.001 44.6788 545.813 44.8744 539 47.4677C535.249 48.8955 531.111 52.3704 527 52.3704C523.526 52.3704 520.072 49.6823 517 48.3125C512.475 46.2948 506.984 44.9982 502 45.1289C483.511 45.6138 469.852 61.6112 451 62C455.772 54.9841 460.699 48.1024 465.344 41C468.433 36.277 471.538 31.5453 474.884 27C477.665 23.2231 487.089 16.0016 486.534 11.1443C486.13 7.60938 481.563 8.01843 479 8.00073C472.091 7.95312 464.629 7.86475 458 10.105C451.767 12.2113 448.354 16.8604 443.561 20.9893C436.421 27.1404 425.524 35.2556 416 36.6952C401.56 38.8778 388.948 25.663 374 27.4429C364.851 28.5323 356.376 32.6343 349 38.0146C344.705 41.1477 340.807 45.3394 336 47.6968C332.468 49.4291 327.863 49.5281 324 50.0656C312.067 51.7258 294.225 41.9736 284.275 52.2246C272.547 64.3062 280.974 84.2501 291.015 93.9568C301.074 103.682 313.872 103.108 326 108.199C334.329 111.695 340.254 118.415 344.792 126C347.198 130.019 351.628 137.97 350.212 142.877C348.265 149.626 337.472 142.397 334 140.781C322.196 135.286 307.114 130.134 294 130.004C288.236 129.947 281.117 130.282 280 137M229 47C230.149 49.04 231.184 51.7036 233.275 52.973C243.191 58.9927 251.592 40.2656 251.867 33C252.566 14.5381 232.504 4.74951 217 13.5332C195.663 25.6216 190.16 55.1477 201.324 76C221.153 113.039 271.306 115.135 307 125.576C314.022 127.629 320.651 130.179 327 133.877C330.472 135.899 333.408 138.906 337 140.685C340.168 142.254 344.349 142.232 344.809 137.941C345.456 131.903 340.57 128.001 335.999 125.204C326.293 119.265 315.814 115.336 305 111.974C291.994 107.932 280.255 101.928 268 96.1188C254.239 89.5956 238.528 82.5464 231.438 68C228.177 61.3091 228.857 54.1387 229 47M824 47C828.5 61.2618 820.608 73.7075 810 82.79C803.099 88.6989 794.128 92.2661 786 96.1188C777.996 99.9128 770.229 104.224 762 107.547C754.826 110.444 747.218 112.08 740 114.814C731.412 118.066 722.531 121.674 715.043 127.093C711.506 129.653 708.107 134.165 709.333 138.852C710.286 142.49 714.31 142.017 717 140.685C726.729 135.868 734.216 129.25 745 126.141C780.792 115.824 828.775 113.582 850.91 79C861.035 63.181 861.12 38.9634 849.076 24.1698C839.553 12.4741 817.915 3.18298 806.419 18.0154C799.306 27.1921 802.069 40.3588 808.637 48.9561C813.719 55.6074 821.786 55.3816 824 47z"
     id="path2" />
  <path
     style="fill:#ffffff; stroke:none;"
     d="M330 56C326.288 56.293 322.733 57.058 319 56.5679C312.394 55.7006 305.656 52.9222 299 53.0339C294.356 53.1118 291.352 56.4382 287 57C278.035 73.0043 290.679 91.2643 306 97.5247C314.073 100.824 323.117 100.846 331 104.901C336.655 107.81 341.445 111.901 345.239 117C350.767 124.428 355.566 134.6 355.959 144C356.16 148.798 354.849 154.313 348.999 154.468C342.936 154.627 336.459 149.241 331 147.015C318.156 141.776 303.963 136.599 290 136C289.96 140.802 289.426 144.875 286.752 149C285.258 151.303 281.358 154.692 282.342 157.772C283.184 160.409 286.703 160.812 289 160.956C295.754 161.38 302.304 160.548 309 160.089C326.239 158.909 347.732 167.291 357.616 182.015C369.38 199.54 362.131 224.969 340 228.56C321.646 231.539 299.593 227.82 282 222.113C274.122 219.558 266.877 215.568 259 213C258.985 217.361 257.98 220.832 257 225C250.265 224.06 244.656 217.608 240 213C231.91 218.508 224.912 222.719 215 224C216.251 239.11 202.251 245.686 196.597 258C192.115 267.762 195.339 277.191 197 287C204.461 283.087 203.717 268.662 212.985 266.832C216.332 266.171 217.748 269.242 217.927 272.015C218.223 276.607 217.067 282.951 214.86 287C210.113 295.709 200.378 296.908 193.572 302.843C190.959 305.121 187.133 313.549 186.738 316.961C186.42 319.7 188.598 321.671 189.455 324.089C190.439 326.864 190.632 330.092 191 333C196.175 335.449 197.256 338.496 197 344C202.241 341.21 208.685 335.472 214.996 336.272C218.359 336.698 222.617 339.976 220.863 343.788C219.53 346.686 215.338 348.226 213 350.213C208.683 353.882 204.832 358.101 202 363C211.202 366.245 203.262 373.034 201 379C206.595 379.506 211.999 377.229 217 374.85C219.365 373.724 222.232 372.135 224.458 374.488C226.745 376.907 224.793 379.692 222.876 381.536C218.092 386.138 211.776 389.058 208.367 395.004C205.951 399.218 205.642 404.982 212.005 404.833C220.405 404.635 228.6 394.662 233.715 389.015C237.378 384.97 245.112 381.731 247.258 376.815C249.076 372.647 248 366.456 248 362C248 354.282 247.038 346.677 247.001 339C246.975 333.64 247.978 327.191 246.49 322C243.984 313.258 237.443 306.876 238.185 297C238.553 292.1 243.739 275.941 249.86 286.062C251.845 289.345 251.733 293.333 252.17 297C252.862 302.818 254.154 308.059 253.965 314C253.635 324.348 253.867 333.25 257 343L255 339C251.762 346.792 258.216 353.826 264.004 358.154C271.977 364.116 281.297 372.412 282 383C274.805 381.89 273.019 376.369 269.012 371.171C266.339 367.704 262.748 365.157 259 363L260 366C258.566 364.607 257.955 363.767 257 362C254.714 367.447 255.889 374.189 253.945 380C252.816 383.376 250.482 385.84 249.008 389C247.703 391.799 247.881 395.048 247.072 398C245.487 403.782 243.021 407.814 243 414C245.739 412.589 249.651 408.464 252.867 408.921C257.018 409.51 256.431 415.087 256.441 418C256.474 427.928 255.615 436.612 252 446C261.259 441.203 267.99 432.547 274.925 425.004C276.893 422.864 280.681 417.201 284.277 418.573C288.004 419.995 286.907 426.088 286.384 429C284.683 438.479 279.495 447.339 279 457C283.349 453.101 290.712 449.453 292.982 443.96C295.263 438.441 294.099 426.154 300.224 423.086C303.897 421.247 306.572 425.21 307.956 428.005C312.099 436.366 316.424 446.054 319 455C321.658 448.003 317.68 438.606 319.175 431C320.618 423.663 326.874 418.76 327.816 411C328.648 404.137 326.407 392.762 336.004 391.243C344.446 389.907 351.031 397.689 358 401C358.001 399.008 357.917 396.982 358.094 394.995C358.294 392.751 361.388 383.445 365.049 387.662C366.283 389.083 365.534 391.373 365.331 393.001C364.823 397.076 366.227 403.434 362.682 406.396C356.679 411.412 348.859 402.632 344 399.97C341.808 398.769 338.008 397.16 336.028 399.607C333.321 402.952 335.182 410.806 333.957 415C332.136 421.232 327.497 425.988 325.654 432C324.625 435.354 325.509 438.625 325.83 442C326.401 447.997 326.548 454.001 327.285 460C327.798 464.175 330.577 478.123 324.049 479.079C320.062 479.662 318.377 471.672 317.308 469C312.517 457.023 307.667 445.032 303 433C298.921 441.485 300.672 449.938 291 455C293.942 456.452 297.188 457.063 299.671 459.394C306.776 466.067 307.195 479.268 310.757 488C313.922 495.76 319.567 502.779 325.272 508.83C336.467 520.705 348.97 530.719 362 540.486C367.961 544.955 374.582 548.824 379.91 554.093C391.694 565.746 399.556 582.3 404.377 598C417.82 641.774 394.417 681.142 382.208 722C377.704 737.073 372.323 752.347 370.289 768C369.041 777.614 370.817 787.388 369.246 797C366.729 812.406 356.199 827.034 360 843C363.494 840.004 365.04 835.811 368.123 832.428C369.4 831.027 370.788 829.56 372.286 828.394C384.03 819.257 387.26 838.951 389.588 845.975C390.19 847.793 391.069 849.339 392 851C394.347 845.774 394.113 839.846 397.8 835.059C401.866 829.782 405.567 832.33 406 838C408.338 835.375 415.098 824.645 418.397 832.149C421.874 840.058 415.286 849.811 416.175 858C416.502 861.013 419.789 865.86 418.674 868.678C416.493 874.191 405.31 864.089 406.697 873.044C406.852 874.047 407.395 875.103 407.84 876.001C412.211 884.817 431.496 900.721 438.347 885.985C440.225 881.946 440.535 876.396 440.407 872C440.336 869.573 439.603 866.538 441.6 864.623C445.366 861.01 448.477 867.461 450 870C454.353 866.908 457.155 862.657 461.039 859.074C462.574 857.658 464.57 855.823 466.852 856.497C469.63 857.317 469.813 860.65 470.02 863.001C470.457 867.972 470.655 875.235 472.603 879.816C473.933 882.944 477.479 884.485 479.985 886.518C483.612 889.46 486.981 893.451 488.351 898C490.575 905.385 486.455 913.655 478.001 910.08C468.792 906.186 462.811 896.868 456 890C452.718 892.027 449.246 894.145 446.789 897.184C438.965 906.865 442.359 917.861 453 923.19C465.869 929.635 486.39 922.912 491.332 942C492.403 946.138 489.62 950.462 484.999 949.378C479.796 948.157 476.651 942.914 472.019 940.737C469.31 939.464 467.36 941.168 467.362 944.02C467.364 947.236 469.594 950.388 471.229 953C475.25 959.423 480.468 965.073 483.676 972C490.784 987.348 488.732 1008.65 487.17 1025C486.369 1033.38 486.078 1040.42 479.815 1046.9C473.445 1053.49 464.725 1055.95 456 1057.41C440.185 1060.07 423.75 1058.54 411.17 1047.49C406.187 1043.11 401.842 1037.41 398.036 1032C395.366 1028.2 393.07 1023.39 388.96 1020.94C375.82 1013.09 354.324 1026.28 350 1039C360.121 1033.68 372.438 1027.76 384 1032.48C388.666 1034.39 401.3 1044.63 394.667 1050.26C389.334 1054.78 377.697 1048.65 372 1047.16C357.878 1043.46 345.276 1052.49 341 1066C349.023 1062.71 357.154 1058.5 366 1058.1C378.047 1057.56 389.557 1063.71 400 1068.74C402.886 1070.13 405.792 1071.41 409 1071.81C412.144 1072.21 416.002 1071.33 418.851 1073.03C422.916 1075.45 421.626 1080.64 418.606 1083.35C413.258 1088.15 403.548 1087.43 397 1086.41C378.355 1083.5 360.538 1070.45 342 1078.58C335.243 1081.54 331.101 1084.73 329 1092C337.616 1089.27 346.554 1082.02 352.91 1093C355.098 1096.79 353.739 1105.53 358.279 1107.36C362.089 1108.89 367.31 1105.53 371 1104.68C378.293 1103 388.599 1101.26 396 1102.48C407.099 1104.31 412.107 1117.21 423 1118.76C431.254 1119.94 438.415 1112.87 444 1107.83C455.253 1097.67 465.731 1085.29 481 1081.16C491.621 1078.29 507.089 1083.96 515.786 1075.72C524.982 1067.01 522.239 1047.23 521.17 1036C518.36 1006.48 520.72 976.537 519.985 947C519.779 938.712 517.982 929.216 513.637 922.039C512.077 919.463 509.249 917.626 507.967 914.93C507.023 912.946 507.703 910.74 510.124 910.546C515.905 910.085 519.622 918.06 525 919.468C530.907 921.014 534.786 915.416 539 912.431C540.75 911.191 544.279 909.229 546.029 911.618C547.831 914.078 544.607 916.8 543.165 918.424C538.724 923.428 536.228 930.44 535.145 937C530.484 965.24 537.049 993.736 533.714 1022C532.22 1034.67 530.916 1048.31 532.729 1061C533.536 1066.65 534.303 1072.69 539.105 1076.49C548.565 1083.97 564.01 1078.15 575 1081.75C589.793 1086.6 599.726 1098.83 611 1108.71C616.432 1113.48 623.101 1119.89 631 1118.76C641.893 1117.21 646.901 1104.31 658 1102.48C665.401 1101.26 675.707 1103 683 1104.68C686.69 1105.53 691.911 1108.89 695.721 1107.36C700.262 1105.53 698.902 1096.79 701.089 1093C707.446 1082.02 716.384 1089.27 725 1092C722.899 1084.73 718.757 1081.54 712 1078.58C693.462 1070.45 675.645 1083.5 657 1086.41C650.452 1087.43 640.742 1088.15 635.394 1083.35C632.374 1080.64 631.084 1075.45 635.149 1073.03C637.997 1071.33 641.856 1072.21 645 1071.81C648.208 1071.41 651.114 1070.13 654 1068.74C664.443 1063.71 675.953 1057.56 688 1058.1C696.846 1058.5 704.977 1062.71 713 1066C708.724 1052.49 696.122 1043.46 682 1047.16C676.303 1048.65 664.666 1054.78 659.333 1050.26C652.7 1044.63 665.334 1034.39 670 1032.48C681.562 1027.76 693.879 1033.68 704 1039C699.676 1026.28 678.18 1013.09 665.04 1020.94C660.93 1023.39 658.634 1028.2 655.964 1032C652.158 1037.41 647.813 1043.11 642.83 1047.49C629.87 1058.88 613.198 1059.97 597 1057.25C588.255 1055.78 579.368 1052.87 573.329 1045.96C567.755 1039.57 567.588 1032.93 566.83 1025C565.268 1008.65 563.216 987.348 570.324 972C573.532 965.073 578.75 959.423 582.771 953C584.406 950.388 586.636 947.236 586.638 944.02C586.64 941.168 584.69 939.464 581.981 940.737C577.349 942.914 574.204 948.157 569.001 949.378C563.714 950.619 561.457 945.263 562.999 941C569.461 923.138 586.885 929.756 600 923.676C610.778 918.679 615.2 908.374 607.891 898.093C605.561 894.816 602.022 892.585 599 890C590.463 896.03 585.35 906.891 575 910.481C563.532 914.459 564.012 899.251 568.109 893.001C571.445 887.911 577.989 885.631 580.972 880.674C583.321 876.771 583.51 868.549 583.915 864C584.144 861.431 584.006 857.425 587.148 856.497C589.43 855.823 591.426 857.658 592.961 859.074C596.845 862.657 599.647 866.908 604 870C605.523 867.461 608.634 861.01 612.4 864.623C614.397 866.538 613.664 869.573 613.593 872C613.465 876.396 613.775 881.946 615.653 885.985C622.504 900.721 641.789 884.817 646.16 876.001C646.605 875.103 647.148 874.048 647.303 873.044C648.69 864.089 637.507 874.191 635.326 868.678C634.211 865.86 637.498 861.013 637.825 858C638.714 849.811 632.126 840.058 635.603 832.149C638.86 824.742 645.41 834.811 647 838C647.762 836.372 648.162 833.844 649.6 832.657C652.057 830.63 654.702 833.115 656.2 835.059C659.64 839.525 660.761 845.51 661 851C662.568 849.429 663.63 848.13 664.391 845.981C666.849 839.044 669.89 819.194 681.714 828.394C683.496 829.781 685.194 831.563 686.649 833.286C689.37 836.508 690.761 840.224 694 843C697.801 827.034 687.271 812.406 684.754 797C683.183 787.388 684.959 777.614 683.711 768C681.677 752.347 676.295 737.073 671.792 722C659.583 681.142 636.18 641.774 649.623 598C654.444 582.3 662.306 565.746 674.089 554.093C688.885 539.462 708.094 529.93 722.754 514.87C730.323 507.094 738.374 499.093 742.826 489C747.851 477.609 747.446 457.604 763 456C755.586 449.284 752.799 443.038 752 433C744.872 441.822 741.393 456.391 737.47 467C736.389 469.923 734.463 478.529 730.795 479.079C724.247 480.061 725.876 466.471 726.286 463C727.075 456.315 727.628 449.705 728.089 443C728.319 439.668 729.328 436.339 728.602 433C727.22 426.644 721.923 421.433 720.043 415C718.818 410.805 720.679 402.952 717.972 399.607C715.992 397.16 712.192 398.769 710 399.97C705.141 402.632 697.321 411.412 691.318 406.396C687.773 403.434 689.178 397.076 688.669 393.001C688.466 391.373 687.716 389.083 688.951 387.662C692.612 383.445 695.706 392.751 695.906 394.995C696.083 396.982 695.999 399.008 696 401C703.079 397.637 711.252 388.248 719.956 391.743C727.963 394.959 725.228 405.428 726.326 412C727.442 418.681 732.364 422.854 734.351 429C736.985 437.145 734.648 446.693 734 455C738.858 447.778 741.279 438.942 744.721 431C746.005 428.037 747.436 423.595 751.029 422.752C754.411 421.957 756.274 425.366 757.235 428.005C759.278 433.613 758.617 440.726 761.938 445.816C764.92 450.387 770.686 452.511 774 457C776.869 449.575 769.318 437.599 767.808 430C767.184 426.859 766.107 422.221 768.514 419.539C771.788 415.888 776.156 421.828 778.166 424.015C785.38 431.866 792.363 441.007 802 446C798.385 436.612 797.526 427.928 797.559 418C797.569 415.087 796.982 409.51 801.133 408.921C804.349 408.464 808.261 412.589 811 414C810.979 407.814 808.513 403.782 806.928 398C806.119 395.048 806.297 391.799 804.992 389C803.518 385.84 801.184 383.376 800.055 380C798.088 374.12 798 368.121 798 362L794 366L795 363C791.252 365.157 787.661 367.704 784.988 371.171C780.98 376.369 779.195 381.89 772 383C773.014 367.742 788.168 363.241 796.15 352.816C799.275 348.734 799.956 343.966 800 339C798.919 340.458 798.564 341.248 798 343C798.04 339.786 799.7 337.188 799.945 333.961C801.025 319.779 800.121 306.132 802.3 292C803.376 285.024 809.985 278.727 813.856 288.015C817.063 295.713 815.963 304.542 812.651 312C811.005 315.708 808.092 318.964 807.278 323C806.191 328.388 807.061 334.52 806.996 340C806.909 347.344 806 354.611 806 362C806 366.456 804.924 372.647 806.742 376.815C808.946 381.864 817.333 385.816 821.17 390.004C826.081 395.365 833.295 403.715 840.999 404.753C847.847 405.675 848.337 399.722 845.633 395.004C842.224 389.058 835.908 386.138 831.124 381.536C829.207 379.692 827.255 376.907 829.542 374.488C831.768 372.135 834.635 373.724 837 374.85C842.001 377.229 847.405 379.506 853 379C850.738 373.034 842.798 366.245 852 363C849.168 358.101 845.317 353.882 841 350.213C838.662 348.226 834.47 346.686 833.137 343.788C831.383 339.976 835.64 336.698 839.004 336.272C845.315 335.472 851.759 341.21 857 344C856.744 338.496 857.825 335.449 863 333C863.368 330.093 863.561 326.864 864.545 324.089C865.402 321.671 867.58 319.7 867.262 316.961C866.867 313.549 863.041 305.121 860.428 302.843C853.622 296.908 843.887 295.709 839.14 287C836.933 282.951 835.777 276.607 836.073 272.015C836.252 269.242 837.668 266.171 841.015 266.832C850.283 268.662 849.539 283.087 857 287C858.661 277.192 861.885 267.762 857.403 258C851.749 245.686 837.749 239.11 839 224C829.721 222.801 821.816 219.463 815 213C809.303 216.994 804.142 224.003 797 225C796.02 220.832 795.015 217.361 795 213C787.123 215.568 779.878 219.558 772 222.113C754.407 227.82 732.354 231.539 714 228.56C691.869 224.969 684.62 199.54 696.384 182.015C706.268 167.291 727.761 158.909 745 160.089C751.696 160.548 758.246 161.38 765 160.956C767.297 160.812 770.816 160.409 771.658 157.772C772.642 154.692 768.742 151.303 767.248 149C764.574 144.875 764.04 140.802 764 136C750.037 136.599 735.844 141.776 723 147.015C717.541 149.241 711.064 154.627 705.001 154.468C699.151 154.313 697.84 148.798 698.041 144C698.434 134.6 703.233 124.428 708.761 117C712.555 111.901 717.345 107.81 723 104.901C730.883 100.846 739.926 100.824 748 97.5247C763.321 91.2642 775.965 73.0042 767 57C762.629 56.472 759.659 53.1121 755 53.0339C748.344 52.9222 741.606 55.7006 735 56.5679C731.267 57.058 727.712 56.293 724 56C725.531 58.6167 727.053 61.2383 730.04 62.3966C732.954 63.5267 736.19 62.6096 738.852 64.6034C743.77 68.2875 741.085 76.1071 736.622 79.098C732.393 81.9327 729.127 77.3527 727.374 73.9961C720.135 60.1331 709.248 49.9611 695.999 41.5448C690.694 38.1746 683.424 34.8599 677 35.21C662.334 36.0093 650.093 47.6039 635 44.3302C624.629 42.0807 613.92 34.3885 606.015 27.561C602.906 24.8767 600.509 21.0492 596.961 18.9382C592.83 16.4811 586.7 16.2019 582 16C585.348 23.5223 591.368 30.0242 595.772 37C599.83 43.4286 603.998 49.9695 608.76 55.9105C610.675 58.3003 614.678 60.7495 615.079 63.9993C616.135 72.5667 599.408 70.0391 595 69.1952C574.194 65.212 557.328 45.6128 536 58C540.596 63.3131 545.73 67.3877 548.671 74C549.931 76.8333 549.658 80.0062 550.893 82.7909C552.7 86.8624 556.257 88.226 557 93C565.745 93.001 576.807 93.5729 583.907 99.4182C598.582 111.501 593.852 138.174 582.671 150.957C579.914 154.108 576.378 155.714 573 158C592.097 169.604 602.798 143.394 606.113 129C606.826 125.902 607.57 110.992 613.727 114.752C616.508 116.45 617.455 121.031 617.816 124C619.293 136.18 610.359 141.587 606.854 152C604.284 159.635 606.246 168.982 604.739 177C602.292 190.018 592.696 206.709 580 212.009C575.265 213.986 570.035 213.997 565 214C571.042 226.362 593.437 224.841 593.941 241C594.214 249.759 586.6 256.088 580 260.652C565.783 270.483 546.938 274.771 536.24 289C534.435 291.401 532.64 293.892 532.514 297C532.293 302.467 537.8 313.16 529.969 315.566C528.379 316.055 526.638 315.96 525 316C525.185 311.684 526.466 307.289 525.467 303C520.991 283.793 501.449 275.968 486 267.78C475.678 262.31 457.887 253.158 460.225 239C462.619 224.507 483.154 225.963 489 214C483.965 213.997 478.735 213.986 474 212.009C461.304 206.709 451.708 190.018 449.261 177C447.754 168.982 449.716 159.635 447.146 152C443.641 141.587 434.707 136.18 436.184 124C436.545 121.031 437.492 116.45 440.273 114.752C446.43 110.992 447.174 125.902 447.887 129C451.202 143.394 461.902 169.604 481 158C477.622 155.714 474.085 154.108 471.329 150.957C460.148 138.174 455.418 111.501 470.093 99.4182C477.193 93.5729 488.255 93.001 497 93C497.743 88.2257 501.3 86.8627 503.106 82.7909C504.194 80.3402 503.937 77.5132 504.894 75C507.461 68.26 512.381 63.282 518 59C501.815 42.6575 478.843 64.8007 462 68.5748C456.542 69.798 449.512 71.2909 444.005 69.6165C441.562 68.8737 438.556 66.9623 438.921 63.9993C439.41 60.0372 445.721 55.2964 448.025 51.9993C451.277 47.3451 454.614 42.8282 457.611 38C462.164 30.6648 468.499 23.8676 472 16C467.3 16.2019 461.17 16.4811 457.039 18.9382C453.491 21.0492 451.094 24.8766 447.985 27.561C440.08 34.3885 429.371 42.0807 419 44.3302C403.907 47.6039 391.666 36.0093 377 35.21C370.576 34.8599 363.306 38.1746 358.001 41.5448C344.752 49.9611 333.865 60.1329 326.626 73.9961C324.873 77.3525 321.607 81.9326 317.378 79.098C312.915 76.1071 310.23 68.2875 315.148 64.6034C317.809 62.6097 321.046 63.5267 323.96 62.3966C326.947 61.2383 328.469 58.6166 330 56M339 135C330.658 124.344 314.293 120.492 302 116.482C282.888 110.246 262.511 103.27 245 93.3464C228.513 84.0032 215.181 71.243 220 51C217.871 49.7019 215.638 48.5043 214.835 45.9445C213.093 40.3939 219.542 32.7244 224.999 32.3372C229.354 32.0282 231.891 35.4791 233.536 38.9993C234.328 40.6934 235 43.7228 237.235 44.0787C239.962 44.5133 241.679 41.0068 242.517 38.9954C244.613 33.9637 244.708 27.6053 241.196 23.1891C232.167 11.8359 212.979 21.524 206.764 31.0039C198.744 43.2378 201.549 62.7013 208.181 75C215.407 88.3986 228.863 94.5802 242 100.781C265.092 111.681 289.992 114.351 314 122.355C323.16 125.409 330.487 130.783 339 135M834 51C838.819 71.2432 825.488 84.0031 809 93.3464C791.489 103.27 771.112 110.246 752 116.482C739.707 120.492 723.342 124.344 715 135C723.513 130.783 730.84 125.409 740 122.355C764.008 114.351 788.908 111.681 812 100.781C825.137 94.5802 838.593 88.3986 845.819 75C852.451 62.7014 855.256 43.2378 847.236 31.0039C841.021 21.524 821.833 11.8359 812.804 23.1891C809.292 27.6052 809.387 33.9637 811.483 38.9954C812.321 41.0068 814.038 44.5133 816.765 44.0787C819 43.7228 819.672 40.6932 820.464 38.9993C822.109 35.479 824.646 32.0282 829.001 32.3372C834.458 32.7244 840.907 40.3939 839.165 45.9445C838.362 48.5043 836.129 49.7019 834 51M160 28C158.821 31.4363 156.439 35.8595 152.014 35.0339C149.599 34.5834 147.949 32.453 145.715 31.5872C139.686 29.2513 130.425 29.0977 125.09 32.9197C116.165 39.3143 118.278 52.7697 106 55C107.271 63.6033 112.927 70.5565 114.467 79C115.32 83.6786 111.742 87.4641 112.692 92C113.71 96.8625 116.917 101.024 117.829 106C118.63 110.373 117.121 115.62 118.568 119.714C120.41 124.927 125.377 128.223 126.431 134C127.311 138.829 124.369 143.234 124.108 148C123.779 154.021 126.521 159.987 127 166C132.548 165.586 135.405 168.217 134.811 174C134.048 181.427 129.337 188.287 131.573 195.996C134.041 204.51 145.046 205.715 149.525 213.004C153.561 219.57 148.734 224.45 150 231C151.247 230.837 152.754 230.43 154.029 230.72C163.479 232.872 157.206 243.626 158.48 250C159.763 256.417 164.531 261.508 165.671 268C166.563 273.075 167.532 279.896 166.786 285C166.177 289.173 164.223 292.704 164 297C169.219 293.783 178.712 290.594 182.351 285.65C186.924 279.439 184.178 269.211 185.884 262C187.012 257.235 187.932 252.205 190.562 248.001C193.06 244.009 196.896 241.181 199 237C193.933 233.104 189.024 227.915 191.858 221.015C193.132 217.912 197.142 215.588 196.713 211.961C196.086 206.667 186.238 197.1 195.059 193.086C201.401 190.201 206.95 202.723 213 204.102C219.696 205.628 229.69 197.433 236 195C227.751 183.793 208.277 173.818 194 175.199C184.478 176.12 171.759 185.224 163.214 176.782C152.871 166.565 171.587 153.583 166.987 142.004C164.186 134.953 155.271 130.129 150 124.985C133.601 108.982 108.372 78.7236 124.916 55.0154C135.495 39.8552 149.439 62.7777 161.351 51.4152C166.885 46.1364 169.624 29.5348 160 28M818 195C824.31 197.433 834.304 205.628 841 204.102C847.05 202.723 852.599 190.201 858.941 193.086C867.762 197.1 857.914 206.667 857.287 211.961C856.858 215.588 860.868 217.912 862.142 221.015C864.976 227.915 860.067 233.104 855 237C857.104 241.181 860.94 244.009 863.438 248.001C866.068 252.205 866.988 257.235 868.116 262C869.806 269.144 867.03 279.576 871.699 285.65C875.489 290.582 884.722 293.746 890 297C889.777 292.704 887.823 289.174 887.214 285C886.468 279.896 887.437 273.075 888.329 268C889.469 261.508 894.237 256.417 895.52 250C896.794 243.626 890.521 232.872 899.971 230.72C901.246 230.43 902.753 230.837 904 231C905.266 224.45 900.439 219.57 904.475 213.004C908.954 205.715 919.959 204.51 922.427 195.996C924.663 188.287 919.952 181.427 919.189 174C918.595 168.217 921.452 165.586 927 166C927.479 159.987 930.221 154.021 929.892 148C929.631 143.234 926.689 138.829 927.569 134C928.623 128.223 933.59 124.927 935.432 119.714C936.879 115.62 935.37 110.373 936.171 106C937.083 101.024 940.29 96.8625 941.308 92C942.258 87.4641 938.68 83.6788 939.533 79C941.074 70.5564 946.729 63.6034 948 55C935.721 52.7697 937.835 39.3143 928.91 32.9197C923.575 29.0977 914.314 29.2512 908.286 31.5872C906.051 32.453 904.401 34.5834 901.986 35.0339C897.561 35.8595 895.179 31.4362 894 28C884.376 29.5348 887.115 46.1364 892.649 51.4152C904.561 62.7777 918.505 39.8551 929.084 55.0154C945.628 78.7236 920.399 108.981 904 124.985C898.729 130.129 889.814 134.953 887.013 142.004C882.413 153.583 901.129 166.565 890.786 176.782C882.241 185.224 869.522 176.12 860 175.199C845.723 173.818 826.249 183.793 818 195M227 41L228 42L227 41M826 41L827 42L826 41M228.333 43.6666C228.278 43.7222 228.222 44.7778 228.667 44.3334C228.722 44.2777 228.778 43.2223 228.333 43.6666M825.333 43.6666C825.278 43.7219 825.222 44.7781 825.667 44.3334C825.723 44.2775 825.778 43.2223 825.333 43.6666z"
     id="path3" />
  <path
     style="fill:#000000; stroke:none;"
     d="M366.999 52.8379C360.2 53.3978 356.746 61.0319 353.144 65.8302C351.352 68.217 348.629 70.7494 350.662 73.8557C354.549 79.7952 365.245 77.0062 371 79.4684C373.927 80.7205 377.515 83.6213 380.852 83.2925C383.025 83.0784 383.969 81.097 383.342 79.1257C382.487 76.4384 379.828 74.5697 378.652 71.9854C375.826 65.7753 377.318 51.988 366.999 52.8379M686.004 52.8125C676.507 53.1766 678.121 65.8928 675.348 71.9854C674.172 74.5696 671.513 76.4384 670.658 79.1257C670.031 81.097 670.975 83.0784 673.148 83.2925C676.485 83.6213 680.073 80.7203 683 79.4684C688.528 77.1038 701.115 79.8444 703.825 72.9561C704.933 70.14 702.388 67.8704 700.856 65.8302C697.134 60.8717 693.33 52.5316 686.004 52.8125z"
     id="path4" />
  <path
     style="fill:#ffffff; stroke:none;"
     d="M367 59C362.421 64.7581 363.591 68.6532 371 70C370.216 65.9703 369.593 62.2571 367 59M686 59C684.668 62.6267 683.738 66.2097 683 70C690.461 68.6437 692.155 63.8822 686 59M484 147C488.079 143.019 492.942 146.457 492.562 152C491.907 161.555 480.033 169.827 471 168.811C465.559 168.199 461.031 164.831 456 163C456.002 177.59 461.101 196.268 475.004 203.925C480.892 207.168 492.321 202.818 495.682 209.062C502.104 220.993 483.067 229.627 475.001 233.439C470.872 235.39 466.403 238.839 468.184 244C470.885 251.831 481.19 256.684 488 260.255C502.32 267.766 517.05 273.691 526 288L528 288C536.95 273.691 551.68 267.766 566 260.255C572.81 256.684 583.115 251.831 585.816 244C587.597 238.839 583.128 235.39 578.999 233.439C570.933 229.627 551.896 220.993 558.318 209.062C561.679 202.818 573.108 207.168 578.996 203.925C592.899 196.268 597.998 177.59 598 163C592.969 164.831 588.44 168.199 583 168.811C573.967 169.827 562.093 161.555 561.438 152C561.058 146.457 565.921 143.019 570 147C586.931 143.925 589.082 112.207 574.996 104.089C568.394 100.285 555.714 104.901 551.174 97.7723C550.108 96.0973 549.984 94.0107 549.003 92.2855C547.337 89.3535 544.886 87.2548 543.673 83.9993C541.47 78.0891 541.6 72.9805 536.892 68.0895C534.552 65.6586 530.651 61.6281 527 61.6281C523.349 61.6281 519.448 65.6584 517.108 68.0895C512.4 72.9805 512.53 78.0891 510.327 83.9993C509.114 87.2548 506.663 89.3536 504.997 92.2855C504.016 94.0106 503.892 96.0973 502.826 97.7723C498.285 104.901 485.606 100.285 479.004 104.089C464.918 112.207 467.069 143.925 484 147M450 62L451 63L450 62M603 62L604 63L603 62z"
     id="path5" />
  <path
     style="fill:#ffffff; stroke:none;"
     d="M205 210C205.336 217.64 199.537 220.895 199 228C202.756 224.942 204.705 219.989 209.043 217.688C212.46 215.876 216.351 216.203 220 215.236C226.733 213.452 232.014 209.639 236 204C229.568 204.855 225.18 209.854 219 211.443C214.122 212.697 209.678 211.238 205 210z"
     id="path7" />
  <path
     style="fill:#000000; stroke:none;"
     d="M313 204L314 205L313 204M740 204L741 205L740 204z"
     id="path8" />
  <path
     style="fill:#ffffff; stroke:none;"
     d="M818 204C821.986 209.639 827.267 213.452 834 215.236C837.649 216.203 841.54 215.876 844.957 217.688C848.997 219.831 851.356 224.424 854 228C855.739 223.35 852.065 221.561 849.973 217.83C848.607 215.394 848.882 212.676 849 210C844.322 211.238 839.878 212.697 835 211.443C828.82 209.854 824.432 204.855 818 204z"
     id="path9" />
  <path
     style="fill:#000000;stroke:none"
     d="m 50,210 1,1 -1,-1 m 953,0 1,1 -1,-1 m -571,27 c -1.899,3.207 -5.051,6.194 -5.567,10.015 -0.942,6.977 2.055,14.023 -0.577,20.985 -4.007,10.599 -13.754,14.809 -13.856,27 -1.595,-1.868 -3.123,-3.721 -5.094,-5.215 -1.484,-1.125 -3.149,-2.149 -4.906,-2.786 -13.843,-5.013 -7.836,14.605 -12.838,19.557 -3.407,3.373 -7.063,2.764 -11.158,4.453 -4.833,1.994 -8.016,6.923 -8.791,11.991 -2.225,14.558 8.146,27.8 12.427,41 2.103,6.484 0.643,12.417 0.36,19 -3.306,-5.158 -8.176,-8.845 -11.441,-14.001 -2.471,-3.902 -3.933,-8.55 -5.081,-12.999 -0.596,-2.312 -0.712,-5.554 -2.416,-7.392 -1.974,-2.128 -5.431,-1.122 -6.289,1.54 -0.84,2.606 0.332,6.299 0.972,8.852 1.506,6.008 3.401,11.911 7.044,17 3.178,4.44 8.028,7.804 10.063,13 1.55,3.959 -1.042,18.364 5.163,18.364 5.761,0 6.475,-13.26 7.705,-17.364 3.131,-10.453 4.83,-21.498 0.813,-32 -2.84,-7.424 -6.48,-14.516 -9.214,-22 -1.287,-3.525 -3.127,-7.465 -2.04,-11.282 3.248,-11.395 15.83,-3.784 22.403,-9.321 C 403.333,312.32 402,305.245 402,301 c 4.467,1.061 10.292,5.066 14.891,3.242 6.453,-2.559 2.082,-9.604 4.175,-14.242 2.98,-6.6 9.524,-10.994 12.304,-18 2.721,-6.859 0.88,-13.897 1.648,-21 0.651,-6.025 9.809,-11.545 5.236,-17.772 -2.461,-3.351 -15.136,-7.444 -18.646,-4.393 -6.458,5.613 7.409,8.101 10.392,8.165 m 220,64 c 0,4.245 -1.333,11.32 2.318,14.397 6.633,5.588 19.194,-2.118 22.403,9.437 1.057,3.807 -0.756,7.651 -2.04,11.166 -2.735,7.483 -6.374,14.576 -9.214,22 -4.017,10.502 -2.318,21.547 0.813,32 1.17,3.905 2.232,18.914 8.587,17.248 5.362,-1.405 2.644,-14.067 4.281,-18.248 2.034,-5.196 6.885,-8.559 10.063,-13 3.643,-5.089 5.538,-10.992 7.044,-17 0.64,-2.554 1.812,-6.246 0.972,-8.852 -0.858,-2.662 -4.315,-3.668 -6.289,-1.54 -1.704,1.838 -1.82,5.08 -2.416,7.392 -1.148,4.449 -2.61,9.097 -5.081,12.999 -3.219,5.082 -8.46,8.221 -10.441,14.001 -7.477,-22.088 15.096,-38.352 11.787,-60 -0.775,-5.068 -3.958,-9.997 -8.791,-11.991 -4.094,-1.689 -7.786,-1.052 -11.158,-4.477 -4.663,-4.737 -0.543,-9.115 -2.584,-14.527 -3.975,-10.539 -15.576,-3.771 -19.254,2.995 -1.104,-3.632 -1.171,-7.606 -3.228,-10.911 -3.729,-5.986 -9.782,-9.996 -11.969,-17.089 -2.055,-6.666 0.656,-13.376 -0.236,-19.985 -0.516,-3.821 -3.668,-6.808 -5.567,-10.015 2.983,-0.064 16.85,-2.552 10.392,-8.165 -3.51,-3.051 -16.185,1.042 -18.646,4.393 -4.573,6.227 4.585,11.747 5.236,17.772 0.769,7.103 -1.073,14.141 1.648,21 2.78,7.006 9.324,11.399 12.304,18 2.093,4.638 -2.278,11.683 4.175,14.242 4.599,1.824 10.424,-2.181 14.891,-3.242 M 466,279.587 c -9.592,2.517 -11.924,15.037 -12.834,23.413 -0.353,3.245 0.006,7.881 -2.154,10.593 -2.247,2.819 -6.678,0.659 -8.829,3.841 -2.801,4.143 0.136,12.469 -1.393,17.566 -3.028,10.092 -9.936,18.711 -13.019,29 -2.861,9.548 -1.598,19.359 -4.772,29 -4.239,12.878 -13.792,23.192 -17.778,36 -3.145,10.102 2.154,20.202 4.178,30 0.837,4.052 1.852,10.49 7.562,9.238 4.008,-0.878 5.064,-4.75 5.828,-8.239 1.153,-5.267 1.488,-10.615 1.121,-15.999 -0.306,-4.512 -1.732,-9.182 3.149,-11.82 6.933,-3.748 11.082,4.583 15.366,8.426 4.126,3.702 10.164,5.116 15.575,4.014 10.475,-2.133 13.691,-12.603 18.684,-20.62 11.979,-19.233 24.719,-36.812 30.56,-59 4.109,-15.611 1.917,-33.559 -1.87,-49 -1.199,-4.892 -1.592,-10.444 -3.812,-15 -2.389,-4.901 -6.28,-8.331 -10.393,-11.73 -6.158,-5.088 -16.582,-11.936 -25.169,-9.683 m 117,-0.108 c -11.876,1.826 -25.231,10.585 -30.562,21.521 -3.352,6.876 -4.419,16.476 -5.685,24 -3.078,18.301 -2.752,37.591 4.445,55 5.571,13.475 14.252,25.924 22.287,38 4.764,7.161 8.093,17.012 14.608,22.725 6.483,5.685 17.061,5.642 23.482,-0.119 4.441,-3.984 9.223,-13.019 16.277,-7.864 3.946,2.884 2.517,7.146 2.237,11.258 -0.366,5.384 -0.031,10.732 1.122,15.999 0.862,3.934 2.654,9 7.738,8.354 4.744,-0.603 5.085,-6.708 5.855,-10.353 2.102,-9.957 7.254,-19.763 3.648,-30 -4.48,-12.716 -13.586,-22.999 -17.781,-36 -2.998,-9.289 -1.682,-18.788 -4.442,-28 -3.083,-10.288 -9.991,-18.908 -13.019,-29 -1.529,-5.097 1.407,-13.423 -1.393,-17.566 -2.151,-3.182 -6.582,-1.021 -8.829,-3.841 -2.16,-2.712 -1.801,-7.349 -2.154,-10.593 -1.066,-9.812 -4.856,-25.516 -17.834,-23.521"
     id="path10"
     sodipodi:nodetypes="ccccccccscccsccccsccscccsccccccccccsccccccccccccscccccsccccccccsccccccccccsccscccccccccccccscccscccccccccccccc" />
  <path
     style="fill:#ffffff; stroke:none;"
     d="M416 456C419.965 446.551 411.701 432.288 423.015 426.164C427.368 423.808 433.6 423.625 437.91 426.14C445.435 430.529 450.592 444.033 460.906 435.581C462.473 434.297 463.723 432.709 464.787 430.996C480.7 405.388 500.791 379.121 502.91 348C503.475 339.705 501.671 331.086 499.997 323C497.018 308.612 494.092 298.034 480 290.971C476.85 289.392 471.735 286.533 468.108 287.697C465.064 288.674 463.814 292.261 462.89 295C460.443 302.263 462.125 312.38 457.91 318.812C456.065 321.628 452.039 322.447 450.603 325.415C448.604 329.549 449.277 335.482 447.616 340C444.195 349.304 438.15 357.388 435.093 367C431.817 377.302 431.852 388.545 428.333 399C424.314 410.937 412.978 421.472 411.217 434C410.199 441.245 414.057 449.153 416 456M637 456C638.751 453.545 639.436 450.883 640.341 448C641.743 443.533 643.452 438.757 642.783 434C641.301 423.457 632.211 414.448 627.9 405C622.593 393.366 622.241 381.169 619.471 369C617.232 359.159 611.239 351.009 607.185 342C604.843 336.795 605.733 330.246 603.397 325.415C602.102 322.738 598.555 321.93 596.703 319.66C591.718 313.548 593.581 302.334 591.11 295C589.78 291.054 587.842 286.905 582.996 287.587C573.766 288.887 562.471 296.582 558.554 305C555.481 311.604 554.611 319.891 553.2 327C546.609 360.213 561.279 387.117 579.258 414C583.678 420.61 586.929 430.53 593.094 435.581C602.898 443.615 608.261 431.635 615.17 426.728C619.122 423.92 624.535 423.816 628.999 425.344C640.911 429.42 637 446.204 637 456M245 297L245 303C245.951 300.715 245.951 299.285 245 297z"
     id="path11" />
  <path
     style="fill:#000000; stroke:none;"
     d="M274.318 298.086C269.644 300.759 276.057 311.648 275.787 316C275.087 327.288 266.8 338.45 269.929 350C272.059 357.864 279.19 363.168 283.265 370C286.726 375.8 289.406 382.372 293.349 387.852C294.668 389.686 297.129 391.646 299.4 389.953C301.212 388.601 300.841 385.895 300.386 383.999C299.099 378.647 295.745 373.664 292.95 369C289.643 363.484 285.459 357.444 284.329 351C281.994 337.685 288.089 324.087 285.772 311C285.123 307.33 279.483 295.133 274.318 298.086M776.208 298.086C771.877 300.241 768.325 308.459 768.044 313C767.263 325.642 771.898 338.303 769.671 351C767.812 361.602 759.22 370.292 755.043 380C753.884 382.695 751.198 392.652 757.806 390.338C762.861 388.568 766.484 377.39 769.001 373C773.144 365.771 780.485 359.743 783.437 352C786.519 343.914 783.095 334.888 780.86 327C779.576 322.473 777.728 317.781 778.316 313C778.794 309.105 781.894 304.941 781.469 301.059C781.179 298.413 778.646 296.874 776.208 298.086z"
     id="path12" />
  <path
     style="fill:#ffffff; stroke:none;"
     d="M808 297L808 303C808.951 300.715 808.951 299.285 808 297M246.333 304.667C246.278 304.722 246.222 305.778 246.667 305.333C246.722 305.278 246.778 304.222 246.333 304.667M807.333 304.667C807.278 304.722 807.222 305.778 807.667 305.333C807.722 305.278 807.778 304.222 807.333 304.667z"
     id="path13" />
  <path
     style="fill:#000000; stroke:none;"
     d="M312.429 316.032C309.944 317.663 309.251 321.628 307.61 324C299.653 335.504 295.593 347.142 300.547 361C302.106 365.36 309.078 381.143 315.667 376.953C319.863 374.284 314.304 363.825 313.616 360C312.139 351.797 312.935 340.102 314.9 332C315.867 328.012 318.24 324.112 318.613 320.019C318.939 316.428 315.775 313.837 312.429 316.032M736.607 316.032C732.616 319.162 738.517 329.185 739.331 333C740.952 340.598 741.768 351.328 740.561 359C739.821 363.705 736.432 369.29 736.697 373.941C736.882 377.187 740.242 378.301 742.897 376.953C746.118 375.318 748.301 370.983 750.077 368C756.63 356.991 757.983 342.434 751.468 331C749.829 328.124 747.457 325.794 745.712 323C744.47 321.011 743.987 318.257 742.273 316.604C740.844 315.226 738.264 314.733 736.607 316.032M524 357C521.814 368.602 517.552 377.321 512.876 388C505.008 405.967 496.079 421.95 482 435.996C465.301 452.656 444.08 469.135 440.911 494C440.416 497.885 438.57 502.97 439.407 506.852C440.083 509.983 443.907 510.446 445.436 507.681C447.887 503.248 447.134 496.829 448.623 492C451.949 481.211 460.282 470.762 469.015 463.823C478.93 455.944 501.075 457.77 503.771 473C505.287 481.562 498.476 487.521 496 495C493.89 487.863 497.358 478.296 492.486 472.109C481.337 457.95 457.536 473.326 453.109 486C446.295 505.506 459.374 526.953 462.053 545.995C462.925 552.189 453.883 551.543 455.662 556.911C457.256 561.722 464.193 561.322 466.991 565.225C469.31 568.459 468.734 572.287 469.105 576C469.836 583.314 481.755 600.862 490.682 593.396C496.144 588.827 490.543 581.296 487.915 577C485.995 573.862 485.186 570.579 489.113 568.667C496.216 565.21 504.203 571.376 508.985 576.04C523.2 589.904 523 609.454 523 628L531 628C531 609.454 530.799 589.904 545.015 576.04C549.797 571.376 557.784 565.21 564.887 568.667C568.814 570.579 568.005 573.861 566.085 577C563.457 581.296 557.856 588.827 563.318 593.396C572.245 600.862 584.164 583.314 584.895 576C585.266 572.287 584.69 568.459 587.009 565.225C589.807 561.322 596.744 561.722 598.338 556.911C600.117 551.543 591.075 552.189 591.947 545.995C593.853 532.449 599.408 519.603 601.421 506C602.553 498.357 603.448 490.108 599.583 483C593.612 472.021 571.983 458.814 561.514 472.109C557.044 477.784 559 488.214 559 495C555.555 489.502 550.673 483.701 550.109 477C549.126 465.331 563.555 457.5 574 458.688C587.987 460.279 600.675 478.859 605.038 491C606.644 495.469 606.76 500.367 607.772 504.981C608.198 506.923 608.739 509.239 611.089 509.534C616.513 510.214 614.266 501.793 613.869 499C612.246 487.581 609.55 478.796 603.046 469C593 453.867 578.059 443.532 566.289 430C555.107 417.143 547.88 403.429 541.124 388C536.448 377.321 532.186 368.602 530 357L524 357z"
     id="path14" />
  <path
     style="fill:#ffffff; stroke:none;"
     d="M526 377C524.181 382.332 521.165 386.895 518.865 392C508.932 414.048 496.159 436.523 476 451C481.792 453.43 488.827 452.437 495 454.815C498.356 456.107 501.321 457.652 503.985 460.108C505.859 461.836 507.644 463.773 508.91 466C518.739 483.283 496.317 495.105 496.613 511C496.814 521.774 503.206 530.596 504.294 541C504.765 545.499 502.846 550.81 497.995 552.073C490.082 554.132 482.572 542.432 481.34 536C478.592 521.651 485.58 507.782 487.855 494C488.628 489.32 490.552 481.643 487.062 477.588C479.2 468.452 465.387 478.786 461.005 486C455.78 494.604 458.934 506.835 461.13 516C464.26 529.06 470.975 542.498 468 556C475.504 562.269 473.18 567.819 475.92 576C477.674 581.239 481.489 585.051 486 588C483.983 582.755 479.041 578.307 478.91 572.424C478.677 561.905 492.065 559.41 500 561.8C512.532 565.575 520.737 577.895 526 589L528 589C533.263 577.895 541.468 565.575 554 561.8C562.073 559.368 575.325 561.971 575.089 572.576C574.961 578.366 569.989 582.828 568 588C572.511 585.051 576.326 581.239 578.08 576C580.82 567.819 578.496 562.269 586 556C582.95 542.154 590.065 528.419 593.112 515C595.149 506.027 598.092 494.393 592.995 486C588.613 478.786 574.8 468.452 566.938 477.588C563.326 481.786 565.387 490.169 566.311 495C568.864 508.357 576.021 523.105 572.443 537C570.839 543.23 562.85 555.139 555.019 551.728C549.929 549.51 549.104 543.829 550.029 539C551.914 529.163 557.919 520.416 557.385 510C556.859 499.747 546.948 491.54 543.85 482C536.829 460.374 561.453 452 578 452C572.417 445.743 565.854 440.427 560.439 434C549.473 420.985 542.062 407.376 535.135 392C532.835 386.895 529.819 382.332 528 377L526 377M194 379L195 380L194 379M859 379L860 380L859 379z"
     id="path15" />
  <path
     style="fill:#ffffff; stroke:none;"
     d="M240 391C231.524 403.033 215.277 418.691 201 407C194.839 412.142 192.58 421.368 191 429C196.116 428.091 200.688 425.012 206 425.084C210.758 425.148 213.578 428.924 218 429.592C222.813 430.319 233.44 424.552 235.958 420.471C238.273 416.716 235.436 410.368 236.557 406C237.902 400.759 242.268 396.574 240 391M813 391C813.137 396.81 816.054 400.587 817.443 406C818.556 410.337 816.539 414.643 817.407 418.815C818.396 423.56 829.546 429.123 834 429.601C838.873 430.124 842.219 425.531 847 425.123C852.69 424.639 857.57 428.035 863 429C861.384 421.194 858.8 413.423 854 407C850.863 408.887 847.75 411.328 844 411.747C831.314 413.166 821.094 398.483 813 391z"
     id="path17" />
  <path
     style="fill:#000000; stroke:none;"
     d="M250 395L251 396L250 395M803 395L804 396L803 395z"
     id="path18" />
  <path
     style="fill:#ffffff; stroke:none;"
     d="M249 419C241.847 426.089 227.901 437.471 217 436.601C212.156 436.215 209.158 431.673 204 432.232C198.145 432.867 193.588 437.371 188.001 438.643C182.021 440.004 181.553 435.344 183 431C170.078 440.179 161.628 455.35 152.33 467.83C146.545 475.596 139.248 482.604 134.362 491C126.363 504.745 121.776 518.737 108.91 529.251C98.7988 537.514 86.9373 545.773 75 551.135C68.8465 553.899 62.1902 555.214 56 557.873C42.6043 563.627 31.4413 573.478 28 588C34.418 584.346 39.1752 578.586 46 575.259C50.527 573.053 55.1921 571.951 60 570.573C63.3786 569.604 66.808 568.481 69.8302 566.652C71.9411 565.374 74.1968 562.794 76.9097 563.172C83.0732 564.031 82.6033 576.51 82.9105 581C83.9395 596.041 74.6709 616.755 89 628C88.6979 620.964 87.461 614.092 88.1705 607C89.6052 592.661 96.9833 580.018 107.001 570.001C111.6 565.401 123.369 553.712 130.258 561.514C133.861 565.594 130.987 573.427 129.87 578C126.162 593.193 118.503 605.088 112 619C126.091 610.857 138.542 595.994 142.346 580C145.317 567.508 144.296 554.33 148.359 542C152.748 528.678 163.189 518.732 168.662 506C170.597 501.5 170.991 496.83 171.336 492C171.503 489.649 170.928 486.438 172.642 484.533C175.008 481.903 178.294 483.684 181 484.559C184.83 485.799 188.99 486.295 193 485.816C204.252 484.469 214.711 478.909 226 477.3C234.831 476.042 243.403 478.333 252 480C251.797 477.412 251.063 474.584 251.484 472.001C253.278 460.979 269.387 466.995 277 467C267.789 455.221 276.071 443.661 279 431C275.258 433.862 272.474 437.646 268.996 440.83C262.99 446.329 256.563 451.078 250 455.869C247.733 457.523 239.992 462.807 238.998 456.852C238.394 453.234 242.599 448.966 244.208 446C248.14 438.746 252.402 427.109 249 419M804 419C804 428.219 804.945 436.693 809.262 445C810.869 448.091 816.472 453.969 814.759 457.681C812.428 462.731 805.407 456.904 803 455.127C792.995 447.735 784.725 438.437 775 431C777.488 441.755 787.403 456.914 777 466C784.747 469.25 801.756 459.364 802.617 472.998C802.761 475.287 802.179 477.716 802 480C810.597 478.333 819.169 476.042 828 477.3C839.289 478.909 849.748 484.469 861 485.816C865.01 486.295 869.17 485.799 873 484.559C875.706 483.684 878.992 481.903 881.358 484.533C883.072 486.438 882.497 489.649 882.664 492C883.009 496.83 883.403 501.5 885.338 506C890.811 518.732 901.252 528.678 905.641 542C909.704 554.33 908.683 567.508 911.654 580C915.458 595.994 927.909 610.857 942 619C935.497 605.087 927.838 593.193 924.13 578C923.013 573.427 920.139 565.594 923.742 561.514C930.632 553.712 942.4 565.401 946.999 570.001C957.017 580.018 964.395 592.661 965.829 607C966.539 614.092 965.302 620.964 965 628C979.329 616.755 970.06 596.041 971.089 581C971.397 576.51 970.927 564.031 977.09 563.172C979.803 562.794 982.059 565.374 984.17 566.652C987.192 568.482 990.621 569.604 994 570.573C998.808 571.951 1003.47 573.053 1008 575.259C1014.82 578.586 1019.58 584.346 1026 588C1022.56 573.478 1011.4 563.626 998 557.873C991.81 555.214 985.153 553.899 979 551.135C967.063 545.773 955.201 537.514 945.089 529.251C932.224 518.737 927.637 504.745 919.638 491C914.752 482.604 907.456 475.596 901.67 467.83C892.372 455.35 883.922 440.179 871 431C871.256 431.77 871.923 433.224 871.988 434.144C872.252 437.89 869.503 439.44 865.999 438.643C860.739 437.446 856.387 433.439 851 432.394C845.042 431.239 841.645 436.716 836 436.602C824.131 436.361 813.055 425.352 804 419z"
     id="path19" />
  <path
     style="fill:#000000; stroke:none;"
     d="M359.155 425.762C355.31 426.873 352.735 431.156 349.91 433.703C346.941 436.38 343.336 437.587 340.229 439.919C338.547 441.181 337.561 442.871 337.558 445.005C337.54 455.566 350.218 457.179 358 458.05C360.297 458.307 363.459 459.327 365.681 458.357C368.605 457.081 367.586 453.366 366.985 451C365.181 443.903 366.109 437.036 364.772 430.019C364.221 427.128 362.339 424.841 359.155 425.762M691.43 426.072C687.024 428.779 689.291 438.674 688.826 443C688.405 446.918 685.013 452.89 686.644 456.681C687.746 459.245 690.788 458.68 693.001 458.419C698.768 457.738 706.04 457.762 710.956 454.297C712.223 453.404 713.457 452.272 714.297 450.956C720.631 441.031 710.055 439.081 704.089 433.703C701.292 431.181 696.111 423.196 691.43 426.072M432.133 437.176C429.492 438.292 429.081 441.51 429.034 444C428.914 450.401 431.287 456.646 431.826 463C432.063 465.785 430.909 469.199 431.773 471.851C432.51 474.112 434.795 474.894 436.961 474.199C447.122 470.941 443.85 451.927 440.601 445C439.282 442.187 436.253 435.434 432.133 437.176M619.205 437.176C616.962 438.099 615.549 441.012 614.443 443.001C611.015 449.164 609.24 458.076 610.901 465C611.826 468.86 614.484 475.954 619.849 474.288C623.136 473.267 622.337 469.595 622.169 467C621.644 458.881 625.549 451.078 624.938 443.001C624.72 440.13 622.958 435.631 619.205 437.176z"
     id="path20" />
  <path
     style="fill:#ffffff; stroke:none;"
     d="M357 437C353.322 440.377 349.781 443.414 345 445C347.786 450.31 353.438 450.761 359 451C358.65 446.566 358.706 441.065 357 437M696 437L695 451C700.562 450.761 706.214 450.31 709 445C704.021 443.349 700.326 439.858 696 437z"
     id="path21" />
  <path
     style="fill:#000000; stroke:none;"
     d="M389.608 454.068C386.838 456.105 389.457 460.047 390.862 462C395.349 468.237 400.302 473.957 403.601 481C405.021 484.031 406.193 487.662 405.262 491C403.821 496.16 399.075 500.185 400.588 505.996C402.253 512.391 410.317 515.508 415 519.44C422.534 525.766 428.239 533.762 433.5 542C435.218 544.69 438.069 554.582 442.698 551.914C445.146 550.503 444.782 547.378 444.741 545C444.646 539.533 445.185 534.414 443.985 529C441.785 519.08 432.569 514.351 427.613 506C424.529 500.801 424.883 494.551 422.732 489C420.046 482.067 414.987 476.44 410.05 471.015C405.554 466.074 401.208 460.004 396.391 455.514C394.779 454.011 391.684 452.541 389.608 454.068M661.024 453.631C656.381 454.661 654.002 460.667 650.946 463.83C644.119 470.895 636.326 477.94 632.124 487C629.303 493.082 629.815 500.223 626.387 506C622.246 512.977 614.197 517.432 611.144 525C608.426 531.739 609.26 538.95 609.215 545.999C609.199 548.518 609.534 552.364 612.95 552.364C615.835 552.364 616.637 549.069 617.618 546.995C620.317 541.294 624.325 536.003 628.13 531C632.152 525.714 636.708 521.067 642 517.04C645.629 514.279 650.531 512.208 652.681 507.96C656.723 499.977 647.104 493.969 648.696 486C650.881 475.064 660.923 468.676 664.992 459.005C666.339 455.805 664.737 452.807 661.024 453.631z"
     id="path22" />
  <path
     style="fill:#ffffff; stroke:none;"
     d="M288 457C286.814 458.186 286.472 458.584 286 460C287.548 458.738 287.808 458.806 288 457M765 457C766.103 458.457 766.543 458.897 768 460C766.896 458.543 766.457 458.104 765 457M285 461L286 462L285 461M768 461L769 462L768 461M282 466L283 467L282 466M771 466L772 467L771 466M412 485C412.835 488.635 412.893 491.509 411.355 495C410.121 497.801 406.924 501.542 408.241 504.79C409.823 508.694 416.837 511.774 420 514.439C426.7 520.084 433.003 527.168 437 535C438.424 530.983 436.406 527.17 433.775 524C429.095 518.358 423.044 513.94 420.105 507C416.966 499.586 418.06 491.049 412 485M641 485C636.498 492.918 636.984 502.315 632.387 510C627.003 519.001 616.987 523.78 616 535C622.792 527.439 627.924 519.269 636 512.808C638.797 510.57 645.361 507.755 646.006 503.896C646.571 500.516 643.36 496.984 642.214 494C641.067 491.015 641.487 488.044 641 485M494 495L495 496L494 495M559 495L560 496L559 495M489 516C488.058 527.531 484.239 539.221 497 546C499.634 536.397 491.428 525.947 491 516L489 516M563 516C562.572 525.947 554.366 536.397 557 546C569.761 539.221 565.942 527.531 565 516L563 516z"
     id="path23" />
  <path
     style="fill:#ffffff; stroke:none;"
     d="M243 629C247.49 627.149 253.032 627.462 251.332 634.001C249.563 640.801 242.031 645.515 242.293 653C242.626 662.514 255.27 669.011 251.382 679C247.793 688.222 238.238 694.328 231 700.439C221.8 708.206 213.049 720.223 214.174 733C214.968 742.007 218.217 752.08 222.511 760C225.872 766.2 230.665 772.356 233.031 779C235.284 785.326 234.66 795.685 229.606 800.581C222.846 807.131 209.516 802.016 201 803.094C191.89 804.247 185.996 811.748 176 810.829C157.585 809.137 142 799.245 124 796.084C116.158 794.707 107.36 793.952 100 797.684C95.2735 800.08 90.7051 804.091 87.1852 808.015C83.7551 811.838 81.6415 816.187 80 821C86.2695 816.205 90.022 809.819 98 807.364C100.601 806.564 105.657 805.884 105.658 810.059C105.659 812.855 102.725 815.768 101.306 818C97.5249 823.942 92.9846 829.124 91 836C97.9763 834.386 105.903 832.747 111.896 828.673C114.503 826.9 117.301 821.403 120.867 821.921C126.98 822.809 122.241 834.2 120.633 837C112.995 850.303 97.7527 854.736 97 872C100.772 869.83 104.021 866.583 108 864.818C116.427 861.078 131.377 862.121 135.258 872.015C138.068 879.18 136 890.359 136 898C144.5 896.056 151.039 889.992 159 886.826C170.55 882.232 183.257 881.374 195 877.532C206.233 873.857 216.632 867.278 228 863.774C234.015 861.92 240.753 861.623 247 861.184C259.061 860.337 266.19 869.281 276 874.19C281.409 876.896 287.436 878.606 292.786 874.786C298.622 870.619 297.752 862.192 296.829 856C294.349 839.354 282.006 826.49 282 809C281.998 803.331 281.699 796.37 283.893 791.023C286.299 785.159 290.857 787.673 293 792C298.269 779.442 287.869 763.502 283.834 752C281.292 744.754 279.836 737.596 289 735C289 719.693 285.254 698.886 295.39 686.001C297.974 682.717 301.211 679.733 305 677.919C307.417 676.762 311.237 676.488 312.973 674.272C315.954 670.469 314.111 663.432 316.009 659.023C316.819 657.143 319.056 654.009 321.397 655.89C324.098 658.061 321.508 663.291 321.184 666C320.184 674.367 321.455 682.801 323 691C336.92 690.665 341.832 677.205 348.305 667C349.642 664.891 353.589 654.988 357.372 657.971C360.084 660.109 356.934 665.634 356.05 668C352.893 676.449 345.335 685.72 348 695C357.495 690.466 359.425 677.042 368.001 670.533C371.375 667.972 379.952 665.549 378.508 673.015C377.739 676.987 373.963 679.189 371.637 682.17C368.544 686.134 367.401 691.101 367 696C376.711 691.728 380.604 683.131 384.769 674C394.033 653.691 399.828 628.135 390 607C369.898 610.732 352.397 600.013 337 588.112C330.253 582.897 324.287 575.888 316 573.105C306.972 570.073 296.57 573.796 288 576.786C274.898 581.356 265.876 587.084 256.001 597C252.146 600.87 247.617 604.887 245.479 610.039C243.201 615.53 243.254 623.09 243 629M664 607C654.172 628.135 659.967 653.691 669.231 674C673.396 683.131 677.289 691.728 687 696C686.599 691.101 685.456 686.134 682.363 682.17C680.037 679.189 676.261 676.987 675.492 673.015C674.048 665.549 682.625 667.972 685.999 670.533C694.575 677.042 696.505 690.466 706 695C708.665 685.72 701.107 676.449 697.95 668C697.066 665.634 693.916 660.109 696.628 657.971C700.411 654.988 704.358 664.891 705.695 667C712.168 677.205 717.08 690.665 731 691C732.545 682.801 733.816 674.367 732.816 666C732.492 663.291 729.902 658.061 732.603 655.89C734.944 654.009 737.181 657.143 737.991 659.023C739.889 663.432 738.047 670.469 741.027 674.272C742.763 676.488 746.583 676.762 749 677.919C752.789 679.733 756.026 682.717 758.61 686.001C768.746 698.886 765 719.693 765 735C769.224 736.197 772.865 739.125 772.562 744C772.026 752.647 765.918 761.976 762.915 770C760.237 777.156 760 784.467 760 792C763.946 787.347 768.882 785.276 770.671 793.001C772.238 799.771 772.274 807.091 771.961 814C771.263 829.376 758.923 841.954 757.054 857C756.418 862.122 755.703 868.206 759.008 872.66C762.904 877.909 769.537 877.682 775 875.536C785.659 871.349 792.712 861.493 805 861.13C824.584 860.55 840.332 870.678 858 877.189C869.909 881.578 883.13 882.105 895 886.826C902.961 889.992 909.5 896.056 918 898C918 890.359 915.932 879.18 918.742 872.015C922.624 862.121 937.573 861.078 946 864.818C949.979 866.583 953.228 869.83 957 872C956.248 854.736 941.005 850.303 933.367 837C931.759 834.2 927.02 822.809 933.133 821.921C936.7 821.403 939.497 826.9 942.104 828.673C948.097 832.747 956.024 834.386 963 836C961.015 829.124 956.475 823.942 952.694 818C951.275 815.768 948.341 812.855 948.342 810.059C948.343 805.884 953.399 806.564 956 807.364C963.978 809.819 967.73 816.205 974 821C972.359 816.187 970.245 811.838 966.815 808.015C963.295 804.091 958.727 800.08 954 797.684C946.64 793.952 937.842 794.707 930 796.084C912 799.245 896.415 809.137 878 810.829C868.004 811.748 862.11 804.247 853 803.094C844.484 802.016 831.154 807.131 824.394 800.581C819.34 795.685 818.716 785.326 820.969 779C823.335 772.356 828.128 766.2 831.489 760C835.783 752.081 839.032 742.007 839.826 733C840.951 720.223 832.2 708.206 823 700.439C815.762 694.328 806.207 688.222 802.618 679C798.73 669.011 811.374 662.514 811.707 653C811.969 645.515 804.437 640.801 802.668 634.001C800.968 627.462 806.51 627.149 811 629C810.746 623.09 810.799 615.53 808.521 610.039C806.383 604.887 801.853 600.87 797.999 597C788.124 587.084 779.102 581.356 766 576.786C757.43 573.796 747.028 570.073 738 573.105C729.713 575.888 723.747 582.897 717 588.112C701.603 600.013 684.102 610.732 664 607z"
     id="path25" />
  <path
     style="fill:#000000; stroke:none;"
     d="M309 606.518C289.664 610.643 286.882 629.546 274.896 641.956C271.157 645.827 261.503 646.416 260.542 652.015C259.019 660.892 273.647 660.639 279 659.671C293.674 657.017 290.274 637.73 301.015 630.843C312.069 623.756 328.141 628.283 340 630.789C344.873 631.819 354.414 635.181 358.254 630.566C363.152 624.679 354.428 618.234 349.999 615.792C338.009 609.181 322.956 603.54 309 606.518M731 606.425C720.071 607.914 707.812 611.722 699.185 618.927C695.02 622.406 691.464 630.538 699.044 632.552C704.321 633.954 711.814 631.289 717 630.12C727.368 627.782 739.887 625.27 750 629.388C764.646 635.352 759.499 659.059 778 659.96C780.62 660.087 783.411 660.14 785.999 659.671C790.426 658.867 795.642 655.252 792.806 650.148C791.103 647.085 787.848 647.406 785 646.262C782.299 645.178 780.113 643.138 778.21 640.985C771.872 633.814 768.574 624.419 762.482 617.039C754.636 607.534 742.756 604.824 731 606.425z"
     id="path26" />
  <path
     style="fill:#ffffff; stroke:none;"
     d="M295 625C300.033 623.123 305.622 620.719 311 620.199C324.273 618.915 339.046 623.559 352 626C338.713 612.882 305.596 604.747 295 625M702 625C708.181 626.479 715.773 623.026 722 622.131C735.606 620.175 746.017 620.159 759 625C747.3 602.636 717.794 615.94 702 625z"
     id="path27" />
  <path
     style="fill:#000000; stroke:none;"
     d="M452 661C446.801 656.566 437.976 652.664 437.303 645C436.7 638.123 439.391 629.788 440.535 623C440.926 620.683 441.495 616.798 438.726 615.662C433.125 613.364 432.695 626.94 432.282 630C431.124 638.601 427.905 648.211 433.803 655.826C436.002 658.665 439.111 660.652 442 662.709C444.893 664.769 448.208 667.813 452 667.718C455.727 667.626 458.555 664.452 460.985 661.995C468.072 654.828 470.182 646.706 471.572 637C472.016 633.894 473.816 622.746 468.09 623.466C464.279 623.945 465.057 629.327 464.985 632C464.832 637.764 463.911 645.013 460.853 650C458.387 654.021 454.708 657.152 452 661M603 661C595.467 653.462 591.099 647.651 589.439 637C588.932 633.745 590.487 625.172 586.701 623.662C580.838 621.323 581.895 632.163 582.17 635C583.164 645.27 585.603 654.499 593.015 661.995C595.685 664.695 598.822 668.157 603 667.663C606.399 667.261 609.321 664.617 612 662.709C614.586 660.867 617.345 659.094 619.467 656.7C626.011 649.316 622.927 640.643 621.95 632C621.587 628.794 621.083 613.278 615.274 615.662C612.179 616.932 613.175 621.52 613.665 624C614.916 630.325 617.753 639.635 616.566 645.999C615.238 653.124 607.21 655.903 603 661M369.109 619.742C364.263 621.826 364.386 627.891 368.228 630.867C372.511 634.183 380.895 635.32 385.956 633.258C390.693 631.327 391.897 625.97 387.851 622.653C383.691 619.242 374.135 617.581 369.109 619.742M675 619.44C672.985 619.764 670.883 620.173 669.005 620.995C663.81 623.268 661.129 629.453 667.109 632.821C670.325 634.632 675.483 634.3 679 633.671C684.599 632.668 693.91 625.157 685.772 620.179C682.781 618.35 678.284 618.911 675 619.44z"
     id="path28" />
  <path
     style="fill:#ffffff; stroke:none;"
     d="M401 620L402 621L401 620M652 620L653 621L652 620M287 637C283.155 642.805 279.6 647.731 274 652C281.606 654.933 287.534 643.412 287 637M766 637C768.561 644.568 770.989 652.505 780 653C775.505 647.803 770.999 641.614 766 637z"
     id="path29" />
  <path
     style="fill:#000000; stroke:none;"
     d="M436.598 672.047C434.655 673.485 434.823 676.878 434.32 679C433.481 682.542 431.959 685.894 430.073 689C425.685 696.229 419.268 701.829 416.387 710C413.846 717.207 415.17 725.488 414.985 733C414.802 740.462 412.414 747.433 413.171 755C414.077 764.062 418.068 772.254 420.232 781C423.478 794.117 426.414 806.401 427.019 819.995C427.137 822.637 428.713 827.703 432.401 824.953C435.422 822.701 434.005 815.159 433.575 812C431.932 799.933 429.543 788.758 426.478 777C424.32 768.725 420.547 760.801 419.924 752.17C419.458 745.732 421.828 739.425 421.985 733C422.14 726.674 420.734 719.019 422.994 713C426.517 703.617 435.193 697.247 439.12 688C440.703 684.275 442.262 678.224 441.512 674.148C441.094 671.872 438.606 670.561 436.598 672.047M613.613 672.047C611.126 673.979 612.835 680.386 613.325 683C615.5 694.618 625.977 701.625 630.586 712C633.363 718.248 631.851 726.323 632.015 733C632.188 740.085 634.832 746.974 633.88 754.089C631.873 769.08 624.317 782.903 622.282 798C621.312 805.201 619.71 812.713 620.019 819.995C620.129 822.569 621.046 826.796 624.701 825.338C627.429 824.25 626.973 820.341 627 818C627.085 810.735 628.317 803.151 629.616 796C632.089 782.38 638.926 769.733 640.711 756C641.741 748.072 639.207 740.815 639.015 733C638.811 724.701 640.232 715.815 636.826 708C633.539 700.459 627.35 695.052 623.338 688C620.749 683.45 620.394 678.913 618.721 674.148C617.993 672.074 615.711 670.418 613.613 672.047z"
     id="path30" />
  <path
     style="fill:#ffffff; stroke:none;"
     d="M388 682L389 683L388 682M665 682L666 683L665 682M387.333 685.667C387.278 685.722 387.222 686.778 387.667 686.333C387.722 686.278 387.778 685.222 387.333 685.667M666.333 685.667C666.278 685.722 666.222 686.778 666.667 686.333C666.722 686.278 666.778 685.222 666.333 685.667z"
     id="path31" />
  <path
     style="fill:#000000; stroke:none;"
     d="M526 836L528 836C535.318 826.395 545.715 818.921 551.33 808C565.748 779.962 551.951 745.267 538 720C535.128 714.799 531.885 708.994 531.185 703C530.838 700.024 531.82 696.97 531.397 694.059C531.059 691.736 529.37 690.296 527 690.296C524.63 690.296 522.941 691.736 522.603 694.059C522.18 696.97 523.162 700.024 522.815 703C522.115 708.994 518.872 714.799 516 720C502.049 745.267 488.252 779.962 502.67 808C508.268 818.887 518.584 826.499 526 836M464.228 694.086C462.502 694.989 461.618 696.95 461.951 698.835C462.976 704.623 466.229 708.532 465.98 714.996C465.842 718.582 462.034 721.789 462.465 724.956C462.828 727.623 465.837 728.038 467.946 727.238C471.156 726.022 471.846 723.091 471.981 719.999C472.26 713.576 472.713 706.261 471.096 700.001C470.326 697.016 468.256 691.98 464.228 694.086M586.275 694.086C583.905 695.34 583.192 698.618 582.67 701C581.342 707.061 580.703 716.918 582.318 722.956C583.118 725.949 586.45 728.667 589.681 727.353C591.716 726.526 591.866 724.335 591.012 722.589C588.135 716.715 586.933 711.735 589.133 705.039C589.898 702.71 592.19 700.45 592.137 697.93C592.076 695.043 589.004 692.643 586.275 694.086M260.317 713.047C257.567 714.794 258.597 718.349 258.831 721C259.349 726.862 259.754 733.132 259.87 739C260.015 746.288 256.595 753.655 256.09 761C255.055 776.021 258.218 789.753 262.659 804C264.821 810.937 266.267 818.384 269.353 824.995C270.372 827.18 272.625 831.318 275.694 829.824C277.506 828.941 277.659 826.733 277.413 824.995C276.669 819.743 274.138 814.226 272.87 809C270.024 797.263 268.545 784.036 270.439 772C272.37 759.733 277.572 749.713 274.996 737C273.504 729.637 270.401 723.645 267.015 717.019C265.71 714.465 263.783 710.845 260.317 713.047M789.559 713.047C787.734 714.263 786.946 717.152 785.961 719.001C782.65 725.218 780.136 731.045 778.805 738C776.462 750.243 781.703 760.194 783.561 772C785.524 784.474 783.768 797.849 780.884 810C779.708 814.958 776.574 820.969 776.477 825.981C776.43 828.387 778.094 830.987 780.806 829.824C783.023 828.874 784.215 826.07 785.07 823.999C787.329 818.528 788.806 812.679 790.427 807C794.773 791.776 798.662 778 797.961 762C797.538 752.369 793.578 743.662 794.714 734C795.323 728.822 796.38 721.151 795.512 716.059C795.049 713.341 792.118 711.341 789.559 713.047z"
     id="path32" />
  <path
     style="fill:#ffffff; stroke:none;"
     d="M526 715C515.258 742.648 495.999 768.964 507.015 800C509.589 807.25 514.635 813.594 520.015 818.995C521.798 820.786 524.207 823.793 527 823.793C529.793 823.793 532.202 820.786 533.985 818.995C539.365 813.594 544.411 807.25 546.985 800C558 768.964 538.742 742.648 528 715L526 715M266 732C267.718 745.597 260.606 758.502 263 772C264.532 768.589 264.929 764.64 265.884 761C268.336 751.662 271.414 740.979 266 732M787 732C785.904 737.649 784.552 743.198 785.174 749C786.014 756.846 789.653 764.034 790 772C794.678 764.139 788.898 751.339 787.465 743C786.828 739.297 788.078 735.506 787 732M94 816C91.5828 818.545 89.6098 820.884 88 824C90.5918 821.749 93.2218 819.375 94 816M959 816L965 824C964.765 820.253 961.921 818.107 959 816M112 836L113 837L112 836M941 836L942 837L941 836M463 867C458.274 871.723 454.234 877.326 447 876C446.807 880.436 445.59 884.62 445 889C448.409 887.304 452.958 882.603 456.961 883.161C460.59 883.667 463.612 888.472 465.845 891C470.687 896.483 475.526 901.467 482 905C481.881 899.932 480.77 895.885 476.895 892.329C473.994 889.666 469.906 888.19 467.603 884.896C464.192 880.016 465.604 872.416 463 867M590 867C589.597 872.068 589.341 880.684 586.397 884.896C584.094 888.19 580.006 889.666 577.105 892.329C573.231 895.885 572.119 899.933 572 905C578.474 901.467 583.313 896.482 588.155 891C590.388 888.472 593.411 883.667 597.039 883.161C601.042 882.603 605.591 887.304 609 889C608.41 884.62 607.193 880.436 607 876C599.419 877.39 595.652 870.981 590 867M523 927C524.785 931.89 525.777 936.796 526 942L528 942C528.223 936.796 529.215 931.89 531 927L523 927M477 935L478 936L477 935M576 935L577 936L576 935M479 936C479.936 937.949 480.392 938.55 482 940C481.064 938.051 480.608 937.45 479 936M574 936C573.043 937.516 572.613 938.339 572 940C573.63 938.485 574.163 938.145 574 936M368 1039L388 1045C384.584 1038.06 374.764 1034.95 368 1039M666 1045L686 1039C679.236 1034.95 669.416 1038.06 666 1045M355 1067C359.895 1069.95 366.52 1070.95 372 1072.66C385.481 1076.87 397.715 1081.09 412 1080C408.504 1078.43 404.567 1078.06 401 1076.49C390.154 1071.71 380.282 1065.45 368 1065.04C363.53 1064.89 359.333 1066.11 355 1067M642 1079C647.266 1081.53 653.411 1080.32 659 1079.41C672.614 1077.2 685.404 1070.65 699 1068C679.664 1056.19 660.577 1078.15 642 1079z"
     id="path33" />
</svg>
