<?xml version="1.0" encoding="UTF-8" standalone="no"?>
<!-- Created with Inkscape (http://www.inkscape.org/) -->

<svg
   version="1.1"
   id="svg1"
   width="325.42914"
   height="357.28018"
   viewBox="0 0 325.42914 357.28018"
   sodipodi:docname="vileblood crest - simplest.png"
   xmlns:inkscape="http://www.inkscape.org/namespaces/inkscape"
   xmlns:sodipodi="http://sodipodi.sourceforge.net/DTD/sodipodi-0.dtd"
   xmlns="http://www.w3.org/2000/svg"
   xmlns:svg="http://www.w3.org/2000/svg">
  <defs
     id="defs1" />
  <sodipodi:namedview
     id="namedview1"
     pagecolor="#505050"
     bordercolor="#eeeeee"
     borderopacity="1"
     inkscape:showpageshadow="0"
     inkscape:pageopacity="0"
     inkscape:pagecheckerboard="0"
     inkscape:deskcolor="#505050" />
  <g
     inkscape:groupmode="layer"
     inkscape:label="Image"
     id="g1"
     transform="translate(-5.9254456,-2.7198024)">
    <path
       style="fill:#000000"
       d="m 133.09209,359.27001 c -0.63135,-0.39051 -2.01337,-1.46122 -3.07116,-2.37936 -1.05778,-0.91815 -2.33016,-1.82406 -2.8275,-2.01315 -1.28773,-0.4896 -7.28489,0.11562 -9.39761,0.94838 -3.73688,1.47294 -5.5909,0.58447 -5.98131,-2.86635 -0.15323,-1.35437 -0.45146,-2.25232 -0.93458,-2.81398 l -0.70953,-0.82488 -1.7252,0.85012 c -1.05545,0.52009 -1.93682,1.22651 -2.27031,1.81966 -1.68281,2.99305 -3.81885,-1.58413 -2.20419,-4.7232 0.69537,-1.35187 1.98669,-2.63828 3.3893,-3.37642 0.82773,-0.4356 0.86552,-0.50697 0.27424,-0.51802 -0.37717,-0.007 -0.76682,-0.22405 -0.8659,-0.48223 -0.23716,-0.61805 0.57877,-3.2837 1.36774,-4.46839 0.47026,-0.70612 0.5451,-1.08628 0.30294,-1.53877 -0.45693,-0.85379 -0.062,-2.3248 1.26795,-4.72342 2.99708,-5.40514 7.8224,-8.37095 12.87409,-7.91288 2.4587,0.22295 3.58582,0.89152 5.00667,2.96982 2.28852,3.34742 4.97411,6.38432 6.66137,7.53278 2.97975,2.0282 7.80394,2.5813 12.70568,1.45672 3.25725,-0.74729 5.26613,-2.0834 6.31455,-4.19983 0.7564,-1.52695 0.79178,-1.8739 0.8484,-8.32 0.0831,-9.46103 -0.40256,-11.6993 -3.34659,-15.42376 -2.10491,-2.66292 -3.25114,-4.94777 -3.25114,-6.48073 0,-1.1184 0.19118,-1.5573 1.0543,-2.42041 l 1.05429,-1.05429 -1.80146,-0.13031 c -3.5561,-0.25723 -7.21729,-2.78753 -7.9812,-5.51593 -0.59937,-2.14076 0.0902,-5.00158 1.66687,-6.91548 0.61495,-0.74648 4.13422,-3.1857 4.59627,-3.1857 0.22269,0 1.60271,1.30617 3.06673,2.90261 3.63744,3.96645 5.3842,5.02138 5.3842,3.25167 0,-1.28248 -1.34024,-3.06022 -3.23054,-4.28509 -1.70212,-1.10294 -2.20946,-1.89871 -2.20946,-3.46561 0,-0.50312 -0.1634,-1.62265 -0.36311,-2.48786 l -0.36312,-1.5731 -1.65499,1.70869 c -1.38891,1.43397 -1.83785,1.70869 -2.79231,1.70869 -1.12994,0 -1.13858,0.0106 -1.33163,1.64069 -0.3619,3.05567 -2.04972,5.11421 -4.58283,5.58943 -2.35984,0.4427 -7.63608,-3.18779 -9.20319,-6.33255 -1.08798,-2.18331 -1.08256,-3.57296 0.0179,-4.59285 0.4657,-0.4316 1.1857,-0.78472 1.6,-0.78472 0.50573,0 0.75184,-0.18403 0.7489,-0.56 -0.009,-1.20153 -0.40627,-1.96766 -1.06825,-2.06202 -0.44142,-0.0629 -0.93953,-0.59776 -1.39206,-1.49471 l -0.70469,-1.39673 -0.20505,0.91673 c -0.60053,2.68469 -0.83118,2.99673 -2.21516,2.99673 -1.57739,0 -2.8943,-1.90485 -3.25936,-4.71449 -0.20476,-1.57592 -0.98702,-3.28551 -1.50336,-3.28551 -0.47017,0 -1.89885,1.63832 -2.7677,3.17384 -0.44,0.77761 -1.17004,1.68635 -1.62232,2.01942 -0.70917,0.52225 -0.94364,0.5503 -1.704,0.20386 -0.48492,-0.22095 -1.08687,-0.79853 -1.33768,-1.28353 -0.91153,-1.76272 -0.35379,-6.32364 1.22706,-10.03425 1.24316,-2.91797 1.83694,-6.37333 1.83694,-10.68961 0,-4.33821 0.78715,-9.0965 2.0959,-12.66973 0.45124,-1.232 1.0898,-3.32 1.41902,-4.64 0.32922,-1.32 1.19855,-4.056 1.93184,-6.08 0.73328,-2.024 1.62145,-4.544 1.97369,-5.6 0.35224,-1.056 1.04238,-3 1.53364,-4.32 1.89588,-5.09412 1.69209,-5.17501 -0.44108,-0.17509 -2.30635,5.40585 -5.13626,8.49509 -7.78194,8.49509 -1.37883,0 -1.80094,-0.664 -1.61989,-2.54819 l 0.15229,-1.58489 -0.90634,1.42914 c -1.03578,1.63326 -2.66895,2.57584 -3.91931,2.26202 -0.97465,-0.24462 -1.87782,-1.48588 -1.87782,-2.58075 v -0.77291 l -1.5959,1.09779 c -1.26388,0.86939 -1.90972,1.09779 -3.10422,1.09779 -1.93237,0 -2.70241,-0.78682 -3.21045,-3.28038 -0.36133,-1.77348 -0.40612,-1.83292 -1.232194,-1.63509 -1.431975,0.34293 -2.473165,0.98689 -3.515995,2.17461 -1.66008,1.89073 -1.981238,3.64286 -1.981238,10.80898 0,6.79849 -0.08564,7.14234 -1.579743,6.34272 -1.054647,-0.56443 -1.101023,0.20795 -0.153374,2.55436 0.460873,1.14114 1.129595,2.7948 1.486048,3.6748 1.366242,3.37293 1.937637,6.01731 1.914345,8.85946 -0.03303,4.03044 -0.916067,5.12204 -2.650195,3.27614 l -0.77448,-0.82439 -0.209403,0.74439 c -0.115172,0.40942 -0.223757,1.85885 -0.241301,3.22097 -0.03332,2.58734 -0.03436,2.58366 2.363665,8.40343 0.652684,1.584 1.481639,3.6 1.842122,4.48 0.989747,2.41614 0.962956,6.27912 -0.05597,8.06975 -0.912346,1.60334 -3.038352,2.78107 -4.989035,2.76375 -1.559696,-0.0138 -5.008775,-1.59625 -6.871655,-3.15264 -1.999591,-1.67061 -3.898537,-2.1195 -7.517652,-1.7771 -1.837858,0.17388 -3.586639,0.55024 -4.536978,0.97641 -0.85052,0.38141 -2.5544,1.05926 -3.7864,1.50633 -1.232,0.44707 -2.924958,1.15791 -3.762129,1.57965 -0.837172,0.42173 -3.933172,1.3418 -6.880001,2.04459 -6.049301,1.4427 -6.763714,1.68275 -8.557871,2.87555 -1.983439,1.31864 -5.022317,2.65459 -6.045295,2.65763 -1.57102,0.005 -1.794705,-0.69452 -1.794705,-5.60979 v -4.42354 l -1.04,-0.65559 c -1.50173,-0.94666 -5.019819,-0.72082 -6.259337,0.40182 -1.604362,1.45308 -3.215472,2.50318 -3.84049,2.50318 -0.918166,0 -1.46285,-1.59891 -1.249356,-3.66747 0.300523,-2.91179 1.227531,-4.4738 4.553337,-7.67238 1.669715,-1.60584 3.035846,-3.02624 3.035846,-3.15644 0,-0.13019 -0.54,0.0337 -1.2,0.36414 -0.66,0.33047 -2.220825,0.90651 -3.4685,1.28007 -2.101688,0.62927 -2.311157,0.77381 -2.8486,1.96565 -1.034197,2.29344 -2.38558,1.34587 -2.50088,-1.75357 -0.0554,-1.48911 1.379968,-4.75621 2.938828,-6.6892 1.42561,-1.76777 0.892673,-1.91769 -0.671423,-0.18889 -0.71559,0.79095 -1.724151,1.90609 -2.241247,2.47809 -0.621758,0.68777 -1.234825,1.04 -1.810176,1.04 -1.865369,0 -2.096633,-1.39194 -0.783644,-4.71663 0.70154,-1.77641 1.285221,-2.57871 3.263171,-4.48541 3.0651,-2.95467 4.43719,-3.62605 7.818751,-3.82579 3.140353,-0.18549 8.376293,0.77604 11.10372,2.03909 4.280859,1.98243 9.691623,3.28291 11.919741,2.86491 0.597995,-0.11219 1.771865,-0.63813 2.608601,-1.16878 2.192991,-1.39075 4.111906,-1.72197 7.423232,-1.28132 1.502191,0.19991 2.997584,0.27893 3.323095,0.17562 1.463141,-0.46438 1.724972,-4.35072 0.442075,-6.56169 -4.257003,-7.3366 -5.342794,-10.31421 -5.376109,-14.7431 -0.01954,-2.598 0.05056,-2.88682 1.325249,-5.46023 1.380396,-2.78681 2.2282,-3.73053 6.79412,-7.5628 2.001286,-1.67972 3.286964,-3.25252 3.685687,-4.50878 0.237336,-0.74778 -0.05362,-1.40856 -1.675821,-3.80589 -1.596277,-2.35901 -1.741374,-4.42718 -0.463364,-6.6046 l 0.91879,-1.5654 -0.781545,-0.8346 c -0.760624,-0.81226 -0.775981,-0.92814 -0.57368,-4.32872 0.137054,-2.30382 0.406899,-3.93899 0.792124,-4.8 0.759999,-1.69868 5.663806,-6.8782 8.16304,-8.62201 2.366146,-1.65095 3.417732,-2.10192 8.293353,-3.55654 6.586552,-1.96508 8.597406,-1.56338 13.821416,2.76102 6.98442,5.78166 11.65361,8.01466 15.69835,7.50763 3.335,-0.41806 3.12298,-0.47733 3.87797,1.08402 1.69728,3.51001 2.15464,8.46679 1.22806,13.30956 -0.62526,3.26795 -0.37749,3.43389 0.35269,0.23621 0.73387,-3.21386 0.72877,-8.9286 -0.011,-12.35989 -0.61102,-2.83391 -2.30364,-7.46836 -3.76399,-10.30588 -1.50827,-2.93064 -3.91003,-5.74277 -6.61511,-7.74537 -6.68883,-4.95182 -8.66548,-6.49271 -10.74574,-8.37679 -6.63413,-6.0085 -9.468652,-10.18745 -10.921304,-16.10135 -0.685668,-2.79143 -1.095302,-3.75152 -1.750175,-4.102 -0.613741,-0.32846 -0.817102,-0.14943 -1.600147,1.40871 -0.852573,1.69649 -1.536462,1.90623 -5.520764,1.69315 -1.973842,-0.10557 -3.876803,-0.23343 -4.228803,-0.28415 -0.474582,-0.0684 -0.622099,0.0732 -0.570743,0.5478 0.251534,2.32441 0.156919,3.43097 -0.335461,3.92335 -0.494916,0.49491 -0.672286,0.49359 -2.597577,-0.0194 -4.708334,-1.25459 -6.970497,-1.09597 -13.586306,0.95265 -3.226723,0.99917 -3.968923,1.11711 -6.398968,1.01685 l -2.748881,-0.11342 -0.222917,2.01167 c -0.274759,2.47952 -1.221456,4.59227 -3.705905,8.2705 -3.417089,5.059 -3.980271,6.65882 -4.716416,13.39783 -0.862708,7.89762 -2.485045,11.18846 -7.963187,16.15297 -4.070056,3.68845 -7.571704,5.32221 -7.811003,3.64437 -0.0581,-0.40733 0.857173,-2.27869 2.269384,-4.64 2.69536,-4.5068 3.742908,-6.94734 4.935929,-11.49954 0.577733,-2.20444 0.735514,-3.30234 0.507375,-3.53048 -0.95799,-0.95799 -5.261427,2.6778 -7.438328,6.28432 -2.40326,3.98154 -2.99823,7.73209 -2.117346,13.34726 0.296714,1.89139 0.450177,3.58339 0.341029,3.76 -0.453214,0.73331 -1.578653,0.21202 -3.37711,-1.56424 -1.050303,-1.03735 -2.210432,-2.56702 -2.579296,-3.40089 -0.866026,-1.9578 -1.112422,-5.59151 -0.626667,-9.24173 0.219552,-1.64983 0.287554,-3.88491 0.161993,-5.32432 l -0.216405,-2.48082 -1.077321,0.63563 c -0.592527,0.3496 -2.267246,0.9639 -3.721598,1.3651 -1.454352,0.4012 -3.294994,1.03633 -4.090316,1.41139 -1.873766,0.88364 -4.506348,3.19898 -6.1183286,5.38104 -1.0579542,1.4321 -1.398042,1.69369 -1.9767137,1.52047 -1.3241788,-0.39638 -1.612346,-0.9122 -1.0842299,-1.94075 C 6.4344361,190.3339 6.822833,189.056 7.0377932,188 c 0.6258614,-3.07457 1.7190412,-5.01088 4.0928828,-7.24959 2.449585,-2.31014 5.537174,-4.0455 9.029325,-5.07488 3.197144,-0.94241 4.180356,-1.46012 9.44,-4.97063 5.307956,-3.54275 7.957294,-6.36878 9.481256,-10.1136 0.505309,-1.24169 0.918744,-2.38598 0.918744,-2.54286 0,-0.36207 3.458938,-4.9689 5.622538,-7.48844 0.906815,-1.056 2.339655,-3 3.184088,-4.32 1.431608,-2.23786 2.109188,-3.06399 5.925753,-7.22491 0.798808,-0.87088 2.087294,-2.44555 2.863303,-3.49926 3.643682,-4.9476 4.915416,-6.55583 5.184125,-6.55583 0.160099,0 0.467598,-0.396 0.683332,-0.88 0.660968,-1.48289 2.480309,-4.21899 3.043803,-4.57756 0.408958,-0.26024 0.261419,-0.29575 -0.633733,-0.15255 -2.87604,0.46008 -4.446719,-2.26161 -2.555358,-4.42796 0.487567,-0.55845 0.474463,-0.62992 -0.19785,-1.07903 -0.49082,-0.32787 -0.719933,-0.79958 -0.71979,-1.48193 1.97e-4,-0.94341 -0.06881,-1.00097 -1.2,-1.00097 h -1.20021 l -0.08689,-3.04 c -0.07165,-2.50686 -0.190906,-3.12418 -0.679995,-3.52 -1.139407,-0.92213 -1.683379,-2.12664 -1.471197,-3.25767 0.165775,-0.88366 0.05742,-1.20534 -0.620536,-1.84224 -0.969008,-0.91034 -1.129821,-2.95733 -0.322842,-4.10945 0.60117,-0.85829 0.387143,-1.278234 -0.934727,-1.834039 -1.157019,-0.48649 -2.424355,-0.09555 -4.280964,1.32055 -1.792739,1.367389 -1.919473,0.979129 -1.943561,-5.954248 -0.0217,-6.246833 -0.0485,-6.4321 -1.693366,-11.705462 -0.333256,-1.068407 -0.605921,-2.544407 -0.605921,-3.28 0,-1.119531 -0.103216,-1.337441 -0.633496,-1.337441 -0.41518,0 -0.854906,-0.433999 -1.275968,-1.259348 l -0.642471,-1.259348 0.647069,-2.094967 c 0.61028,-1.975861 0.616571,-2.141513 0.110649,-2.913647 C 44.88651,68.235985 44.145601,67.84 42.885147,67.84 c -1.311374,0 -2.605119,-0.69482 -3.686355,-1.979795 -0.825564,-0.981127 -0.865526,-1.171009 -0.675883,-3.211494 0.122855,-1.32187 0.08075,-2.168711 -0.107828,-2.168711 -0.757768,0 -1.058637,-2.453938 -0.687109,-5.604176 0.344591,-2.921838 0.327078,-3.185258 -0.280203,-4.214522 -0.667058,-1.130579 -0.896544,-3.749779 -0.357721,-4.08279 0.159525,-0.09859 0.513231,-0.834271 0.786013,-1.634841 0.618723,-1.815854 0.374162,-2.544392 -1.585966,-4.724525 -1.117629,-1.243073 -1.401839,-1.769972 -1.228818,-2.278115 0.632145,-1.856546 0.51032,-3.886121 -0.347771,-5.793759 -1.432086,-3.183699 -1.506469,-3.651262 -0.797309,-5.011814 0.690761,-1.325255 0.659681,-1.502391 -0.812443,-4.630492 -0.733398,-1.55839 -1.743753,-4.889638 -1.743753,-5.749341 0,-0.727474 1.001346,-1.395625 2.091598,-1.395625 1.172812,0 1.400088,-0.259867 2.162398,-2.47249 0.554153,-1.608441 3.174449,-4.9901644 4.244273,-5.4776088 0.561817,-0.2559808 1.62075,-0.277966 3.58933,-0.074521 1.793323,0.1853333 3.307611,0.1730821 4.232401,-0.034242 5.79379,-1.29888 7.680001,-0.2842484 7.680001,4.1312298 0,4.191931 -1.479427,7.020526 -4.124393,7.885651 -2.32043,0.758974 -3.764967,0.651117 -5.920703,-0.442074 -2.630098,-1.333743 -2.956794,-1.27288 -3.8865,0.724054 -1.646134,3.535761 -0.906198,6.801986 2.827347,12.480475 1.762163,2.68014 7.142895,8.381261 9.286568,9.839525 1.349441,0.917976 2.457681,3.00381 2.457681,4.625636 0,0.611936 -0.571718,2.586898 -1.270485,4.388805 -1.181609,3.047009 -1.234103,3.316395 -0.750404,3.850876 0.702535,0.776292 1.850611,0.723473 4.808698,-0.221232 1.370705,-0.437753 3.081156,-0.797753 3.801003,-0.8 1.963758,-0.0061 5.856613,1.089308 8.371183,2.355625 2.114001,1.064594 6.414934,4.225089 7.425643,5.456656 0.485978,0.592172 0.511933,2.293655 0.04397,2.882362 -0.877635,1.104079 -0.695561,1.711115 0.99937,3.331899 l 1.691023,1.617049 0.16,-1.503838 c 0.149567,-1.405772 0.224479,-1.510128 1.148775,-1.600292 0.566297,-0.05524 3.027399,0.584178 5.76,1.496508 6.981827,2.331013 8.841917,2.642616 16.152162,2.705817 6.1642,0.05329 6.27869,0.04199 7.40962,-0.731243 0.63178,-0.431955 1.3848,-1.185083 1.67339,-1.673617 0.63234,-1.070467 0.97584,-3.628961 0.69104,-5.147077 -0.43033,-2.29384 -4.03041,-5.681325 -7.76175,-7.303404 -3.41734,-1.485573 -4.41851,-1.639742 -8.880383,-1.367481 -5.27697,0.321996 -6.119844,0.244922 -7.771621,-0.71065 -1.368728,-0.791824 -1.514491,-1.02982 -1.873517,-3.058994 -0.180594,-1.020695 -0.06974,-1.320852 0.886402,-2.4 1.805633,-2.037936 2.165883,-2.741397 2.165883,-4.22933 0,-0.970933 0.175341,-1.546623 0.56,-1.83862 1.657282,-1.258057 9.128036,0.41999 16.210096,3.641038 2.60877,1.186516 3.31705,1.388621 4,1.141389 0.70014,-0.253454 0.81988,-0.476999 0.76578,-1.429724 -0.17356,-3.056478 -3.08857,-8.070829 -5.68734,-9.783263 -1.54269,-1.016541 -4.20496,-1.953121 -7.459107,-2.624094 -2.315296,-0.477392 -4.04224,-1.417533 -5.993208,-3.262676 -2.383738,-2.254441 -3.424815,-4.339223 -3.610318,-7.229751 -0.111046,-1.730333 -0.0076,-2.71869 0.394805,-3.772395 1.181095,-3.092653 3.372854,-3.779234 9.127656,-2.859289 2.910132,0.465204 3.813112,0.498256 5.154352,0.188662 0.89436,-0.206444 2.04152,-0.375352 2.54924,-0.375352 0.60721,0 1.5024,-0.465439 2.61571,-1.36 3.07045,-2.467136 4.05235,-3.128267 6.04719,-4.071679 3.6747,-1.7378567 6.55112,-1.6012688 11.75825,0.558345 3.45702,1.433769 6.14371,1.581217 8.28725,0.454813 2.76195,-1.4513672 6.0523,-3.7518178 7.92585,-5.5413672 1.05942,-1.011913 2.34499,-1.9990618 2.85684,-2.193664 1.02176,-0.388475 8.04982,-0.9951488 8.68862,-0.7500171 0.9154,0.3512717 0.65544,1.1078654 -0.93647,2.725579 -0.919,0.9338949 -3.01965,3.7139907 -4.66811,6.1779903 -1.64846,2.464 -3.65312,5.401789 -4.45479,6.52842 l -1.45758,2.04842 2.06264,-0.231685 c 2.24448,-0.25211 5.65352,-1.498022 8.7403,-3.194341 5.08995,-2.797153 9.02088,-2.732693 13.40234,0.219775 0.85675,0.577322 0.90326,0.577322 1.76,0 4.38147,-2.952468 8.3124,-3.016928 13.40235,-0.219775 3.08678,1.696319 6.49582,2.942231 8.7403,3.194341 l 2.06264,0.231685 -1.45758,-2.04842 C 191.46604,17.081789 189.46138,14.144 187.81292,11.68 186.16446,9.216 184.06381,6.4359042 183.14481,5.5020093 181.5529,3.8842957 181.29294,3.127702 182.20834,2.7764303 c 0.6388,-0.2451317 7.66686,0.3615421 8.68862,0.7500171 0.51185,0.1946022 1.79742,1.181751 2.85684,2.193664 1.87355,1.7895494 5.1639,4.09 7.92585,5.5413676 2.14354,1.126404 4.83023,0.978956 8.28725,-0.454813 7.25218,-3.0077824 10.48306,-2.370272 17.80544,3.513334 1.11331,0.894561 2.0085,1.36 2.61571,1.36 0.50772,0 1.65488,0.168908 2.54924,0.375352 1.34124,0.309594 2.24422,0.276542 5.15435,-0.188662 5.7548,-0.919945 7.94656,-0.233364 9.12766,2.859289 0.40241,1.053705 0.50585,2.042062 0.3948,3.772395 -0.1855,2.890528 -1.22658,4.97531 -3.61031,7.229751 -1.95097,1.845143 -3.67792,2.785284 -5.99321,3.262676 -3.25415,0.670973 -5.91642,1.607553 -7.45911,2.624094 -2.59877,1.712434 -5.51378,6.726785 -5.68734,9.783263 -0.0543,0.956427 0.0647,1.175906 0.77731,1.433779 0.6825,0.246971 1.2567,0.108986 3.04,-0.730536 7.04118,-3.314776 15.90061,-5.440748 17.02535,-4.085525 0.18983,0.228733 0.4432,1.056733 0.56305,1.84 0.27244,1.780505 0.46497,2.152574 2.07864,4.017026 1.16,1.340276 1.2816,1.633784 1.10073,2.656911 -0.35542,2.010567 -0.50384,2.251998 -1.87043,3.042586 -1.65178,0.955572 -2.49466,1.032646 -7.77163,0.71065 -4.46187,-0.272261 -5.46304,-0.118092 -8.88038,1.367481 -3.73134,1.622079 -7.33142,5.009564 -7.76175,7.303404 -0.2848,1.518116 0.0587,4.07661 0.69104,5.147077 0.28859,0.488534 1.04161,1.241662 1.67339,1.673617 1.13093,0.773237 1.24542,0.784535 7.40962,0.731243 4.39255,-0.03798 7.02489,-0.212101 8.82094,-0.583492 2.51931,-0.520948 11.64089,-3.391309 12.70426,-3.997751 0.86617,-0.493977 1.53574,0.441869 1.53574,2.146475 v 1.465388 l 1.72548,-1.568245 C 258.6745,67.10571 259.46562,66.256 259.48352,66.08 c 0.0179,-0.176 -0.18257,-0.73246 -0.44548,-1.236578 -0.64725,-1.241036 -0.60656,-1.688874 0.2921,-3.215308 1.53698,-2.610667 7.13542,-6.099089 11.63513,-7.24992 3.16227,-0.808773 4.51719,-0.775311 7.52693,0.185891 2.95809,0.944705 4.10616,0.997524 4.8087,0.221232 0.4837,-0.534481 0.4312,-0.803867 -0.75041,-3.850876 -0.69876,-1.801907 -1.27048,-3.776869 -1.27048,-4.388805 0,-1.621826 1.10824,-3.70766 2.45768,-4.625636 2.14367,-1.458264 7.5244,-7.159385 9.28657,-9.839525 3.73354,-5.678489 4.47348,-8.944714 2.82734,-12.480475 -0.9297,-1.996934 -1.2564,-2.057797 -3.8865,-0.724054 -2.15573,1.093191 -3.60027,1.201048 -5.9207,0.442074 -2.64497,-0.865125 -4.12439,-3.69372 -4.12439,-7.885651 0,-3.2668924 0.63995,-4.1269239 3.7216,-5.0014325 0.78367,-0.2223917 1.41028,-0.1173298 2.88,0.4828807 1.77333,0.7242048 2.05258,0.7494178 4.99234,0.4507492 2.24806,-0.2283944 3.33512,-0.215593 3.90933,0.046037 1.06854,0.48686 3.68894,3.8695066 4.24273,5.4769066 0.81664,2.37031 0.97267,2.527302 2.4088,2.42361 1.09047,-0.07873 1.36038,0.02318 1.62357,0.613011 0.39086,0.875942 -0.34609,4.082407 -1.50338,6.541217 -1.49303,3.172136 -1.52331,3.342245 -0.83119,4.67011 0.70916,1.360552 0.63478,1.828115 -0.79731,5.011814 -0.85809,1.907637 -0.97991,3.937213 -0.34777,5.793759 0.17302,0.508142 -0.11119,1.035041 -1.22882,2.278115 -1.96012,2.180132 -2.20468,2.908671 -1.58596,4.724525 0.27278,0.80057 0.62649,1.536248 0.78601,1.634841 0.53883,0.333011 0.30934,2.952211 -0.35772,4.08279 -0.60728,1.029264 -0.62479,1.292684 -0.2802,4.214522 0.37153,3.150238 0.0707,5.604176 -0.68711,5.604176 -0.18858,0 -0.23068,0.846841 -0.10783,2.168711 0.18964,2.040485 0.14968,2.230367 -0.67588,3.211494 -1.08124,1.284975 -2.37498,1.979795 -3.68636,1.979795 -1.26045,0 -2.00136,0.395984 -2.68064,1.432689 -0.50592,0.772134 -0.49963,0.937786 0.11065,2.913647 l 0.64707,2.094967 -0.64247,1.259348 C 291.40841,76.366001 290.96868,76.8 290.5535,76.8 c -0.53028,0 -0.63349,0.21791 -0.63349,1.337441 0,0.735593 -0.27267,2.211593 -0.60592,3.28 -1.64486,5.273362 -1.67167,5.458629 -1.69337,11.705462 -0.0241,6.933377 -0.15082,7.321637 -1.94356,5.954248 -1.85661,-1.416104 -3.12394,-1.80704 -4.28096,-1.32055 -1.32187,0.555805 -1.5359,0.975749 -0.93473,1.834039 0.80698,1.15212 0.64617,3.19911 -0.32284,4.10945 -0.67796,0.6369 -0.78631,0.95858 -0.62054,1.84224 0.21218,1.13103 -0.33179,2.33554 -1.4712,3.25767 -0.48908,0.39582 -0.60834,1.01314 -0.67999,3.52 l -0.0869,3.04 h -1.20021 c -1.1312,0 -1.2002,0.0576 -1.2,1.00097 1.4e-4,0.68235 -0.22897,1.15406 -0.71979,1.48193 -0.67231,0.44911 -0.68542,0.52058 -0.19785,1.07903 0.79624,0.91201 1.01525,1.99036 0.60527,2.98015 -0.47111,1.13736 -1.66956,1.68634 -3.16063,1.44781 -0.89515,-0.1432 -1.04269,-0.10769 -0.63373,0.15255 0.56349,0.35857 2.38283,3.09467 3.0438,4.57756 0.21573,0.484 0.52323,0.88 0.68333,0.88 0.26871,0 1.54044,1.60823 5.18413,6.55583 0.77601,1.05371 2.06449,2.62838 2.8633,3.49926 3.81656,4.16092 4.49414,4.98705 5.92575,7.22491 0.84444,1.32 2.27728,3.264 3.18409,4.32 2.1636,2.51954 5.62254,7.12637 5.62254,7.48844 0,0.15688 0.41343,1.30117 0.91874,2.54286 1.52397,3.74482 4.1733,6.57085 9.48126,10.1136 5.25964,3.51051 6.24285,4.02822 9.44,4.97063 3.49215,1.02938 6.57974,2.76474 9.02932,5.07488 2.37385,2.23871 3.46703,4.17502 4.09289,7.24959 0.21496,1.056 0.60335,2.3339 0.8631,2.83978 0.52812,1.02855 0.23995,1.54437 -1.08423,1.94075 -0.57867,0.17322 -0.91876,-0.0884 -1.97671,-1.52047 -1.61198,-2.18206 -4.24456,-4.4974 -6.11833,-5.38104 -0.79532,-0.37506 -2.63596,-1.01019 -4.09032,-1.41139 -1.45435,-0.4012 -3.12907,-1.0155 -3.72159,-1.3651 l -1.07733,-0.63563 -0.2164,2.48082 c -0.12556,1.43941 -0.0576,3.67449 0.16199,5.32432 0.48576,3.65022 0.23936,7.28393 -0.62667,9.24173 -0.36886,0.83387 -1.52899,2.36354 -2.57929,3.40089 -1.79846,1.77626 -2.9239,2.29755 -3.37711,1.56424 -0.10915,-0.17661 0.0443,-1.86861 0.34103,-3.76 0.88088,-5.61517 0.28591,-9.36572 -2.11735,-13.34726 -2.1769,-3.60652 -6.48034,-7.24231 -7.43833,-6.28432 -0.22814,0.22814 -0.0704,1.32604 0.50738,3.53048 1.19302,4.5522 2.24057,6.99274 4.93593,11.49954 1.41221,2.36131 2.32748,4.23267 2.26938,4.64 -0.2393,1.67784 -3.74095,0.0441 -7.811,-3.64437 -5.47814,-4.96451 -7.10048,-8.25535 -7.96319,-16.15297 -0.73614,-6.73901 -1.29933,-8.33883 -4.71641,-13.39783 -2.48445,-3.67823 -3.43115,-5.79098 -3.70591,-8.2705 l -0.22292,-2.01167 -2.74888,0.11342 c -2.43004,0.10026 -3.17224,-0.0177 -6.39897,-1.01685 -6.6158,-2.04862 -8.87797,-2.20724 -13.5863,-0.95265 -1.92529,0.51302 -2.10266,0.51434 -2.59758,0.0194 -0.49238,-0.49238 -0.58699,-1.59894 -0.33546,-3.92335 0.0514,-0.47458 -0.0962,-0.61617 -0.57074,-0.5478 -0.352,0.0507 -2.25496,0.17858 -4.2288,0.28415 -3.98431,0.21308 -4.6682,0.003 -5.52077,-1.69315 -0.78304,-1.55814 -0.98641,-1.73717 -1.60015,-1.40871 -0.65487,0.35048 -1.0645,1.31057 -1.75017,4.102 -1.45265,5.9139 -4.28717,10.09285 -10.92131,16.10135 -2.08025,1.88408 -4.0569,3.42497 -10.74573,8.37679 -2.70508,2.0026 -5.10684,4.81473 -6.61511,7.74537 -1.46035,2.83752 -3.15297,7.47197 -3.76399,10.30588 -0.73981,3.43129 -0.74491,9.14603 -0.011,12.35989 0.73018,3.19768 0.97795,3.03174 0.35269,-0.23621 -0.92658,-4.84277 -0.46922,-9.79955 1.22806,-13.30956 0.75499,-1.56135 0.54297,-1.50208 3.87797,-1.08402 4.04474,0.50703 8.71393,-1.72597 15.69835,-7.50763 5.22401,-4.3244 7.23486,-4.7261 13.82141,-2.76102 4.87562,1.45462 5.92721,1.90559 8.29335,3.55654 2.49924,1.74381 7.40305,6.92333 8.16304,8.62201 0.38523,0.86101 0.65507,2.49618 0.79213,4.8 0.2023,3.40058 0.18694,3.51646 -0.57368,4.32872 l -0.78155,0.8346 0.91879,1.5654 c 1.27801,2.17742 1.13292,4.24559 -0.46336,6.6046 -1.6222,2.39733 -1.91316,3.05811 -1.67582,3.80589 0.39872,1.25626 1.6844,2.82906 3.68568,4.50878 4.56592,3.83227 5.41373,4.77599 6.79412,7.5628 1.2747,2.57341 1.3448,2.86223 1.32525,5.46023 -0.0333,4.42889 -1.1191,7.4065 -5.37611,14.7431 -1.28289,2.21097 -1.02106,6.09731 0.44208,6.56169 0.32551,0.10331 1.8209,0.0243 3.3231,-0.17562 3.31132,-0.44065 5.23024,-0.10943 7.42323,1.28132 0.83673,0.53065 2.0106,1.05659 2.6086,1.16878 2.22812,0.418 7.63888,-0.88248 11.91974,-2.86491 2.72743,-1.26305 7.96337,-2.22458 11.10372,-2.03909 3.38156,0.19974 4.75365,0.87112 7.81875,3.82579 1.97795,1.9067 2.56163,2.709 3.26317,4.48541 1.31299,3.32469 1.08173,4.71663 -0.78364,4.71663 -0.57535,0 -1.18842,-0.35223 -1.81018,-1.04 -0.51709,-0.572 -1.52566,-1.68714 -2.24125,-2.47809 -1.56409,-1.7288 -2.09703,-1.57888 -0.67142,0.18889 1.55886,1.93299 2.99422,5.20009 2.93883,6.6892 -0.1153,3.09944 -1.46668,4.04701 -2.50088,1.75357 -0.53744,-1.19184 -0.74691,-1.33638 -2.8486,-1.96565 -1.24768,-0.37356 -2.8085,-0.9496 -3.4685,-1.28007 -0.66,-0.33047 -1.2,-0.49433 -1.2,-0.36414 0,0.1302 1.36613,1.5506 3.03584,3.15644 3.32581,3.19858 4.25282,4.76059 4.55334,7.67238 0.2135,2.06856 -0.33119,3.66747 -1.24935,3.66747 -0.62502,0 -2.23613,-1.0501 -3.84049,-2.50318 -1.23952,-1.12264 -4.75761,-1.34848 -6.25934,-0.40182 l -1.04,0.65559 v 4.42354 c 0,4.91527 -0.22369,5.61445 -1.79471,5.60979 -1.02297,-0.003 -4.06185,-1.33899 -6.04529,-2.65763 -1.79416,-1.1928 -2.50857,-1.43285 -8.55787,-2.87555 -2.94683,-0.70279 -6.04283,-1.62286 -6.88,-2.04459 -0.83717,-0.42174 -2.53013,-1.13258 -3.76213,-1.57965 -1.232,-0.44707 -2.93588,-1.12492 -3.7864,-1.50633 -0.95034,-0.42617 -2.69912,-0.80253 -4.53698,-0.97641 -3.61912,-0.3424 -5.51806,0.10649 -7.51765,1.7771 -1.86288,1.55639 -5.31196,3.13879 -6.87166,3.15264 -1.95068,0.0173 -4.07669,-1.16041 -4.98903,-2.76375 -1.01892,-1.79063 -1.04571,-5.65361 -0.056,-8.06975 0.36049,-0.88 1.18944,-2.896 1.84212,-4.48 2.39803,-5.81977 2.39699,-5.81609 2.36367,-8.40343 -0.0175,-1.36212 -0.12678,-2.81432 -0.24275,-3.22712 l -0.21086,-0.75056 -0.60684,0.67056 c -0.84532,0.93407 -1.61951,0.83685 -2.33503,-0.29323 -1.13247,-1.78863 -0.50642,-6.88469 1.43445,-11.67622 0.35645,-0.88 1.02517,-2.53366 1.48604,-3.6748 0.94765,-2.34641 0.90128,-3.11879 -0.15337,-2.55436 -1.4941,0.79962 -1.57974,0.45577 -1.57974,-6.34272 0,-7.16612 -0.32116,-8.91825 -1.98124,-10.80898 -1.04283,-1.18772 -2.08402,-1.83168 -3.516,-2.17461 -0.82607,-0.19783 -0.87086,-0.13839 -1.23219,1.63509 -0.50804,2.49356 -1.27809,3.28038 -3.21045,3.28038 -1.1945,0 -1.84034,-0.2284 -3.10422,-1.09779 l -1.5959,-1.09779 v 0.77291 c 0,1.09487 -0.90317,2.33613 -1.87782,2.58075 -1.25036,0.31382 -2.88353,-0.62876 -3.91931,-2.26202 l -0.90634,-1.42914 0.15229,1.58489 c 0.18105,1.88419 -0.24106,2.54819 -1.61989,2.54819 -2.64568,0 -5.47559,-3.08924 -7.78194,-8.49509 -2.13317,-4.99992 -2.33696,-4.91903 -0.44108,0.17509 0.49126,1.32 1.1814,3.264 1.53364,4.32 0.35224,1.056 1.24041,3.576 1.97369,5.6 0.73329,2.024 1.60262,4.76 1.93184,6.08 0.32922,1.32 0.96778,3.408 1.41902,4.64 1.30875,3.57323 2.0959,8.33152 2.0959,12.66973 0,4.31628 0.59378,7.77164 1.83694,10.68961 1.58085,3.71061 2.13859,8.27153 1.22706,10.03425 -0.25081,0.485 -0.85276,1.06258 -1.33768,1.28353 -0.76036,0.34644 -0.99483,0.31839 -1.704,-0.20386 -0.45228,-0.33307 -1.18232,-1.24181 -1.62232,-2.01942 -0.86885,-1.53552 -2.29753,-3.17384 -2.7677,-3.17384 -0.51634,0 -1.2986,1.70959 -1.50336,3.28551 -0.36506,2.80964 -1.68197,4.71449 -3.25936,4.71449 -1.17549,0 -1.60671,-0.39701 -1.9136,-1.76179 -0.48797,-2.17007 -0.49475,-2.17413 -1.22219,-0.73284 -0.44338,0.87849 -0.94189,1.40999 -1.38117,1.47261 -0.66198,0.0944 -1.05888,0.86049 -1.06825,2.06202 -0.003,0.37597 0.24316,0.56 0.7489,0.56 0.4143,0 1.1343,0.35312 1.6,0.78472 1.10047,1.01989 1.10589,2.40954 0.0179,4.59285 -1.56711,3.14476 -6.84335,6.77525 -9.20319,6.33255 -2.53311,-0.47522 -4.22093,-2.53376 -4.58283,-5.58943 -0.19305,-1.63005 -0.20169,-1.64069 -1.33163,-1.64069 -0.95446,0 -1.4034,-0.27472 -2.79231,-1.70869 l -1.65499,-1.70869 -0.36312,1.5731 c -0.19971,0.86521 -0.36311,1.98474 -0.36311,2.48786 0,1.5669 -0.50734,2.36267 -2.20946,3.46561 -1.8903,1.22487 -3.23054,3.00261 -3.23054,4.28509 0,1.76971 1.74676,0.71478 5.3842,-3.25167 1.46402,-1.59644 2.84404,-2.90261 3.06673,-2.90261 0.46205,0 3.98132,2.43922 4.59627,3.1857 1.57669,1.9139 2.26624,4.77472 1.66687,6.91548 -0.76391,2.7284 -4.4251,5.2587 -7.9812,5.51593 l -1.80146,0.13031 1.05429,1.05429 c 0.86312,0.86311 1.0543,1.30201 1.0543,2.42041 0,1.53296 -1.14623,3.81781 -3.25114,6.48073 -2.94403,3.72446 -3.42968,5.96273 -3.34659,15.42376 0.0566,6.4461 0.092,6.79305 0.8484,8.32 1.04842,2.11643 3.0573,3.45254 6.31455,4.19983 4.90174,1.12458 9.72593,0.57148 12.70568,-1.45672 1.68726,-1.14846 4.37285,-4.18536 6.66137,-7.53278 1.42085,-2.0783 2.54797,-2.74687 5.00667,-2.96982 5.05169,-0.45807 9.87701,2.50774 12.87409,7.91288 1.33,2.39862 1.72488,3.86963 1.26795,4.72342 -0.24216,0.45249 -0.16732,0.83265 0.30293,1.53877 0.78898,1.18469 1.60491,3.85034 1.36775,4.46839 -0.0991,0.25818 -0.48873,0.47518 -0.8659,0.48223 -0.59128,0.0111 -0.55349,0.0824 0.27424,0.51802 1.40261,0.73814 2.69393,2.02455 3.3893,3.37642 1.61466,3.13907 -0.52138,7.71625 -2.20419,4.7232 -0.33349,-0.59315 -1.21486,-1.29957 -2.27031,-1.81966 l -1.7252,-0.85012 -0.70953,0.82488 c -0.48312,0.56166 -0.78135,1.45961 -0.93458,2.81398 -0.39041,3.45082 -2.24443,4.33929 -5.98131,2.86635 -2.12694,-0.83836 -8.10996,-1.43794 -9.41136,-0.94315 -0.50491,0.19196 -1.78985,1.10627 -2.85542,2.03179 -2.82529,2.45396 -4.00319,3.08548 -5.75499,3.08548 -2.42071,0 -4.44345,-1.19769 -8.5188,-5.04409 -6.90867,-6.52055 -8.18934,-7.16919 -14.70361,-7.44708 -4.85919,-0.20728 -5.82705,-0.46533 -7.45687,-1.98813 -0.87069,-0.81352 -1.82314,-2.51913 -1.82314,-3.26481 0,-0.27274 -0.144,-0.49589 -0.32,-0.49589 -0.176,0 -0.32,0.22315 -0.32,0.49589 0,0.74568 -0.95244,2.45129 -1.82313,3.26481 -1.62982,1.5228 -2.59768,1.78085 -7.45687,1.98813 -6.51427,0.27789 -7.79494,0.92653 -14.70361,7.44708 -2.29231,2.16353 -4.29117,3.75468 -5.34019,4.25095 -2.15416,1.01908 -4.32114,1.04226 -5.90411,0.0632 z m 4.99375,-1.62406 c 0.98905,-0.46057 2.95562,-2.03136 5.12,-4.08961 3.99546,-3.7995 6.14365,-5.40812 9.0191,-6.7537 1.832,-0.8573 2.4195,-0.95809 6.75798,-1.1594 5.20232,-0.2414 5.96048,-0.49117 7.08027,-2.33252 1.02377,-1.68346 1.44839,-6.72651 1.00558,-11.94301 -0.22284,-2.62518 -0.35897,-9.40167 -0.328,-16.32771 0.057,-12.73559 -0.14113,-15.18324 -1.50197,-18.56 -0.44564,-1.10581 -1.25596,-2.36366 -1.91087,-2.96622 -1.26624,-1.16501 -1.28641,-1.78507 -0.0628,-1.93121 0.5796,-0.0692 1.24889,0.27747 2.31223,1.19779 2.80089,2.42415 3.26236,2.43788 5.91243,0.17581 1.23862,-1.05726 1.94917,-1.44265 2.53143,-1.373 1.21744,0.14563 1.19518,0.7674 -0.0691,1.93061 -0.65491,0.60256 -1.46523,1.86041 -1.91087,2.96622 -1.36084,3.37676 -1.55892,5.82441 -1.50197,18.56 0.031,6.92604 -0.10516,13.70253 -0.328,16.32771 -0.44281,5.2165 -0.0182,10.25955 1.00558,11.94301 1.11979,1.84135 1.87795,2.09112 7.08027,2.33252 4.33848,0.20131 4.92598,0.3021 6.75798,1.1594 2.87545,1.34558 5.02364,2.9542 9.0191,6.7537 3.49925,3.32764 5.84301,4.83398 7.53155,4.84053 0.98335,0.004 2.75027,-1.15111 5.19752,-3.39729 1.22507,-1.12442 2.23431,-1.76516 3.00934,-1.91056 2.06588,-0.38756 7.28101,0.13658 9.91542,0.99654 3.44478,1.12449 3.67439,1.00456 4.1012,-2.14212 0.24521,-1.80779 1.32306,-3.50684 2.48363,-3.91498 1.06241,-0.37363 2.8901,0.1341 4.55863,1.2664 0.66197,0.44922 1.27949,0.74086 1.37226,0.64809 0.35772,-0.35772 -0.97594,-3.08472 -1.78864,-3.65731 -1.31398,-0.92577 -5.34481,-2.60564 -6.25219,-2.60564 -0.80077,0 -3.10093,0.65441 -9.32288,2.65241 -2.81686,0.90455 -3.62812,1.02759 -6.77562,1.02759 -3.13117,0 -3.68803,-0.0835 -4.48,-0.67164 -0.96373,-0.71571 -1.40211,-2.47863 -0.77284,-3.1079 0.18598,-0.18599 1.24854,-0.34768 2.36123,-0.35931 1.75783,-0.0184 2.42527,-0.22346 5.09075,-1.56421 3.57347,-1.79748 6.9903,-2.76929 9.69648,-2.75787 1.82058,0.008 4.23695,0.67826 7.28,2.0203 0.66,0.29107 1.2,0.4505 1.2,0.35429 0,-0.60524 -1.79766,-3.54527 -2.65403,-4.3406 -1.36643,-1.26903 -3.83207,-2.53353 -4.93534,-2.53108 -0.48985,0.001 -2.38523,0.43309 -4.21195,0.96 -1.82673,0.52691 -3.77793,0.95802 -4.336,0.95802 -2.03646,0 -2.35175,-1.46734 -0.74268,-3.45638 2.08611,-2.57874 5.05521,-3.44974 8.42259,-2.47082 2.0624,0.59956 4.76448,1.87149 5.70118,2.68368 0.59027,0.5118 0.59097,0.4985 0.0315,-0.59433 -0.98456,-1.92326 -2.15912,-3.17061 -4.45615,-4.73227 -2.17481,-1.47859 -2.27941,-1.5122 -5.04716,-1.62199 -3.48271,-0.13814 -3.80995,0.0451 -6.06008,3.39388 -2.02358,3.01159 -5.39115,6.45871 -7.22184,7.39244 -5.76611,2.94095 -16.43926,1.58404 -19.5587,-2.48656 -1.5668,-2.04453 -1.72675,-2.76643 -1.95602,-8.82765 -0.23648,-6.25191 0.018,-10.53011 0.78278,-13.16094 0.44327,-1.52478 1.00537,-2.47544 4.26942,-7.2206 1.53699,-2.2344 1.83447,-3.29299 1.19828,-4.26394 -0.65718,-1.00299 -0.81492,-0.99462 -1.96509,0.10434 -0.51741,0.49437 -1.61054,1.37258 -2.42918,1.95158 -1.6591,1.17342 -2.63146,1.13885 -3.20223,-0.11384 -0.40317,-0.88486 0.25131,-2.35347 1.76649,-3.9639 1.50786,-1.60265 2.56641,-2.0153 5.90319,-2.30118 6.62156,-0.56733 9.58819,-3.99467 7.38934,-8.53689 -0.59786,-1.23501 -2.9186,-3.29463 -3.71232,-3.29463 -0.14777,0 -1.46419,1.22636 -2.9254,2.72525 -3.5661,3.65808 -5.70456,4.73142 -6.84319,3.43475 -1.76333,-2.00808 -0.0967,-5.89878 3.47136,-8.10398 0.78292,-0.48387 1.08434,-0.90379 1.09259,-1.52212 0.006,-0.46965 0.22002,-1.7179 0.47501,-2.7739 0.25498,-1.056 0.46585,-2.4503 0.4686,-3.09844 0.004,-0.92402 0.1542,-1.22579 0.69609,-1.39778 0.57365,-0.18207 1.08134,0.2066 2.98759,2.28717 l 2.2965,2.5065 0.59002,-0.94872 c 1.53114,-2.46202 2.3948,-2.16278 2.3948,0.82975 0,3.31449 0.51664,5.26083 1.64946,6.21403 1.25247,1.05389 2.1894,1.01855 4.38574,-0.1654 3.16203,-1.7045 5.1648,-3.99916 5.1648,-5.91753 0,-1.36892 -0.72905,-1.62451 -2.14233,-0.75106 -0.98942,0.61149 -1.16266,0.63364 -1.59271,0.20358 -0.43006,-0.43005 -0.42534,-0.59316 0.0434,-1.49952 0.69592,-1.34577 0.98311,-3.90434 0.5327,-4.74593 -0.47189,-0.88172 -1.02631,-4.87083 -0.79821,-5.7431 0.20496,-0.78377 0.84249,-1.12352 1.57836,-0.84115 0.27564,0.10578 0.95964,1.00126 1.52,1.98996 l 1.01883,1.79764 0.16,-1.44 c 0.1294,-1.16461 0.29064,-1.45863 0.84313,-1.53743 0.91304,-0.13021 1.88804,1.47148 2.56458,4.21304 0.28609,1.15932 0.64542,2.03044 0.7985,1.93583 0.53043,-0.32783 1.15177,-1.899 1.38073,-3.49144 0.37569,-2.61299 1.8618,-4.64 3.40182,-4.64 0.63978,0 3.56857,3.06033 4.02824,4.20916 0.61672,1.54132 1.29963,1.80077 1.74968,0.66473 0.46524,-1.17442 -0.15945,-5.04758 -1.22481,-7.59389 -1.46359,-3.49814 -2.01667,-6.40169 -2.01938,-10.6013 -0.003,-4.72119 -0.81422,-9.53621 -2.38915,-14.18157 -0.62334,-1.83857 -1.13557,-3.56657 -1.13829,-3.84 -0.005,-0.46268 -1.49539,-4.83415 -4.53469,-13.29713 -0.69527,-1.936 -1.9233,-5.752 -2.72894,-8.48 -1.4408,-4.8787 -1.46535,-5.03868 -1.49783,-9.76 -0.0385,-5.59454 0.50537,-8.72223 2.25354,-12.96 1.74145,-4.22147 2.90314,-6.36463 4.80654,-8.8674 1.62047,-2.13076 2.71628,-3.11006 6.36984,-5.6926 8.21585,-5.80742 14.29229,-11.63153 16.86014,-16.16 0.76003,-1.34034 1.91645,-4.63379 2.8034,-7.98403 0.87896,-3.32004 3.85026,-4.57961 5.3218,-2.25597 1.47023,2.32156 1.52216,2.34661 4.3936,2.1192 1.42865,-0.11314 3.40152,-0.29208 4.38415,-0.39765 1.76878,-0.19003 1.79074,-0.18193 2.20233,0.81173 0.25706,0.62059 0.34084,1.55006 0.21952,2.4352 -0.20693,1.50974 -0.0958,1.61618 1.18056,1.1309 0.43487,-0.16533 1.9232,-0.45567 3.3074,-0.6452 2.82985,-0.38746 5.38834,0.0364 11.41957,1.89199 3.39042,1.04309 5.94871,1.08741 7.48261,0.12962 0.43313,-0.27045 1.04856,-0.36587 1.54926,-0.24021 0.66388,0.16663 0.80159,0.36072 0.68577,0.96658 -0.21761,1.13835 0.58088,5.62806 1.22159,6.86868 0.30936,0.59904 1.63834,2.71897 2.95328,4.71096 3.00112,4.54636 3.73168,6.63123 4.39353,12.5382 0.28594,2.552 0.66953,5.216 0.85244,5.92 1.01204,3.8954 3.59346,7.59955 7.49124,10.74942 2.98882,2.41532 3.27712,2.55809 2.4782,1.22724 -2.63676,-4.39236 -3.43372,-6.04696 -4.61276,-9.57666 -1.43704,-4.30212 -1.93402,-7.65718 -1.25536,-8.47491 0.67735,-0.81617 2.88375,-0.60949 4.50157,0.42167 2.29309,1.46155 5.22456,4.85686 6.6469,7.69861 1.70981,3.41608 2.09043,5.42793 1.90095,10.04792 l -0.15474,3.77329 0.75194,-0.70641 c 0.41356,-0.38853 1.07609,-1.36651 1.47228,-2.17329 0.64724,-1.31801 0.70663,-1.82411 0.58523,-4.98688 -0.31897,-8.30966 -0.21217,-11.81996 0.38747,-12.73458 0.68218,-1.04054 1.1645,-1.08359 2.18366,-0.19489 1.11478,0.9721 2.08896,1.40548 4.60896,2.05038 3.35098,0.85757 5.86128,2.17538 7.9862,4.19244 1.04841,0.9952 1.9538,1.66664 2.01198,1.49209 0.0582,-0.17455 -0.19579,-1.12341 -0.56439,-2.10857 -1.52363,-4.07227 -5.53344,-7.32265 -11.0825,-8.98356 -3.49316,-1.04555 -5.9171,-2.32739 -10.81423,-5.71885 -5.34056,-3.69854 -7.26991,-5.85011 -9.67963,-10.79446 -1.80436,-3.70225 -2.78546,-5.18451 -6.35417,-9.6 -1.06686,-1.32 -2.62927,-3.48 -3.47203,-4.8 -0.84276,-1.32 -1.78605,-2.616 -2.0962,-2.88 -0.95405,-0.81209 -5.57898,-6.13978 -6.94507,-8.00038 -0.71088,-0.96821 -1.53993,-1.96572 -1.84234,-2.21669 -0.3024,-0.25098 -0.77369,-0.89881 -1.04731,-1.43962 -0.27362,-0.54082 -0.72046,-1.23754 -0.99299,-1.54828 -0.47262,-0.53888 -0.52625,-0.5366 -1.16141,0.0493 -2.46336,2.27242 -6.36482,0.77746 -10.89565,-4.17498 l -1.85663,-2.02938 0.20276,1.56154 c 0.11151,0.85884 0.47342,2.01084 0.80424,2.56 0.89459,1.485 1.07029,3.06109 0.5383,4.82875 -0.69272,2.30175 -1.43243,2.60921 -3.03438,1.26126 l -0.98455,-0.82844 v 2.37036 c 0,2.98931 0.60644,5.04028 2.23568,7.56103 0.70637,1.0929 1.28432,2.26053 1.28432,2.59473 0,0.67113 -1.04547,1.15031 -1.67714,0.76869 -2.09941,-1.26835 -6.96569,-5.21195 -8.96286,-7.26343 -1.364,-1.40109 -2.47918,-2.41852 -2.47817,-2.26096 10e-4,0.15756 0.50263,1.87047 1.11471,3.80647 1.30439,4.12576 1.41023,5.78911 0.44633,7.01452 -0.97853,1.24399 -2.16944,1.02789 -3.0021,-0.54475 -0.36702,-0.6932 -1.39108,-1.72667 -2.39701,-2.41905 -1.58767,-1.09278 -1.80805,-1.39128 -2.29595,-3.10977 -0.29683,-1.04552 -0.63501,-2.47274 -0.75151,-3.17158 -0.17263,-1.03562 -0.26901,-1.16842 -0.52107,-0.71801 -0.44914,0.80258 -2.35796,5.50027 -4.25372,10.46864 -1.49877,3.92793 -1.71976,4.32 -2.43494,4.32 h -0.78657 l 0.0223,-3.36 c 0.0123,-1.848 0.14087,-5.30447 0.28578,-7.68104 l 0.26348,-4.32104 -0.8295,-0.9858 c -1.34522,-1.59871 -2.14206,-4.03305 -2.14206,-6.54397 0,-1.5718 0.11783,-2.22671 0.4,-2.22325 0.8503,0.0104 1.11393,0.54962 1.275,2.60779 0.11821,1.51039 0.40957,2.53749 0.99853,3.52 2.20643,3.6808 2.22235,3.75399 1.85558,8.53564 -0.18366,2.39444 -0.28604,4.40141 -0.22751,4.45994 0.0585,0.0585 0.32635,-0.51339 0.59515,-1.27093 0.58413,-1.64619 3.68164,-9.14157 4.10667,-9.93734 0.35511,-0.66488 1.64879,-0.74005 2.15887,-0.12543 0.19837,0.23901 0.58506,1.42701 0.85933,2.64 1.04577,4.62514 1.00002,4.53358 2.89392,5.79107 0.97125,0.64487 1.96148,1.54192 2.20051,1.99343 0.37218,0.70303 0.46528,0.74248 0.64824,0.27465 0.1187,-0.30349 -0.3681,-2.48687 -1.09532,-4.9127 -1.41443,-4.7182 -1.68011,-7.29013 -0.78841,-7.63231 0.60928,-0.2338 1.06389,0.0996 2.79704,2.05129 2.07339,2.33483 6.15044,6.19602 7.17477,6.7949 l 0.94911,0.5549 -0.80794,-1.9949 c -0.65201,-1.60988 -0.83815,-2.71953 -0.96445,-5.74945 -0.16322,-3.91599 0.0402,-4.72545 1.18732,-4.72545 0.29592,0 1.02111,0.4984 1.61152,1.10755 0.59041,0.60915 1.19466,1.03265 1.34277,0.94111 0.52303,-0.32325 0.25943,-2.31287 -0.53686,-4.05221 -0.59964,-1.30977 -0.81701,-2.34838 -0.84851,-4.05416 -0.0233,-1.2613 0.10693,-2.44256 0.28939,-2.62501 0.54453,-0.54453 2.01447,0.43542 4.32148,2.88098 2.41525,2.56029 4.951,4.45518 6.33138,4.73126 1.01632,0.20326 2.55502,-0.55542 2.54911,-1.2569 -0.0104,-1.23268 -1.61759,-3.37059 -3.88654,-5.16988 -1.34742,-1.06851 -2.54103,-2.14913 -2.65246,-2.40139 -0.11223,-0.25403 0.0719,-0.73319 0.41277,-1.07404 0.60719,-0.60719 0.64277,-0.60232 2.66904,0.36473 1.12951,0.53906 2.65819,1.07678 3.39707,1.19493 1.18822,0.19001 1.34343,0.14344 1.34343,-0.40303 0,-0.33982 -0.45674,-1.23892 -1.01497,-1.998 -1.10521,-1.50286 -0.99789,-2.33099 0.32765,-2.5282 0.80304,-0.11947 0.83614,-0.31407 0.19714,-1.1589 -0.86952,-1.14961 -0.58682,-2.40664 0.84825,-3.77179 1.19355,-1.13539 1.30026,-1.36362 1.12952,-2.41577 -0.19455,-1.19889 0.40598,-2.31128 1.24777,-2.31128 0.50673,0 0.78464,-0.7321 0.78464,-2.06699 0,-0.58006 0.231,-1.24636 0.51333,-1.48068 1.07129,-0.88909 1.16661,-1.90257 0.29697,-3.15746 -0.44567,-0.6431 -0.8103,-1.468444 -0.8103,-1.8341 0,-0.365656 -0.43869,-1.093726 -0.97486,-1.617933 -0.84722,-0.828319 -0.99935,-1.245331 -1.16198,-3.185153 -0.14257,-1.700503 -0.0709,-2.416092 0.30097,-3.004867 1.1215,-1.775697 0.83802,-6.859729 -0.48051,-8.617583 -0.22199,-0.295957 -1.44748,-1.918219 -2.72331,-3.605027 -2.63315,-3.481344 -3.08406,-4.430216 -2.80704,-5.906877 0.18571,-0.989906 0.14644,-1.04333 -0.76677,-1.04333 -1.44412,0 -4.33847,-1.189156 -6.02184,-2.474103 -0.89613,-0.684031 -1.54273,-0.99168 -1.61686,-0.76929 -0.0679,0.203828 -1.07556,1.178259 -2.23915,2.165402 l -2.11562,1.794806 -0.7709,-0.896221 c -0.61081,-0.710109 -0.73758,-1.144588 -0.61047,-2.09223 l 0.16042,-1.19601 -1.21556,0.428874 c -0.66856,0.235881 -2.27328,0.893912 -3.56604,1.462291 -3.56006,1.565223 -6.07933,2.156975 -13.71048,3.220459 -2.68176,0.373732 -7.53268,0.190459 -9.35192,-0.353325 -3.37232,-1.008009 -5.38396,-3.896632 -5.62606,-8.078759 -0.14115,-2.438314 -0.0991,-2.633036 1.06537,-4.927125 1.01276,-1.995294 1.5597,-2.648674 3.32247,-3.969055 2.95771,-2.215435 4.72545,-3.11328 7.55393,-3.836684 2.14602,-0.548861 3.11592,-0.602429 7.78385,-0.429909 5.01237,0.18525 5.37909,0.158815 6.11107,-0.440514 l 0.77872,-0.63759 -1.17193,-1.430181 c -1.37333,-1.675968 -2.1455,-3.375633 -2.1455,-4.722558 0,-1.066463 0.22197,-1.047878 -3.68,-0.308109 -2.63699,0.499943 -8.42191,2.507243 -11.54241,4.00508 -3.31324,1.59036 -4.65095,1.762185 -5.39945,0.693549 -1.32947,-1.89809 0.5279,-7.968509 3.58781,-11.725954 1.80388,-2.215089 4.05825,-3.454873 8.17083,-4.493518 4.40503,-1.112504 5.91815,-1.853782 7.96778,-3.903415 2.03806,-2.03806 2.89544,-3.973292 2.89544,-6.53546 0,-2.075729 -0.64318,-3.891564 -1.32558,-3.74238 -0.22157,0.04844 -0.835,-0.275561 -1.36319,-0.72 -1.11263,-0.936215 -1.99458,-0.994889 -4.43123,-0.294795 -0.968,0.278124 -3.15459,0.600415 -4.8591,0.716202 l -3.09909,0.210522 0.90605,1.107629 c 0.77395,0.946147 1.07955,1.095945 2.09615,1.02748 2.46825,-0.166227 3.47958,1.747524 2.15599,4.079782 -1.01914,1.795789 -2.44581,1.690313 -3.54304,-0.261944 -0.38333,-0.682047 -0.7028,-1.43648 -0.70993,-1.676517 -0.007,-0.240036 -0.62336,-1.223202 -1.36939,-2.184812 -1.2992,-1.674627 -2.51013,-2.7407 -7.58304,-6.675927 -0.44296,-0.343624 -1.73896,-1.018317 -2.88,-1.499317 -2.89405,-1.219981 -5.69758,-1.018131 -9.7546,0.702315 C 208.09308,13.812678 207.58465,13.92 204.9341,13.92 h -2.90591 l -3.46332,-2.08 c -2.12377,-1.27549 -4.29046,-2.9011584 -5.60184,-4.2030438 -1.75389,-1.7412103 -2.37812,-2.1584668 -3.47077,-2.32 -0.73274,-0.1083259 -1.9375,-0.2865551 -2.67725,-0.3960649 -1.30554,-0.1932674 -1.33136,-0.1799928 -0.88,0.4524839 0.25575,0.3583759 2.39266,3.4761715 4.74869,6.9284348 2.35604,3.452263 4.69604,6.570451 5.2,6.929306 2.28698,1.62847 0.29964,3.402966 -3.3745,3.0131 -3.2919,-0.349306 -8.14318,-1.969186 -10.13534,-3.384267 -1.5269,-1.084598 -4.23757,-1.959108 -6.08015,-1.961566 -1.72117,-0.0023 -5.0937,1.098424 -5.0937,1.662475 0,0.133125 0.63522,0.762567 1.41161,1.39876 1.58347,1.29753 3.06615,3.691189 3.07275,4.960687 0.008,1.508247 0.38133,2.297233 1.31631,2.780728 0.69982,0.361891 0.91933,0.702659 0.91933,1.427185 V 30.08 h 2.04629 c 2.51881,0 6.07498,1.052185 7.13339,2.110597 0.42922,0.429214 1.14746,1.605917 1.59609,2.614896 0.7342,1.651226 0.79964,2.12224 0.655,4.714507 -0.16041,2.874778 -1.19487,6.173438 -2.6163,8.342812 -0.6719,1.02546 -2.34554,2.05444 -3.34407,2.055992 -0.73703,0.0011 -0.74621,0.02704 -0.21687,0.611956 0.83125,0.918522 2.2806,1.407831 3.49513,1.179983 1.46495,-0.274826 3.91877,-1.94961 4.83757,-3.301739 l 0.75366,-1.109113 0.67005,0.670055 c 0.59541,0.59541 0.67006,1.046233 0.67006,4.046884 0,4.908318 -0.63305,7.297096 -2.78015,10.490795 -2.90335,4.318587 -4.84523,5.633067 -8.33985,5.645347 -2.21531,0.0078 -2.52449,0.374049 -1.28,1.516348 1.0371,0.951949 3.77597,2.566333 4.77584,2.815048 1.30082,0.323574 3.37126,2.264543 3.7994,3.561811 0.29215,0.885245 0.29419,1.447221 0.009,2.400159 -0.76462,2.552068 -3.25457,4.55888 -9.94392,8.014459 -5.32547,2.75102 -6.44123,3.487333 -7.75776,5.119502 -2.08842,2.589124 -2.20742,2.88278 -1.86956,4.613499 0.76861,3.937292 0.77065,3.896332 -0.2198,4.408512 -1.36796,0.7074 -1.80539,0.25569 -1.55851,-1.609375 0.17295,-1.306595 0.0607,-1.857502 -0.70767,-3.472935 -1.19753,-2.517735 -3.25202,-5.072847 -4.93522,-6.137808 -0.74332,-0.470294 -3.15149,-1.784922 -5.35149,-2.921395 -8.3504,-4.313641 -10.94514,-7.005363 -9.95113,-10.323081 0.40827,-1.362675 2.44435,-3.312331 3.81529,-3.653348 0.99987,-0.248715 3.73874,-1.863099 4.77584,-2.815048 1.24449,-1.142299 0.93531,-1.508564 -1.28,-1.516348 -3.49462,-0.01228 -5.4365,-1.32676 -8.33985,-5.645347 -2.20406,-3.278428 -2.78015,-5.543989 -2.78015,-10.933473 0,-3.681245 0.0258,-3.826261 0.71332,-4.006044 0.48348,-0.126434 0.80981,-0.0096 1.0128,0.362678 0.92215,1.691108 4.2356,3.886388 5.88978,3.902186 0.86564,0.0083 2.33714,-0.701629 2.92659,-1.411872 0.35756,-0.430826 0.30941,-0.501268 -0.3433,-0.502296 -0.98936,-0.0016 -2.66446,-1.034657 -3.33366,-2.055992 -1.42143,-2.169374 -2.45589,-5.468034 -2.6163,-8.342812 -0.14464,-2.592267 -0.0792,-3.063281 0.655,-4.714507 0.44863,-1.008979 1.16687,-2.185682 1.59609,-2.614896 C 151.23873,31.132185 154.7949,30.08 157.31371,30.08 H 159.36 v -0.951782 c 0,-0.724526 0.21951,-1.065294 0.91933,-1.427185 0.93498,-0.483495 1.30846,-1.272481 1.31631,-2.780728 0.007,-1.269498 1.48928,-3.663157 3.07275,-4.960687 0.77639,-0.636193 1.41161,-1.265635 1.41161,-1.39876 0,-0.564051 -3.37253,-1.664771 -5.0937,-1.662475 -1.84258,0.0025 -4.55325,0.876968 -6.08015,1.961566 -1.99216,1.415081 -6.84344,3.034961 -10.13534,3.384267 -3.67414,0.389866 -5.66148,-1.38463 -3.3745,-3.0131 0.50396,-0.358855 2.84396,-3.477043 5.2,-6.929306 2.35603,-3.4522633 4.49294,-6.5700589 4.74869,-6.9284348 0.45136,-0.6324767 0.42554,-0.6457513 -0.88,-0.4524839 -0.73975,0.1095098 -1.94451,0.287739 -2.67725,0.3960649 -1.09265,0.1615332 -1.71688,0.5787897 -3.47077,2.32 C 143.0056,8.9388416 140.83891,10.56451 138.71514,11.84 l -3.46332,2.08 h -2.90591 c -2.65055,0 -3.15898,-0.107322 -5.78591,-1.221311 -4.05702,-1.720446 -6.86055,-1.922296 -9.7546,-0.702315 -1.14104,0.481 -2.43704,1.155693 -2.88,1.499317 -5.07291,3.935227 -6.28384,5.0013 -7.58304,6.675927 -0.74603,0.96161 -1.36225,1.944776 -1.36939,2.184812 -0.007,0.240037 -0.3266,0.99447 -0.70993,1.676517 -1.09723,1.952257 -2.5239,2.057733 -3.54304,0.261944 -1.323591,-2.332258 -0.31226,-4.246009 2.15599,-4.079782 1.0166,0.06846 1.3222,-0.08133 2.09615,-1.02748 L 105.87819,18.08 102.7791,17.869478 c -1.70451,-0.115787 -3.891097,-0.438078 -4.859097,-0.716202 -2.43665,-0.700094 -3.318605,-0.64142 -4.431234,0.294795 -0.528186,0.444439 -1.141622,0.768439 -1.363192,0.72 -0.682394,-0.149184 -1.325574,1.666651 -1.325574,3.74238 0,2.562168 0.857374,4.4974 2.895435,6.53546 2.049633,2.049633 3.562754,2.790911 7.967782,3.903415 4.11258,1.038645 6.36695,2.278429 8.17083,4.493518 3.05991,3.757445 4.91728,9.827864 3.58781,11.725954 -0.7485,1.068636 -2.08621,0.896811 -5.39945,-0.693549 -3.1205,-1.497837 -8.905419,-3.505137 -11.542407,-4.00508 -3.901977,-0.739769 -3.68,-0.758354 -3.68,0.308109 0,1.346925 -0.772174,3.04659 -2.145504,4.722558 l -1.171926,1.430181 0.778715,0.63759 c 0.731985,0.599329 1.098702,0.625764 6.111074,0.440514 7.605198,-0.281077 10.247848,0.454045 15.337778,4.266593 1.76277,1.320381 2.30971,1.973761 3.32247,3.969055 1.16442,2.294089 1.20652,2.488811 1.06537,4.927125 -0.2421,4.182127 -2.25374,7.07075 -5.62606,8.078759 -1.81924,0.543784 -6.67016,0.727057 -9.35192,0.353325 -7.631145,-1.063484 -10.150416,-1.655236 -13.710477,-3.220459 -1.292764,-0.568379 -2.897481,-1.22641 -3.566039,-1.462291 l -1.215559,-0.428874 0.160418,1.19601 c 0.127106,0.947642 3.32e-4,1.382121 -0.610478,2.09223 l -0.770897,0.896221 -2.115615,-1.794806 c -1.163589,-0.987143 -2.171206,-1.961574 -2.239148,-2.165402 -0.07413,-0.22239 -0.720735,0.08526 -1.616864,0.76929 C 73.751968,70.170844 70.857622,71.36 69.413498,71.36 c -0.913212,0 -0.952474,0.05342 -0.766766,1.04333 0.277023,1.476661 -0.173896,2.425533 -2.807038,5.906877 -1.275831,1.686808 -2.501321,3.30907 -2.723313,3.605027 -1.278306,1.704227 -1.606659,6.828904 -0.545771,8.517982 0.716607,1.140936 0.889427,2.90723 0.43503,4.446178 C 62.771692,95.671727 62.473327,96.32 62.342607,96.32 c -0.473441,0 -1.542605,1.416079 -1.542605,2.043139 0,0.353353 -0.364637,1.168631 -0.810304,1.811731 -0.86964,1.25489 -0.774319,2.26837 0.296968,3.15746 0.282334,0.23432 0.513336,0.90062 0.513336,1.48068 0,1.33489 0.27791,2.06699 0.78464,2.06699 0.918954,0 1.483397,1.15197 1.257286,2.56598 -0.153284,0.95859 -0.114031,1.30691 0.130263,1.15593 1.058576,-0.65424 2.663427,4.05047 1.707695,5.00621 -0.537039,0.53703 -0.438919,0.81561 0.327435,0.92962 1.32554,0.19721 1.432862,1.02534 0.327645,2.5282 -0.55823,0.75908 -1.014964,1.65818 -1.014964,1.998 0,0.54647 0.155208,0.59304 1.343425,0.40303 0.738884,-0.11815 2.267566,-0.65587 3.397072,-1.19493 2.026272,-0.96705 2.06185,-0.97192 2.669038,-0.36473 0.340851,0.34085 0.525,0.82001 0.412776,1.07404 -0.111438,0.25226 -1.305046,1.33288 -2.652462,2.40139 -2.268956,1.79929 -3.876164,3.9372 -3.886543,5.16988 -0.0059,0.70148 1.532787,1.46016 2.549111,1.2569 1.380386,-0.27608 3.916128,-2.17097 6.331379,-4.73126 1.798097,-1.90608 3.40196,-3.15826 4.045272,-3.15826 0.08847,0 0.289743,0.468 0.447279,1.04 0.398886,1.44832 -0.03717,4.63588 -0.852934,6.2349 -0.686341,1.34534 -0.916788,3.42309 -0.414117,3.73376 0.148112,0.0915 0.75236,-0.33196 1.342773,-0.94111 0.590413,-0.60915 1.315598,-1.10755 1.611522,-1.10755 1.147158,0 1.350542,0.80946 1.187314,4.72545 -0.126295,3.02992 -0.312433,4.13957 -0.964446,5.74945 l -0.807946,1.9949 0.949112,-0.5549 c 1.024329,-0.59888 5.101386,-4.46007 7.174771,-6.7949 1.733149,-1.95169 2.187759,-2.28509 2.797045,-2.05129 0.891694,0.34218 0.626016,2.91411 -0.788411,7.63231 -0.727217,2.42583 -1.214019,4.60921 -1.095325,4.9127 0.182964,0.46783 0.276061,0.42838 0.648242,-0.27465 0.239027,-0.45151 1.229257,-1.34856 2.200511,-1.99343 1.893904,-1.25749 1.848151,-1.16593 2.893923,-5.79107 0.274264,-1.21299 0.660959,-2.40099 0.859323,-2.64 0.510085,-0.61462 1.803761,-0.53945 2.158878,0.12543 0.425022,0.79577 3.522536,8.29115 4.106666,9.93734 0.2688,0.75754 0.53662,1.32946 0.59515,1.27093 0.0585,-0.0585 -0.0439,-2.0655 -0.22751,-4.45994 -0.36727,-4.78822 -0.3555,-4.84199 1.87741,-8.57522 0.69081,-1.15497 0.87999,-1.9325 0.99271,-4.08 0.0766,-1.45921 0.21785,-2.65311 0.31392,-2.65311 0.0961,0 0.43802,0.23832 0.75988,0.5296 1.35476,1.22604 0.42577,6.52628 -1.55687,8.88252 l -0.8295,0.9858 0.26348,4.32104 c 0.14491,2.37657 0.27351,5.83304 0.28578,7.68104 l 0.0223,3.36 h -0.78657 c -0.71518,0 -0.93617,-0.39207 -2.43494,-4.32 -1.895762,-4.96837 -3.804575,-9.66606 -4.253719,-10.46864 -0.252065,-0.45041 -0.348442,-0.31761 -0.521075,0.71801 -0.116495,0.69884 -0.454674,2.12606 -0.75151,3.17158 -0.487896,1.71849 -0.70828,2.01699 -2.295942,3.10977 -1.005933,0.69238 -2.029995,1.72585 -2.397016,2.41905 -0.832659,1.57264 -2.023572,1.78874 -3.002099,0.54475 -0.963901,-1.22541 -0.858064,-2.88876 0.446328,-7.01452 0.612081,-1.936 1.113701,-3.64891 1.11471,-3.80647 10e-4,-0.15756 -1.114164,0.85987 -2.478164,2.26096 -1.997168,2.05148 -6.863453,5.99508 -8.962864,7.26343 -0.631665,0.38162 -1.677137,-0.0976 -1.677137,-0.76869 0,-0.3342 0.577945,-1.50183 1.284322,-2.59473 1.62827,-2.51925 2.235678,-4.57159 2.235678,-7.554 v -2.36335 l -1.370667,1.12316 c -0.8589,0.7038 -1.522195,1.02951 -1.776503,0.87234 -0.57833,-0.35743 -1.357593,-3.97566 -1.124831,-5.22276 0.107776,-0.57744 0.465259,-1.4992 0.794407,-2.04835 0.329148,-0.54916 0.689691,-1.70116 0.801206,-2.56 l 0.202754,-1.56154 -1.856624,2.02938 c -4.54574,4.96873 -8.432016,6.44854 -10.915469,4.15636 l -0.685728,-0.63291 -0.761264,1.06359 c -3.255897,4.5489 -8.839389,11.31107 -10.522313,12.74358 -0.310149,0.264 -1.253438,1.56 -2.096198,2.88 -0.84276,1.32 -2.405174,3.48 -3.472032,4.8 -3.568713,4.41549 -4.549809,5.89775 -6.354168,9.6 -2.409718,4.94435 -4.339076,7.09592 -9.679635,10.79446 -4.897126,3.39146 -7.321064,4.6733 -10.814227,5.71885 -5.549063,1.66091 -9.558873,4.91129 -11.0825039,8.98356 -0.3685983,0.98516 -0.6225743,1.93402 -0.5643912,2.10857 0.058183,0.17455 0.9635771,-0.49689 2.0119861,-1.49209 2.124915,-2.01706 4.635221,-3.33487 7.9862,-4.19244 2.519997,-0.6449 3.494177,-1.07828 4.608963,-2.05038 1.019154,-0.8887 1.501471,-0.84565 2.18366,0.19489 0.599634,0.91462 0.70644,4.42492 0.387468,12.73458 -0.121405,3.16277 -0.06201,3.66887 0.585226,4.98688 0.396189,0.80678 1.058717,1.78476 1.472284,2.17329 l 0.751941,0.70641 -0.154748,-3.77329 c -0.189472,-4.61999 0.191148,-6.63184 1.900954,-10.04792 1.422337,-2.84175 4.353814,-6.23706 6.646902,-7.69861 1.617822,-1.03116 3.824216,-1.23784 4.501571,-0.42167 0.678656,0.81773 0.18168,4.17279 -1.255364,8.47491 -1.179033,3.5297 -1.975998,5.1843 -4.612756,9.57666 -0.798921,1.33085 -0.510618,1.18808 2.478201,-1.22724 3.897778,-3.14987 6.479194,-6.85402 7.49124,-10.74942 0.182903,-0.704 0.566501,-3.368 0.85244,-5.92 0.661846,-5.90697 1.392408,-7.99184 4.393523,-12.5382 1.31494,-1.99199 2.64392,-4.11192 2.953288,-4.71096 0.640705,-1.24062 1.439196,-5.73033 1.221588,-6.86868 -0.115818,-0.60586 0.02188,-0.79995 0.685764,-0.96658 0.500699,-0.12566 1.116135,-0.0302 1.549268,0.24021 1.533895,0.95779 4.09219,0.91347 7.482606,-0.12962 6.031227,-1.85556 8.589716,-2.27945 11.419565,-1.89199 1.3842,0.18953 2.872532,0.47987 3.307404,0.6452 1.276374,0.48528 1.387491,0.37884 1.180558,-1.1309 -0.121322,-0.88514 -0.03753,-1.81461 0.219523,-2.4352 0.411589,-0.99366 0.433554,-1.00176 2.202334,-0.81173 0.982629,0.10557 2.955493,0.28451 4.384141,0.39765 2.871448,0.22741 2.923376,0.20236 4.393601,-2.1192 1.471542,-2.32364 4.442841,-1.06407 5.321802,2.25597 0.886955,3.35024 2.043373,6.64369 2.803402,7.98403 2.56785,4.52847 8.64429,10.35258 16.86013,16.16 3.65357,2.58254 4.74938,3.56184 6.36985,5.6926 1.9034,2.50277 3.06509,4.64593 4.80653,8.8674 1.74818,4.23777 2.29204,7.36546 2.25355,12.96 -0.0325,4.72132 -0.057,4.8813 -1.49783,9.76 -0.80564,2.728 -2.03367,6.544 -2.72894,8.48 -3.0393,8.46298 -4.53009,12.83445 -4.53469,13.29713 -0.003,0.27343 -0.51495,2.00143 -1.13829,3.84 -1.57493,4.64536 -2.38612,9.46038 -2.38915,14.18157 -0.003,4.19961 -0.55579,7.10316 -2.01938,10.6013 -1.06536,2.54631 -1.69005,6.41947 -1.22481,7.59389 0.45005,1.13604 1.13296,0.87659 1.74968,-0.66473 0.45967,-1.14883 3.38846,-4.20916 4.02824,-4.20916 1.54002,0 3.02613,2.02701 3.40182,4.64 0.22896,1.59244 0.8503,3.16361 1.38073,3.49144 0.15308,0.0946 0.51241,-0.77651 0.7985,-1.93583 0.67654,-2.74156 1.65154,-4.34325 2.56458,-4.21304 0.55249,0.0788 0.71373,0.37282 0.84313,1.53743 l 0.16,1.44 1.01883,-1.79764 c 0.56036,-0.9887 1.24436,-1.88418 1.52,-1.98996 0.73587,-0.28237 1.3734,0.0574 1.57836,0.84115 0.2281,0.87227 -0.32632,4.86138 -0.79821,5.7431 -0.45041,0.84159 -0.16322,3.40016 0.5327,4.74593 0.4687,0.90636 0.47342,1.06947 0.0434,1.49952 -0.43005,0.43006 -0.60329,0.40791 -1.59271,-0.20358 -3.07204,-1.89863 -2.79089,2.18003 0.33953,4.92554 1.30349,1.14322 4.37163,2.71594 5.29838,2.71594 0.44587,0 1.2425,-0.36337 1.7703,-0.80749 1.13282,-0.9532 1.64946,-2.89954 1.64946,-6.21403 0,-2.99253 0.86366,-3.29177 2.3948,-0.82975 l 0.59002,0.94872 2.2965,-2.5065 c 1.90625,-2.08057 2.41394,-2.46924 2.98759,-2.28717 0.54189,0.17199 0.69217,0.47376 0.69609,1.39778 0.003,0.64814 0.21362,2.04244 0.4686,3.09844 0.25499,1.056 0.46874,2.30425 0.47501,2.7739 0.008,0.61833 0.30967,1.03825 1.09259,1.52212 2.68122,1.65708 4.73277,5.01601 4.17753,6.83971 -0.8931,2.9334 -3.22832,2.26201 -7.54936,-2.17048 -1.46121,-1.49889 -2.77763,-2.72525 -2.9254,-2.72525 -0.79372,0 -3.11446,2.05962 -3.71232,3.29463 -2.19885,4.54222 0.76778,7.96956 7.38934,8.53689 3.33678,0.28588 4.39533,0.69853 5.90319,2.30118 1.51518,1.61043 2.16966,3.07904 1.76649,3.9639 -0.57077,1.25269 -1.54313,1.28726 -3.20223,0.11384 -0.81864,-0.579 -1.91177,-1.45721 -2.42918,-1.95158 -1.15017,-1.09896 -1.30791,-1.10733 -1.96509,-0.10434 -0.63619,0.97095 -0.33871,2.02954 1.19828,4.26394 3.26405,4.74516 3.82615,5.69582 4.26942,7.2206 0.7648,2.63083 1.01926,6.90903 0.78278,13.16094 -0.22927,6.06122 -0.38922,6.78312 -1.95602,8.82765 -3.11944,4.0706 -13.79259,5.42751 -19.5587,2.48656 -1.83069,-0.93373 -5.19826,-4.38085 -7.22184,-7.39244 -2.25013,-3.34876 -2.57737,-3.53202 -6.06008,-3.39388 -2.76775,0.10979 -2.87235,0.1434 -5.04716,1.62199 -2.29703,1.56166 -3.47159,2.80901 -4.45615,4.73227 -0.55944,1.09283 -0.55874,1.10613 0.0315,0.59433 0.9367,-0.81219 3.63878,-2.08412 5.70118,-2.68368 3.36738,-0.97892 6.33648,-0.10792 8.42259,2.47082 1.60907,1.98904 1.29378,3.45638 -0.74268,3.45638 -0.55807,0 -2.50927,-0.43111 -4.336,-0.95802 -1.82672,-0.52691 -3.7221,-0.95891 -4.21195,-0.96 -1.10327,-0.002 -3.56891,1.26205 -4.93534,2.53108 -0.85637,0.79533 -2.65403,3.73536 -2.65403,4.3406 0,0.0962 0.54,-0.0632 1.2,-0.35429 3.04304,-1.34204 5.45942,-2.01262 7.28,-2.0203 2.70618,-0.0114 6.12301,0.96039 9.69648,2.75787 2.66548,1.34075 3.33292,1.54583 5.09075,1.56421 1.11269,0.0116 2.17524,0.17332 2.36123,0.35931 0.62927,0.62927 0.19089,2.39219 -0.77284,3.1079 -0.79197,0.58815 -1.34884,0.67164 -4.48,0.67164 -3.1475,0 -3.95876,-0.12304 -6.77562,-1.02759 -6.22195,-1.998 -8.52211,-2.65241 -9.32288,-2.65241 -0.90738,0 -4.93821,1.67987 -6.25219,2.60564 -0.8127,0.57259 -2.14636,3.29959 -1.78864,3.65731 0.0928,0.0928 0.71029,-0.19887 1.37226,-0.64809 1.66853,-1.1323 3.49622,-1.64003 4.55863,-1.2664 1.16057,0.40814 2.23842,2.10719 2.48363,3.91498 0.42681,3.14668 0.65642,3.26661 4.1012,2.14212 2.63441,-0.85996 7.84954,-1.3841 9.91542,-0.99654 0.77503,0.1454 1.78427,0.78614 3.00934,1.91056 2.44725,2.24618 4.21417,3.40111 5.19752,3.39729 0.44314,-0.002 1.52834,-0.33963 2.41155,-0.75092 z m 28.27943,-92.83203 c -5.97096,-6.31319 -6.84686,-8.28117 -6.84253,-15.37392 0.003,-4.15398 0.0756,-4.70123 1.0041,-7.52 0.96127,-2.91825 3.20702,-8.03614 5.75712,-13.12 1.08361,-2.16028 1.20546,-2.65571 1.21995,-4.96 l 0.0161,-2.56 h 1.12 1.12 l 0.0161,2.56 c 0.0145,2.30429 0.13634,2.79972 1.21995,4.96 2.49127,4.96657 4.78665,10.17571 5.71076,12.96 0.78812,2.37454 0.9847,3.58315 1.12008,6.88647 0.28733,7.01058 -0.85422,9.75788 -6.51771,15.6858 -1.33875,1.40125 -2.55913,2.54773 -2.71196,2.54773 -0.15282,0 -1.1572,-0.92974 -2.23195,-2.06608 z m 4.94685,-3.06491 c 3.91025,-4.15662 5.30862,-8.02247 4.90823,-13.569 -0.1953,-2.70547 -1.465,-7.27128 -2.94218,-10.58001 -1.91602,-4.29166 -4.37157,-9.12 -4.63817,-9.12 -0.26659,0 -2.72214,4.82834 -4.63816,9.12 -3.38833,7.5895 -3.88738,14.49074 -1.41652,19.58901 0.87968,1.8151 5.39323,7.13099 6.05468,7.13099 0.13944,0 1.34189,-1.15694 2.67212,-2.57099 z m -3.52741,-68.38973 c -0.20641,-0.13559 -0.60105,-1.21996 -0.87698,-2.40972 -0.66079,-2.84928 -1.51658,-4.46118 -3.45888,-6.51488 -1.8599,-1.96656 -3.76827,-2.99468 -5.55868,-2.99468 -2.69452,0 -3.43407,1.68864 -1.69899,3.87936 1.1131,1.40541 1.57073,3.50719 0.93137,4.27758 -0.22082,0.26607 -0.9153,0.48306 -1.54603,0.48306 -0.97408,0 -1.41403,-0.27653 -2.94555,-1.85141 -1.88794,-1.94138 -2.53968,-3.48101 -2.56114,-6.05029 -0.0131,-1.57012 -0.4479,-2.09925 -2.30528,-2.80553 -0.83351,-0.31694 -1.66399,-0.75522 -1.84553,-0.97395 -0.53935,-0.64988 -0.0116,-1.40747 1.12971,-1.62157 0.58682,-0.11009 1.14034,-0.39144 1.23006,-0.62523 0.14833,-0.38654 -0.97418,-5.08815 -2.20154,-9.22112 -0.7808,-2.62923 -1.52093,-7.91499 -1.31682,-9.40419 0.26333,-1.9212 1.18901,-3.57737 2.86079,-5.11836 2.36787,-2.18263 3.79681,-2.75309 6.42514,-2.56503 1.99668,0.14286 2.3361,0.2669 3.11461,1.1382 1.1041,1.2357 1.42309,3.22366 1.00273,6.24898 -0.17497,1.25923 -0.27724,2.33764 -0.22726,2.39648 0.05,0.0588 0.89472,-1.25888 1.87722,-2.92828 2.08667,-3.54556 2.34356,-5.27224 1.06634,-7.16752 -1.30375,-1.93465 -5.52516,-3.37162 -8.34876,-2.84191 -0.60709,0.1139 -1.64278,0.6354 -2.30152,1.1589 -1.29683,1.03059 -2.61852,1.24183 -2.9162,0.46608 -0.38799,-1.01109 0.71271,-2.47414 4.61653,-6.13629 4.7699,-4.4746 8.75412,-9.61903 10.65959,-13.76368 0.71162,-1.54785 1.92662,-4.11028 2.70001,-5.69428 1.38711,-2.84099 2.26897,-5.48467 2.45508,-7.36 0.0779,-0.78526 0.24089,-0.96 0.89527,-0.96 0.65439,0 0.81735,0.17474 0.89528,0.96 0.18611,1.87533 1.06797,4.51901 2.45508,7.36 0.77339,1.584 1.98614,4.14172 2.69499,5.68382 1.91083,4.15697 5.19554,8.39755 10.62109,13.7119 4.69379,4.59758 5.32517,5.50812 4.36943,6.30131 -0.29324,0.24338 -1.0176,0.0299 -2.64,-0.778 -2.06895,-1.03028 -2.4006,-1.10126 -4.44257,-0.95092 -4.2751,0.31478 -6.91329,2.39205 -6.91329,5.44341 0,1.28379 0.28933,2.02354 1.78634,4.56718 0.9825,1.6694 1.82724,2.98712 1.87722,2.92828 0.05,-0.0588 -0.0523,-1.13725 -0.22726,-2.39648 -0.42036,-3.02532 -0.10137,-5.01328 1.00273,-6.24898 0.77851,-0.8713 1.11793,-0.99534 3.11461,-1.1382 2.62833,-0.18806 4.05727,0.3824 6.42514,2.56503 1.67178,1.54099 2.59746,3.19716 2.86079,5.11836 0.20411,1.4892 -0.53602,6.77496 -1.31682,9.40419 -1.22736,4.13297 -2.34987,8.83458 -2.20154,9.22112 0.0897,0.23379 0.64324,0.51514 1.23006,0.62523 1.14127,0.2141 1.66906,0.97169 1.12971,1.62157 -0.18154,0.21873 -1.01202,0.65701 -1.84553,0.97395 -1.85738,0.70628 -2.29216,1.23541 -2.30528,2.80553 -0.0215,2.56928 -0.6732,4.10891 -2.56114,6.05029 -1.53152,1.57488 -1.97147,1.85141 -2.94555,1.85141 -0.63073,0 -1.32521,-0.21699 -1.54603,-0.48306 -0.63936,-0.77039 -0.18173,-2.87217 0.93137,-4.27758 1.72176,-2.1739 0.99624,-3.87936 -1.6503,-3.87936 -1.74256,0 -3.18796,0.69998 -5.05869,2.44983 -2.12952,1.99192 -3.18286,3.84043 -3.98162,6.98736 -0.58075,2.28803 -0.73561,2.5717 -1.44436,2.64571 -0.43662,0.0456 -0.96274,-0.028 -1.16915,-0.16362 z m 1.94093,-6.19743 c 1.02369,-2.23022 4.19155,-5.61928 6.21963,-6.65392 2.63208,-1.34279 5.59401,-1.14538 7.11558,0.47425 1.04754,1.11507 1.07635,3.23687 0.0613,4.51435 -0.97457,1.22651 -1.76544,2.68682 -1.56414,2.88812 0.33628,0.33628 2.14497,-1.26985 2.92078,-2.59368 0.5776,-0.9856 0.80124,-1.83269 0.80124,-3.03498 0,-1.89182 0.56165,-3.1962 1.79349,-4.16517 0.77996,-0.61352 0.81521,-0.74069 0.44978,-1.62292 -0.47535,-1.14759 -0.35458,-1.89826 1.26264,-7.8479 1.97104,-7.25137 2.39385,-10.95296 1.49063,-13.05028 -0.58454,-1.35733 -2.93346,-3.59329 -4.42849,-4.2155 -0.99784,-0.41529 -1.44077,-0.43335 -2.72,-0.11089 -0.84043,0.21185 -1.70805,0.5179 -1.92805,0.68011 -0.56873,0.41932 -0.5138,4.86559 0.0841,6.8057 0.68598,2.22606 2.07592,9.26232 2.07592,10.50896 0,2.01098 -1.53005,5.14196 -2.97564,6.08915 -3.42618,2.24492 -5.3825,-0.71351 -3.58886,-5.42725 1.17281,-3.08219 1.83822,-6.16072 1.65134,-7.63991 -0.0889,-0.70373 -0.84072,-2.36427 -1.73857,-3.84 -2.51996,-4.14188 -2.70063,-4.59774 -2.68803,-6.78236 0.0221,-3.83829 2.13142,-5.91085 7.32619,-7.19865 1.26311,-0.31313 2.03341,-0.32914 3.18273,-0.0661 l 1.5163,0.34698 -3.24093,-3.08996 c -4.49998,-4.29037 -8.01269,-9.04292 -9.9707,-13.48996 -0.5812,-1.32 -1.69225,-3.696 -2.46901,-5.28 -0.77676,-1.584 -1.41062,-3.06 -1.40856,-3.28 0.002,-0.22 -0.14027,-0.4 -0.31627,-0.4 -0.176,0 -0.31831,0.18 -0.31626,0.4 0.002,0.22 -0.6318,1.696 -1.40856,3.28 -0.77676,1.584 -1.88781,3.96 -2.46901,5.28 -1.95801,4.44704 -5.47072,9.19959 -9.9707,13.48996 l -3.24093,3.08996 1.5163,-0.34698 c 1.14932,-0.263 1.91962,-0.24699 3.18273,0.0661 5.19477,1.2878 7.30405,3.36036 7.32619,7.19865 0.0126,2.18462 -0.16807,2.64048 -2.68803,6.78236 -0.89785,1.47573 -1.64966,3.13627 -1.73857,3.84 -0.18688,1.47919 0.47853,4.55772 1.65134,7.63991 1.79364,4.71374 -0.16268,7.67217 -3.58886,5.42725 -1.44559,-0.94719 -2.97564,-4.07817 -2.97564,-6.08915 0,-1.24664 1.38994,-8.2829 2.07592,-10.50896 0.59787,-1.94011 0.65281,-6.38638 0.0841,-6.8057 -0.22,-0.16221 -1.08762,-0.46826 -1.92805,-0.68011 -1.27923,-0.32246 -1.72216,-0.3044 -2.72,0.11089 -1.49503,0.62221 -3.84395,2.85817 -4.42849,4.2155 -0.90322,2.09732 -0.48041,5.79891 1.49063,13.05028 1.61722,5.94964 1.73799,6.70031 1.26264,7.8479 -0.36543,0.88223 -0.33018,1.0094 0.44978,1.62292 1.23184,0.96897 1.79349,2.27335 1.79349,4.16517 0,1.20229 0.22363,2.04938 0.80124,3.03498 0.77581,1.32383 2.5845,2.92996 2.92078,2.59368 0.2013,-0.2013 -0.58957,-1.66161 -1.56414,-2.88812 -1.01507,-1.27748 -0.98626,-3.39928 0.0613,-4.51435 1.52157,-1.61963 4.4835,-1.81704 7.11558,-0.47425 2.02808,1.03464 5.19594,4.4237 6.21963,6.65392 0.49435,1.07698 0.98288,1.95815 1.08563,1.95815 0.10276,0 0.59129,-0.88117 1.08564,-1.95815 z m -10.21422,-13.05479 c 0.10699,-0.33711 -0.1076,-1.45311 -0.47688,-2.48 -1.23279,-3.42816 -1.59707,-4.74366 -1.84767,-6.67238 l -0.24877,-1.91468 -0.54905,2.14576 c -0.69713,2.72451 -0.71056,5.72636 -0.0316,7.07013 1.1285,2.23355 2.73361,3.17564 3.15398,1.85117 z M 179.74679,174 c 1.79113,-1.95885 2.16376,-4.82951 1.14417,-8.81424 l -0.54905,-2.14576 -0.24877,1.91468 c -0.2506,1.92872 -0.61488,3.24422 -1.84767,6.67238 -0.36928,1.02689 -0.58387,2.14289 -0.47688,2.48 0.26142,0.82364 1.17227,0.77434 1.9782,-0.10706 z m -47.68762,171.54271 c 0.86272,-0.36132 0.81956,-0.38603 -1.02001,-0.58405 -1.39063,-0.14969 -2.72902,-0.62417 -4.84874,-1.71897 -2.80912,-1.45085 -7.16828,-2.77812 -9.01069,-2.74356 -0.47285,0.009 -1.86773,0.3545 -3.09973,0.76806 l -2.24,0.75195 1.39316,0.0319 c 1.37216,0.0315 4.6207,0.90071 9.32235,2.49453 3.92075,1.3291 7.75479,1.73257 9.50366,1.00011 z m 82.2388,-0.86821 c 5.46937,-1.8133 8.3703,-2.59484 9.74888,-2.62643 l 1.39316,-0.0319 -2.24,-0.75195 c -1.232,-0.41356 -2.62688,-0.75919 -3.09973,-0.76806 -1.84241,-0.0346 -6.20157,1.29271 -9.01069,2.74356 -2.11559,1.09266 -3.46082,1.57002 -4.84874,1.72059 -1.77721,0.19281 -1.86102,0.23664 -1.12084,0.58614 1.34413,0.63467 5.9549,0.19664 9.17796,-0.87192 z m -89.89086,-10.66381 c -0.25903,-0.39011 -0.85415,-0.99539 -1.32248,-1.34505 -1.14106,-0.85192 -4.42755,-1.07448 -5.96754,-0.40412 L 116,332.74779 l 1.12,0.0285 c 0.616,0.0157 2.56,0.45151 4.32,0.96845 1.76,0.51694 3.25357,0.94783 3.31903,0.95755 0.0655,0.01 -0.0929,-0.30153 -0.35192,-0.69165 z m 92.5066,-0.59529 c 1.11854,-0.33847 2.55854,-0.62715 3.2,-0.6415 l 1.1663,-0.0261 -1.11709,-0.48627 c -1.53999,-0.67036 -4.82648,-0.4478 -5.96754,0.40412 -0.46833,0.34966 -1.05795,0.94666 -1.31027,1.32667 -0.45283,0.682 -0.44293,0.68671 0.76807,0.3647 0.67476,-0.17942 2.14199,-0.60315 3.26053,-0.94161 z M 168.96,320 c 0,-4.48 -0.11636,-7.04 -0.32,-7.04 -0.20363,0 -0.32,2.56 -0.32,7.04 0,4.48 0.11637,7.04 0.32,7.04 0.20364,0 0.32,-2.56 0.32,-7.04 z m 0.0954,-17.84 c 0.10564,-1.716 0.3963,-3.696 0.64592,-4.4 l 0.45384,-1.28 H 168.64 167.12485 l 0.45384,1.28 c 0.24962,0.704 0.54028,2.684 0.64592,4.4 0.10564,1.716 0.29257,3.12 0.41539,3.12 0.12283,0 0.30976,-1.404 0.4154,-3.12 z m -14.52118,-1.71621 c -0.58635,-0.82346 -2.28319,-1.88379 -3.01462,-1.88379 -0.0995,0 0.54865,0.648 1.4404,1.44 1.88267,1.67207 2.59103,1.87177 1.57422,0.44379 z M 184.32001,300 c 0.89175,-0.792 1.53993,-1.44 1.4404,-1.44 -0.73143,0 -2.42827,1.06033 -3.01462,1.88379 -1.01681,1.42798 -0.30845,1.22828 1.57422,-0.44379 z M 46.128568,286.55799 c 1.268017,-0.61711 2.531824,-1.32277 2.80846,-1.56814 0.887353,-0.78705 2.795266,-1.41425 8.425033,-2.76961 3.027865,-0.72895 6.300074,-1.72342 7.271575,-2.20993 0.971501,-0.48651 2.702366,-1.21084 3.846366,-1.60963 1.144,-0.39879 2.584,-0.97556 3.2,-1.28171 0.616,-0.30614 2.067796,-0.71916 3.226212,-0.9178 4.628558,-0.7937 8.224984,-0.18318 10.526666,1.78697 1.554637,1.33071 4.824896,2.97186 5.921923,2.97186 1.514857,0 3.273897,-1.15374 3.6924,-2.42182 0.633333,-1.91902 0.265415,-5.11804 -0.880764,-7.65818 -0.965394,-2.13949 -2.206732,-5.1093 -3.143245,-7.52 -0.524987,-1.35138 -0.615678,-8.23812 -0.131447,-9.9816 0.321468,-1.15745 1.21803,-1.80498 1.908385,-1.37832 0.179222,0.11076 0.606146,0.73206 0.948721,1.38065 l 0.622864,1.17927 0.01414,-1.78663 c 0.02188,-2.76423 -0.580968,-5.20103 -2.437709,-9.85358 -2.184205,-5.47309 -2.200407,-6.53315 -0.113063,-7.39775 l 0.979544,-0.40575 -0.07387,-5.63814 c -0.0686,-5.23567 -0.02109,-5.77137 0.665491,-7.50438 1.209242,-3.05227 2.864878,-4.57822 5.926904,-5.46265 l 1.306846,-0.37747 0.20126,-2.46387 c 0.18998,-2.3258 0.853,-4.06978 1.54723,-4.06978 0.58701,0 0.63137,0.61882 0.28946,4.03819 -0.38282,3.82862 0.0427,6.94999 1.03252,7.57416 1.86921,1.17868 4.99006,-2.10617 8.51425,-8.96169 0.85612,-1.66539 1.46169,-2.1928 2.07943,-1.81102 0.56502,0.3492 0.0419,2.1786 -1.68688,5.89872 -1.79778,3.86869 -2.16773,5.79275 -1.15346,5.99901 0.83774,0.17037 1.74524,-0.77712 2.85171,-2.97737 1.33344,-2.65156 2.0417,-3.58704 3.53455,-4.66846 1.41883,-1.0278 2.50117,-1.18506 3.10969,-0.45183 0.55881,0.67331 -0.11808,2.2131 -1.36236,3.09911 -1.02595,0.73054 -1.96947,2.55505 -2.32772,4.50118 -0.25084,1.36265 -0.0722,1.44306 1.31994,0.59415 3.05849,-1.86505 6.37136,-9.00409 7.6457,-16.47607 0.63631,-3.73098 0.60456,-5.63977 -0.13904,-8.35808 -1.00899,-3.68843 -1.02657,-3.72918 -1.52631,-3.53741 -4.24344,1.62837 -11.62402,-1.52636 -19.44997,-8.31362 -2.74901,-2.38416 -3.75275,-2.82809 -6.320587,-2.79544 -2.346398,0.0298 -8.369379,1.73292 -11.19852,3.16656 -1.684288,0.85349 -7.85088,6.61331 -8.903067,8.31578 -0.465825,0.75373 -0.750892,1.97131 -0.944328,4.03343 -0.152393,1.62458 -0.210874,3.01999 -0.129956,3.10091 0.08092,0.0809 0.317523,-0.0233 0.52579,-0.23154 0.538742,-0.53875 2.067467,-0.46917 2.287453,0.10411 0.259344,0.67584 -0.258285,1.90398 -1.808887,4.2918 -1.735732,2.67292 -1.735156,3.73249 0.0034,6.30085 0.701637,1.03651 1.462673,2.40555 1.691191,3.04231 0.704522,1.96313 -0.30697,3.4875 -5.231708,7.88445 -3.649499,3.25838 -4.35973,4.05623 -5.327955,5.98524 -1.47135,2.9314 -1.660052,5.65036 -0.646652,9.31743 0.637209,2.3058 3.052343,7.3542 4.52473,9.45814 1.671037,2.38779 1.439253,6.87314 -0.436748,8.45169 -0.993398,0.83589 -1.001241,0.83685 -5.01957,0.61572 l -4.024617,-0.22148 -2.56,1.35421 -2.56,1.3542 -2.88,-0.18275 c -3.205455,-0.2034 -6.156378,-0.96961 -9.374426,-2.43407 -5.016933,-2.28309 -11.576702,-3.04972 -14.554697,-1.70098 -2.109465,0.95538 -5.059708,3.8579 -6.117828,6.01886 -1.323764,2.70348 -0.900598,2.94529 1.07402,0.61374 1.861008,-2.19741 2.931304,-2.8772 5.067867,-3.21885 1.626397,-0.26008 2.057627,0.3741 1.140247,1.67687 -0.327351,0.46487 -0.811184,1.17454 -1.075184,1.57704 -0.264,0.4025 -1.015337,1.49704 -1.669638,2.43231 -0.6543,0.93527 -1.420268,2.25972 -1.702151,2.94323 -0.488235,1.18386 -0.484937,1.2309 0.06964,0.99298 0.320183,-0.13736 1.446151,-0.52569 2.502151,-0.86297 3.142653,-1.00372 5.011372,-1.95068 5.538677,-2.80669 1.207315,-1.9599 2.301323,-1.93668 2.301323,0.0489 0,2.24822 -1.066288,4.05468 -4.005259,6.78552 -1.491887,1.38624 -3.0012,2.98753 -3.354028,3.55841 -0.62857,1.01705 -1.4331,4.27544 -1.130392,4.57815 0.08437,0.0844 0.915711,-0.43472 1.847424,-1.15353 2.735234,-2.11022 5.495556,-2.49227 8.215152,-1.13703 2.400628,1.19628 2.717673,2.07373 2.498052,6.91357 -0.09432,2.07862 -0.0448,3.76 0.110756,3.76 0.154758,0 1.318846,-0.50491 2.586862,-1.12201 z M 293.84906,283.92 c -0.21962,-4.83984 0.0974,-5.71729 2.49805,-6.91357 2.7196,-1.35524 5.47992,-0.97319 8.21515,1.13703 0.93172,0.71881 1.76306,1.2379 1.84743,1.15353 0.30271,-0.30271 -0.50182,-3.5611 -1.13039,-4.57815 -0.35283,-0.57088 -1.86214,-2.17217 -3.35403,-3.55841 -2.93897,-2.73084 -4.00526,-4.5373 -4.00526,-6.78552 0,-1.98553 1.09401,-2.00875 2.30132,-0.0489 0.52731,0.85601 2.39603,1.80297 5.53868,2.80669 1.056,0.33728 2.18197,0.72561 2.50215,0.86297 0.55457,0.23792 0.55787,0.19088 0.0696,-0.99298 -0.28188,-0.68351 -1.04785,-2.00796 -1.70215,-2.94323 -0.6543,-0.93527 -1.40564,-2.02981 -1.66964,-2.43231 -0.264,-0.4025 -0.74783,-1.11217 -1.07519,-1.57704 -0.91738,-1.30277 -0.48615,-1.93695 1.14025,-1.67687 2.13656,0.34165 3.20686,1.02144 5.06787,3.21885 1.97462,2.33155 2.39778,2.08974 1.07402,-0.61374 -1.05812,-2.16096 -4.00836,-5.06348 -6.11783,-6.01886 -2.97799,-1.34874 -9.53776,-0.58211 -14.5547,1.70098 -3.21804,1.46446 -6.16897,2.23067 -9.37442,2.43407 l -2.88,0.18275 -2.56,-1.3542 -2.56,-1.35421 -4.02462,0.22148 c -4.01833,0.22113 -4.02617,0.22017 -5.01957,-0.61572 -1.876,-1.57855 -2.10778,-6.0639 -0.43675,-8.45169 1.47239,-2.10394 3.88752,-7.15234 4.52473,-9.45814 1.0134,-3.66707 0.8247,-6.38603 -0.64665,-9.31743 -0.96822,-1.92901 -1.67846,-2.72686 -5.32795,-5.98524 -4.92474,-4.39695 -5.93623,-5.92132 -5.23171,-7.88445 0.22852,-0.63676 0.98955,-2.0058 1.69119,-3.04231 1.73858,-2.56836 1.73916,-3.62793 0.003,-6.30085 -1.5506,-2.38782 -2.06823,-3.61596 -1.80889,-4.2918 0.21999,-0.57328 1.74871,-0.64286 2.28745,-0.10411 0.20827,0.20826 0.44488,0.31246 0.52579,0.23154 0.0809,-0.0809 0.0224,-1.47633 -0.12995,-3.10091 -0.19344,-2.06212 -0.47851,-3.2797 -0.94433,-4.03343 -1.05219,-1.70247 -7.21878,-7.46229 -8.90307,-8.31578 -2.82914,-1.43364 -8.85212,-3.13673 -11.19852,-3.16656 -2.56783,-0.0326 -3.57157,0.41128 -6.32058,2.79544 -7.82595,6.78726 -15.20653,9.94199 -19.44997,8.31362 -0.49974,-0.19177 -0.51732,-0.15102 -1.52631,3.53741 -0.7436,2.71831 -0.77535,4.6271 -0.13904,8.35808 1.27434,7.47198 4.58721,14.61102 7.6457,16.47607 1.39214,0.84891 1.57078,0.7685 1.31994,-0.59415 -0.35825,-1.94613 -1.30177,-3.77064 -2.32772,-4.50118 -1.24428,-0.88601 -1.92117,-2.4258 -1.36236,-3.09911 0.60852,-0.73323 1.69086,-0.57597 3.10969,0.45183 1.49285,1.08142 2.20111,2.0169 3.53455,4.66846 1.10647,2.20025 2.01397,3.14774 2.85171,2.97737 1.01427,-0.20626 0.64432,-2.13032 -1.15346,-5.99901 -1.72874,-3.72012 -2.2519,-5.54952 -1.68688,-5.89872 0.61774,-0.38178 1.22331,0.14563 2.07943,1.81102 3.52419,6.85552 6.64504,10.14037 8.51425,8.96169 0.98983,-0.62417 1.41534,-3.74554 1.03252,-7.57416 -0.34191,-3.41937 -0.29755,-4.03819 0.28946,-4.03819 0.69423,0 1.35725,1.74398 1.54723,4.06978 l 0.20126,2.46387 1.30684,0.37747 c 3.06203,0.88443 4.71766,2.41038 5.92691,5.46265 0.68658,1.73301 0.73408,2.26871 0.66549,7.50438 l -0.0739,5.63814 0.97954,0.40575 c 2.08735,0.8646 2.07114,1.92466 -0.11306,7.39775 -1.85674,4.65255 -2.45959,7.08935 -2.43771,9.85358 l 0.0141,1.78663 0.62287,-1.17927 c 0.34257,-0.64859 0.7695,-1.26989 0.94872,-1.38065 0.69035,-0.42666 1.58691,0.22087 1.90838,1.37832 0.48423,1.74348 0.39354,8.63022 -0.13144,9.9816 -0.93652,2.4107 -2.17786,5.38051 -3.14325,7.52 -1.14618,2.54014 -1.5141,5.73916 -0.88076,7.65818 0.4185,1.26808 2.17754,2.42182 3.6924,2.42182 1.09702,0 4.36728,-1.64115 5.92192,-2.97186 2.30168,-1.97015 5.89811,-2.58067 10.52667,-1.78697 1.15841,0.19864 2.61021,0.61166 3.22621,0.9178 0.616,0.30615 2.056,0.88292 3.2,1.28171 1.144,0.39879 2.87486,1.12312 3.84636,1.60963 0.97151,0.48651 4.24371,1.48098 7.27158,2.20993 5.63153,1.35579 7.53766,1.98253 8.42603,2.77052 0.6093,0.54044 4.78627,2.64208 5.30586,2.66963 0.26906,0.0143 0.32335,-1.00503 0.19922,-3.74039 z M 131.7386,270.02 c -0.10215,-0.25528 -0.17798,-0.17945 -0.19333,0.19333 -0.0139,0.33734 0.0617,0.52634 0.16807,0.42 0.10633,-0.10633 0.1177,-0.38233 0.0253,-0.61333 z m 73.92,0 c -0.10215,-0.25528 -0.17798,-0.17945 -0.19333,0.19333 -0.0139,0.33734 0.0617,0.52634 0.16807,0.42 0.10633,-0.10633 0.1177,-0.38233 0.0253,-0.61333 z M 53.920002,94.391809 c 0.352,-0.304138 1.216,-0.732922 1.92,-0.952851 2.456664,-0.767461 3.36,-2.175644 3.36,-5.237801 0,-2.198332 1.028008,-7.105641 1.802117,-8.602602 0.255076,-0.493264 1.10265,-1.498047 1.883497,-2.232853 1.254297,-1.180339 1.48214,-1.616567 1.955411,-3.743828 0.697605,-3.135603 1.512942,-4.002426 4.064563,-4.321231 4.04092,-0.504879 7.254412,-2.993793 7.254412,-5.618687 0,-1.095009 -0.200523,-1.405422 -1.84,-2.848346 -2.365683,-2.082068 -5.607383,-3.712634 -9.06142,-4.557869 l -2.74142,-0.67085 -2.69858,0.816781 c -5.107305,1.545831 -7.138691,1.33026 -8.187372,-0.868847 -0.487091,-1.021441 -0.465842,-1.157298 0.610854,-3.905539 1.83122,-4.674142 1.950777,-5.16232 1.519352,-6.203872 -0.209353,-0.505422 -1.267315,-1.673232 -2.351028,-2.595135 -5.211333,-4.433221 -8.875223,-8.972264 -11.601592,-14.372733 -1.110036,-2.198792 -1.210985,-2.620788 -1.22908,-5.137939 -0.01752,-2.43714 0.0875,-2.953614 0.943484,-4.64 0.7367,-1.451381 1.254334,-2.040126 2.201272,-2.50368 1.232173,-0.603183 1.245886,-0.602621 2.876802,0.11801 3.989806,1.762921 4.08729,1.781534 5.783564,1.104249 1.281152,-0.511535 1.650295,-0.854587 2.173517,-2.019894 0.90119,-2.007109 1.115092,-4.912347 0.437785,-5.9460478 C 52.355947,8.4731866 51.909358,8.4466316 50.086127,9.2772095 48.812617,9.8573604 48.365472,9.8885438 45.092582,9.6254538 41.606713,9.3452434 41.461102,9.3596544 40.286576,10.1011 c -1.252734,0.790817 -2.5062,2.647591 -3.140353,4.651844 -0.452889,1.431366 -1.63339,2.576444 -2.720997,2.639351 C 33.971601,17.418533 33.60191,17.512 33.603691,17.6 c 0.01041,0.514629 1.038775,3.343247 1.887936,5.192974 1.107274,2.411973 1.231991,3.735869 0.472978,5.020774 -0.488499,0.826964 -0.471721,0.967978 0.32151,2.702157 1.121056,2.450879 1.554364,4.53561 1.310802,6.306522 -0.18609,1.353036 -0.112162,1.570587 0.976534,2.873672 1.860584,2.226973 2.174997,3.680325 1.26655,5.854543 -0.541444,1.295858 -0.622379,2.865395 -0.189469,3.674294 0.159792,0.298574 0.522833,2.485107 0.806758,4.858963 0.848594,7.09497 1.370321,9.277593 2.500637,10.461315 0.538427,0.563868 1.366179,1.110262 1.839448,1.214209 0.473269,0.103947 1.403654,0.745246 2.067521,1.425107 1.465361,1.500666 1.847136,3.449148 0.997668,5.091839 -0.654063,1.264818 -0.445087,1.643631 0.906727,1.643631 1.580655,0 2.259931,0.917378 1.94948,2.632819 -0.459225,2.537514 -0.249191,3.858228 1.006724,6.330378 1.171512,2.306009 1.204331,2.464914 1.219213,5.903301 0.01036,2.392556 -0.130766,3.854074 -0.437051,4.526313 -0.498809,1.094794 -0.273969,2.224733 0.370084,1.859866 0.221244,-0.125338 0.690261,-0.476729 1.042261,-0.780868 z m 231.200008,-0.02659 c 0,-0.350353 -0.23516,-1.091745 -0.52257,-1.647537 -0.4219,-0.815863 -0.49026,-1.64351 -0.35487,-4.296346 0.15207,-2.979508 0.27715,-3.501254 1.34178,-5.596879 1.22491,-2.411115 1.43336,-3.749353 0.97689,-6.271642 -0.31045,-1.715441 0.36882,-2.632819 1.94948,-2.632819 1.35181,0 1.56079,-0.378813 0.90673,-1.643631 -0.84947,-1.642691 -0.4677,-3.591173 0.99766,-5.091839 0.66387,-0.679861 1.61594,-1.325922 2.11571,-1.43569 0.50459,-0.110828 1.43738,-0.80736 2.0976,-1.56633 0.95336,-1.095948 1.19822,-1.645705 1.23581,-2.774631 0.0258,-0.774334 0.21331,-2.415879 0.41672,-3.647879 0.20342,-1.232 0.58926,-3.68 0.85743,-5.44 0.26817,-1.76 0.56642,-3.714293 0.66277,-4.342874 0.10684,-0.697004 -0.0231,-1.617351 -0.33298,-2.359079 -0.93806,-2.245087 -0.63909,-3.674759 1.23839,-5.921948 1.08869,-1.303085 1.16262,-1.520636 0.97653,-2.873672 -0.24356,-1.770912 0.18975,-3.855643 1.31081,-6.306522 0.79323,-1.734179 0.81,-1.875193 0.3215,-2.702157 -0.75901,-1.284905 -0.63429,-2.608801 0.47298,-5.020774 0.84916,-1.849727 1.87752,-4.678345 1.88794,-5.192974 0.002,-0.088 -0.36791,-0.181467 -0.82154,-0.207705 -1.15617,-0.06687 -2.26806,-1.225878 -2.84636,-2.966981 -0.67095,-2.020033 -1.89932,-3.747083 -3.13759,-4.411361 -0.83862,-0.4498841 -1.68972,-0.5340742 -4.56466,-0.4515331 -2.69605,0.077405 -3.82431,-0.01991 -4.75908,-0.4104807 -1.74926,-0.7308871 -2.64236,-0.6492446 -3.26322,0.298305 -0.67731,1.0337008 -0.4634,3.9389388 0.43779,5.9460478 0.52322,1.165307 0.89236,1.508359 2.17351,2.019894 1.69628,0.677285 1.79376,0.658672 5.78357,-1.104249 1.63091,-0.720631 1.64463,-0.721193 2.8768,-0.11801 0.94694,0.463554 1.46457,1.052299 2.20127,2.50368 0.85599,1.686386 0.961,2.20286 0.94348,4.64 -0.0181,2.517151 -0.11904,2.939147 -1.22908,5.137939 -2.72637,5.400469 -6.39026,9.939512 -11.60159,14.372733 -1.08371,0.921903 -2.14167,2.089713 -2.35103,2.595135 -0.43142,1.041552 -0.31186,1.52973 1.51936,6.203872 1.07669,2.748241 1.09794,2.884098 0.61085,3.905539 -1.04868,2.199107 -3.08007,2.414678 -8.18737,0.868847 l -2.69858,-0.816781 -2.74142,0.67085 c -3.55611,0.870213 -6.7273,2.491115 -9.22142,4.71338 -2.74909,2.449436 -2.69358,3.320711 0.4,6.278218 0.96575,0.923273 3.11774,1.776341 5.10857,2.025078 2.56527,0.32051 3.18854,0.951759 4.18449,4.238099 0.68008,2.244074 1.08913,3.02566 2.09203,3.997403 0.68567,0.664355 1.45139,1.60382 1.70161,2.087698 0.76647,1.482183 1.7933,6.398201 1.7933,8.58554 0,3.059584 0.89877,4.462506 3.36,5.244743 0.704,0.223748 1.68819,0.746917 2.18709,1.162597 0.99156,0.826154 1.49291,0.744457 1.49291,-0.243274 z M 170.28389,90.56 c 1.66284,-2.062512 3.55908,-3.374182 8.59612,-5.946143 6.48334,-3.310459 8.96,-5.352671 8.96,-7.388282 0,-1.257673 -0.81831,-1.953612 -4.18852,-3.562182 -3.48388,-1.662825 -5.09148,-3.306385 -5.09148,-5.205352 0,-0.715064 0.15816,-1.595647 0.35147,-1.956851 0.312,-0.582983 0.55457,-0.634997 2.16,-0.463164 3.53415,0.37827 5.2322,-0.556349 7.70934,-4.243301 1.87455,-2.790053 2.51544,-4.569912 2.77765,-7.714035 l 0.21691,-2.601007 -2.1839,1.200424 c -3.32471,1.827488 -5.30857,1.627221 -7.94004,-0.801532 -1.17889,-1.088072 -1.81143,-2.325157 -1.81143,-3.542684 0,-1.016006 0.42325,-1.189546 2.47422,-1.014453 1.07831,0.09206 2.50473,-0.777674 3.24809,-1.980456 0.95758,-1.5494 1.70919,-5.451986 1.45004,-7.529044 -0.24195,-1.939208 -1.64514,-4.084287 -3.14483,-4.807542 -0.49678,-0.239582 -2.19182,-0.542343 -3.76675,-0.672802 -3.1084,-0.257482 -3.75064,-0.599486 -3.90864,-2.081402 -0.0524,-0.491945 -0.39558,-1.127489 -0.7625,-1.412319 -0.71066,-0.551656 -1.76646,-2.883353 -1.63235,-3.604975 0.18209,-0.979761 -1.03503,-2.811917 -3.03364,-4.566598 L 168.64,18.801842 166.51636,20.6663 c -1.99861,1.754681 -3.21573,3.586837 -3.03364,4.566598 0.13411,0.721622 -0.92169,3.053319 -1.63235,3.604975 -0.36692,0.28483 -0.71005,0.920374 -0.7625,1.412319 -0.158,1.481916 -0.80024,1.82392 -3.90864,2.081402 -3.41913,0.283222 -4.34397,0.680275 -5.68423,2.440344 -1.33325,1.750867 -1.61789,3.905128 -0.94093,7.121286 0.54053,2.568036 1.42101,4.286453 2.51454,4.907602 0.38026,0.216002 1.48339,0.39418 2.45139,0.395952 1.60311,0.0029 1.7695,0.07031 1.86653,0.75577 0.16873,1.192034 -0.20026,2.18971 -1.25353,3.389314 -2.51912,2.869129 -4.95661,3.255412 -8.44447,1.338245 l -2.1839,-1.200424 0.21691,2.601007 c 0.26221,3.144123 0.9031,4.923982 2.77765,7.714035 2.47714,3.686952 4.17518,4.621571 7.70934,4.243301 1.60543,-0.171833 1.848,-0.119819 2.16,0.463164 0.19331,0.361204 0.35147,1.241787 0.35147,1.956851 0,1.898967 -1.6076,3.542527 -5.09149,5.205352 -3.3702,1.60857 -4.18851,2.304509 -4.18851,3.562182 0,2.035611 2.47666,4.077823 8.96,7.388282 5.12334,2.616024 6.96502,3.899779 8.63535,6.019333 0.79456,1.008255 1.53127,1.800255 1.63712,1.76 0.10586,-0.04026 0.831,-0.86519 1.61142,-1.83319 z M 108.31903,42.526725 c -2.11818,-1.750363 -6.46833,-3.80135 -11.679027,-5.506376 -2.376,-0.777466 -5.4,-1.852497 -6.72,-2.388957 -1.32,-0.536461 -2.976,-1.14425 -3.68,-1.350643 -0.704,-0.206393 -3.332022,-1.383878 -5.840049,-2.616635 -3.882184,-1.908189 -4.887025,-2.563203 -6.759645,-4.406337 -2.834172,-2.789545 -3.69315,-4.822915 -3.379981,-8.001084 0.203442,-2.064616 0.186433,-2.132659 -0.625599,-2.502645 -0.567607,-0.258619 -0.834727,-0.630155 -0.834727,-1.161016 0,-1.447369 0.31505,-1.793032 1.634236,-1.793032 1.41756,0 2.509519,0.85533 2.553306,2 0.01515,0.396 0.05115,2.016 0.08,3.6 l 0.05246,2.88 1.489142,1.92 c 0.819028,1.056 2.043028,2.450804 2.72,3.099564 2.005653,1.922071 14.346213,7.939079 19.790859,9.649624 5.202225,1.634383 8.794725,3.276319 11.709295,5.351675 0.82989,0.59093 1.54827,2.028232 1.19188,2.384628 -0.0746,0.07463 -0.8406,-0.446818 -1.70215,-1.158766 z m 118.88098,0.641662 c 0,-1.827589 5.43494,-4.855051 12.96,-7.219199 5.44464,-1.710545 17.7852,-7.727553 19.79086,-9.649624 0.67697,-0.64876 1.90097,-2.043148 2.72,-3.098639 l 1.48914,-1.919075 0.16,-3.746091 c 0.0987,-2.311768 0.3089,-3.894547 0.54889,-4.133819 0.38276,-0.381615 2.75065,-0.455963 3.31975,-0.104235 0.16025,0.09904 0.29136,0.606655 0.29136,1.128041 0,0.711155 -0.20853,1.042987 -0.83473,1.328302 -0.81203,0.369986 -0.82904,0.438029 -0.6256,2.502645 0.31317,3.178169 -0.54581,5.211539 -3.37998,8.001084 -1.87262,1.843134 -2.87746,2.498148 -6.75964,4.406337 -2.50803,1.232757 -5.13605,2.410242 -5.84005,2.616635 -0.704,0.206393 -2.36,0.814182 -3.68,1.350643 -1.32,0.53646 -4.344,1.609433 -6.72,2.384384 -5.38187,1.755339 -10.51223,4.240858 -11.81411,5.723622 -1.10504,1.258573 -1.62589,1.395999 -1.62589,0.428989 z"
       id="path1" />
  </g>
</svg>
