<?xml version="1.0" encoding="UTF-8" standalone="no"?>
<!-- Created with Inkscape (http://www.inkscape.org/) -->

<svg
   version="1.1"
   id="svg1"
   width="78.937492"
   height="24.578125"
   viewBox="0 0 78.937492 24.578125"
   sodipodi:docname="bsqs.svg"
   inkscape:export-filename="bsqs-logo.svg"
   inkscape:export-xdpi="96"
   inkscape:export-ydpi="96"
   inkscape:version="1.3 (0e150ed6c4, 2023-07-21)"
   xmlns:inkscape="http://www.inkscape.org/namespaces/inkscape"
   xmlns:sodipodi="http://sodipodi.sourceforge.net/DTD/sodipodi-0.dtd"
   xmlns="http://www.w3.org/2000/svg"
   xmlns:svg="http://www.w3.org/2000/svg">
  <defs
     id="defs1" />
  <sodipodi:namedview
     id="namedview1"
     pagecolor="#505050"
     bordercolor="#eeeeee"
     borderopacity="1"
     inkscape:showpageshadow="0"
     inkscape:pageopacity="0"
     inkscape:pagecheckerboard="0"
     inkscape:deskcolor="#505050"
     inkscape:zoom="2.8581937"
     inkscape:cx="61.577352"
     inkscape:cy="21.517086"
     inkscape:window-width="1920"
     inkscape:window-height="1027"
     inkscape:window-x="1358"
     inkscape:window-y="-8"
     inkscape:window-maximized="1"
     inkscape:current-layer="g2" />
  <g
     id="g8"
     inkscape:groupmode="layer"
     inkscape:label="1 copy"
     transform="translate(-207.69141,-166.07031)">
    <g
       id="g7"
       aria-label="BSQS&#10;BSQS&#10;1"
       transform="matrix(1.3333333,0,0,1.3333333,208.61467,185.30533)">
      <path
         id="path6"
         d="m 0.80755469,-14.168453 v 0.878906 H 2.9989609 V -0.89110938 H 0.80755469 V -4.84375e-4 H 10.147398 c 3.410157,0 5.074219,-1.839843725 5.074219,-3.820312525 0,-1.96875 -1.710937,-3.3867187 -4.207031,-3.5742187 2.976562,-0.5625 3.550781,-2.25 3.550781,-3.2226564 0,-1.898437 -1.734375,-3.550781 -5.0390623,-3.550781 z m 4.72265621,6.4570311 v -5.5781251 h 3.75 c 2.1210941,0 2.5546871,1.617188 2.5546871,2.648438 0,1.4414059 -0.808593,2.9296871 -3.2226558,2.9296871 z m 0,6.82031252 V -7.0200156 h 4.1132813 c 2.4257808,0 2.7773438,2.2265625 2.7773438,3.1523437 0,1.3007813 -0.703125,2.97656252 -3.0820313,2.97656252 z M 21.775328,-9.0942344 c -2.050781,-0.4570312 -2.109375,-1.9335936 -2.109375,-2.2265626 0,-1.054687 0.679688,-2.273437 2.683594,-2.273437 2.003906,0 3.808594,0.972656 4.242187,3.6796871 0.05859,0.4335938 0.05859,0.4570313 0.445313,0.4570313 0.433594,0 0.433594,-0.070312 0.433594,-0.5390625 v -3.8906249 c 0,-0.386719 0,-0.539063 -0.304688,-0.539063 -0.140625,0 -0.210937,0.02344 -0.398437,0.234375 l -0.878907,1.007813 c -0.515625,-0.433594 -1.558593,-1.242188 -3.5625,-1.242188 -2.953125,0 -4.523437,1.863282 -4.523437,4.113282 0,1.3828121 0.75,2.3554684 1.03125,2.6484371 1.078125,1.078125 1.652344,1.1953125 3.808594,1.6757813 2.0625,0.4570312 2.308593,0.4921875 2.765625,0.9257812 0.269531,0.2695313 0.867187,0.84375 0.867187,1.8984375 0,0.890625 -0.433594,2.51953127 -2.742187,2.51953127 -1.816407,0 -4.699219,-0.62109377 -4.863282,-3.63281247 -0.01172,-0.375 -0.01172,-0.4335938 -0.433593,-0.4335938 -0.433594,0 -0.433594,0.058594 -0.433594,0.5390625 v 3.87890627 c 0,0.3984375 0,0.5390625 0.316406,0.5390625 0.140625,0 0.164063,-0.0234375 0.363281,-0.19921875 0.234375,-0.234375 0.421875,-0.50390625 0.9375,-1.01953125 1.195313,0.94921875 2.894532,1.21875 4.125,1.21875 3.222657,0 4.59375,-2.19140627 4.59375,-4.38281247 0,-1.9335938 -1.277343,-3.796875 -3.539062,-4.3125 z m 19.523438,8.78906252 c 3.328125,-1.28906252 4.300781,-4.27734372 4.300781,-6.71484372 0,-4.3828124 -2.859375,-7.4062504 -7.441406,-7.4062504 -4.605469,0 -7.441407,3.046875 -7.441407,7.4062504 0,4.359375 2.894532,7.26562497 7.441407,7.26562497 0.1875,0 1.03125,0 2.003906,-0.19921875 0.539062,2.33203128 0.925781,3.96093748 2.8125,3.96093748 2.121094,0 2.742187,-2.5429687 2.742187,-3.82031248 0,-0.187499995 0,-0.4921875 -0.304687,-0.4921875 -0.269531,0 -0.292969,0.22265625 -0.316406,0.38671875 -0.117188,0.84375 -1.253907,1.00781253 -1.839844,1.00781253 -0.445313,0 -1.113281,0 -1.957031,-1.39453128 z m -5.003907,-0.609375 C 33.529234,-2.0629844 33.529234,-5.8012656 33.529234,-7.0200156 c 0,-1.8398438 0.1875,-3.4101564 1.054688,-4.7812504 0.738281,-1.136718 2.085937,-1.875 3.574219,-1.875 1.195312,0 2.730468,0.46875 3.703125,2.109375 0.867187,1.441407 0.925781,3.3046879 0.925781,4.5468754 0,1.21875 0,4.2890625 -2.085938,5.71875 -0.84375,-1.40625 -1.628906,-1.8867188 -2.542968,-1.8867188 -1.054688,0 -1.957032,0.7265625 -1.957032,1.6992188 0,0.3515625 0.05859,0.4804687 0.09375,0.57421872 z m 3.644532,0.0703125 c -0.02344,0 -0.832032,0.3515625 -1.78125,0.3515625 -1.054688,0 -1.277344,-0.67968752 -1.277344,-0.99609372 0,-0.5976563 0.597656,-1.0078125 1.300781,-1.0078125 0.984375,0 1.417969,0.6796875 1.757813,1.65234372 z M 52.147398,-9.0942344 c -2.050781,-0.4570312 -2.109375,-1.9335936 -2.109375,-2.2265626 0,-1.054687 0.679688,-2.273437 2.683594,-2.273437 2.003906,0 3.808594,0.972656 4.242188,3.6796871 0.05859,0.4335938 0.05859,0.4570313 0.445312,0.4570313 0.433594,0 0.433594,-0.070312 0.433594,-0.5390625 v -3.8906249 c 0,-0.386719 0,-0.539063 -0.304688,-0.539063 -0.140625,0 -0.210937,0.02344 -0.398437,0.234375 l -0.878906,1.007813 c -0.515625,-0.433594 -1.558594,-1.242188 -3.5625,-1.242188 -2.953125,0 -4.523438,1.863282 -4.523438,4.113282 0,1.3828121 0.75,2.3554684 1.03125,2.6484371 1.078125,1.078125 1.652344,1.1953125 3.808594,1.6757813 2.0625,0.4570312 2.308594,0.4921875 2.765625,0.9257812 0.269531,0.2695313 0.867187,0.84375 0.867187,1.8984375 0,0.890625 -0.433593,2.51953127 -2.742187,2.51953127 -1.816406,0 -4.699219,-0.62109377 -4.863281,-3.63281247 -0.01172,-0.375 -0.01172,-0.4335938 -0.433594,-0.4335938 -0.433594,0 -0.433594,0.058594 -0.433594,0.5390625 v 3.87890627 c 0,0.3984375 0,0.5390625 0.316406,0.5390625 0.140625,0 0.164063,-0.0234375 0.363282,-0.19921875 0.234375,-0.234375 0.421875,-0.50390625 0.9375,-1.01953125 1.195312,0.94921875 2.894531,1.21875 4.125,1.21875 3.222656,0 4.59375,-2.19140627 4.59375,-4.38281247 0,-1.9335938 -1.277344,-3.796875 -3.539063,-4.3125 z m 0,0"
         style="fill:#800000;fill-opacity:1;fill-rule:nonzero;stroke:none" />
    </g>
    <g
       id="g1"
       inkscape:groupmode="layer"
       inkscape:label="1">
      <g
         id="g2"
         aria-label="BSQS&#10;BSQS&#10;1"
         transform="matrix(1.3333333,0,0,1.3333333,205.11596,185.30533)">
        <path
           id="path2"
           d="m 2.7803657,-14.168453 v 0.878906 H 4.9717719 V -0.89110938 H 2.7803657 v 0.890625005 h 9.3398433 c 3.410157,0 5.074219,-1.839843725 5.074219,-3.820312525 0,-1.96875 -1.710937,-3.3867187 -4.207031,-3.5742187 2.976562,-0.5625 3.550781,-2.25 3.550781,-3.2226564 0,-1.898437 -1.734375,-3.550781 -5.039062,-3.550781 z m 4.7226562,6.4570311 v -5.5781251 h 3.7500001 c 2.121094,0 2.554687,1.617188 2.554687,2.648438 0,1.4414059 -0.808593,2.9296871 -3.222656,2.9296871 z m 0,6.82031252 V -7.0200156 h 4.1132811 c 2.425781,0 2.777344,2.2265625 2.777344,3.1523437 0,1.3007813 -0.703125,2.97656252 -3.082031,2.97656252 z M 23.748139,-9.0942344 c -2.050781,-0.4570312 -2.109375,-1.9335936 -2.109375,-2.2265626 0,-1.054687 0.679688,-2.273437 2.683594,-2.273437 2.003906,0 3.808594,0.972656 4.242187,3.6796871 0.05859,0.4335938 0.05859,0.4570313 0.445313,0.4570313 0.433594,0 0.433594,-0.070312 0.433594,-0.5390625 v -3.8906249 c 0,-0.386719 0,-0.539063 -0.304688,-0.539063 -0.140625,0 -0.210937,0.02344 -0.398437,0.234375 l -0.878907,1.007813 c -0.515625,-0.433594 -1.558593,-1.242188 -3.5625,-1.242188 -2.953125,0 -4.523437,1.863282 -4.523437,4.113282 0,1.3828121 0.75,2.3554684 1.03125,2.6484371 1.078125,1.078125 1.652344,1.1953125 3.808594,1.6757813 2.0625,0.4570312 2.308593,0.4921875 2.765625,0.9257812 0.269531,0.2695313 0.867187,0.84375 0.867187,1.8984375 0,0.890625 -0.433594,2.51953127 -2.742187,2.51953127 -1.816407,0 -4.699219,-0.62109377 -4.863282,-3.63281247 -0.01172,-0.375 -0.01172,-0.4335938 -0.433593,-0.4335938 -0.433594,0 -0.433594,0.058594 -0.433594,0.5390625 v 3.87890627 c 0,0.3984375 0,0.5390625 0.316406,0.5390625 0.140625,0 0.164063,-0.0234375 0.363281,-0.19921875 0.234375,-0.234375 0.421875,-0.50390625 0.9375,-1.01953125 1.195313,0.94921875 2.894532,1.21875 4.125,1.21875 3.222657,0 4.59375,-2.19140627 4.59375,-4.38281247 0,-1.9335938 -1.277343,-3.796875 -3.539062,-4.3125 z m 19.523438,8.78906252 c 3.328125,-1.28906252 4.300781,-4.27734372 4.300781,-6.71484372 0,-4.3828124 -2.859375,-7.4062504 -7.441406,-7.4062504 -4.605469,0 -7.441407,3.046875 -7.441407,7.4062504 0,4.359375 2.894532,7.26562497 7.441407,7.26562497 0.1875,0 1.03125,0 2.003906,-0.19921875 0.539062,2.33203128 0.925781,3.96093748 2.8125,3.96093748 2.121094,0 2.742187,-2.5429687 2.742187,-3.82031248 0,-0.187499995 0,-0.4921875 -0.304687,-0.4921875 -0.269531,0 -0.292969,0.22265625 -0.316406,0.38671875 -0.117188,0.84375 -1.253907,1.00781253 -1.839844,1.00781253 -0.445313,0 -1.113281,0 -1.957031,-1.39453128 z m -5.003907,-0.609375 C 35.502045,-2.0629844 35.502045,-5.8012656 35.502045,-7.0200156 c 0,-1.8398438 0.1875,-3.4101564 1.054688,-4.7812504 0.738281,-1.136718 2.085937,-1.875 3.574219,-1.875 1.195312,0 2.730468,0.46875 3.703125,2.109375 0.867187,1.441407 0.925781,3.3046879 0.925781,4.5468754 0,1.21875 0,4.2890625 -2.085938,5.71875 -0.84375,-1.40625 -1.628906,-1.8867188 -2.542968,-1.8867188 -1.054688,0 -1.957032,0.7265625 -1.957032,1.6992188 0,0.3515625 0.05859,0.4804687 0.09375,0.57421872 z m 3.644532,0.0703125 c -0.02344,0 -0.832032,0.3515625 -1.78125,0.3515625 -1.054688,0 -1.277344,-0.67968752 -1.277344,-0.99609372 0,-0.5976563 0.597656,-1.0078125 1.300781,-1.0078125 0.984375,0 1.417969,0.6796875 1.757813,1.65234372 z M 54.120209,-9.0942344 c -2.050781,-0.4570312 -2.109375,-1.9335936 -2.109375,-2.2265626 0,-1.054687 0.679688,-2.273437 2.683594,-2.273437 2.003906,0 3.808594,0.972656 4.242188,3.6796871 0.05859,0.4335938 0.05859,0.4570313 0.445312,0.4570313 0.433594,0 0.433594,-0.070312 0.433594,-0.5390625 v -3.8906249 c 0,-0.386719 0,-0.539063 -0.304688,-0.539063 -0.140625,0 -0.210937,0.02344 -0.398437,0.234375 l -0.878906,1.007813 c -0.515625,-0.433594 -1.558594,-1.242188 -3.5625,-1.242188 -2.953125,0 -4.523438,1.863282 -4.523438,4.113282 0,1.3828121 0.75,2.3554684 1.03125,2.6484371 1.078125,1.078125 1.652344,1.1953125 3.808594,1.6757813 2.0625,0.4570312 2.308594,0.4921875 2.765625,0.9257812 0.269531,0.2695313 0.867187,0.84375 0.867187,1.8984375 0,0.890625 -0.433593,2.51953127 -2.742187,2.51953127 -1.816406,0 -4.699219,-0.62109377 -4.863281,-3.63281247 -0.01172,-0.375 -0.01172,-0.4335938 -0.433594,-0.4335938 -0.433594,0 -0.433594,0.058594 -0.433594,0.5390625 v 3.87890627 c 0,0.3984375 0,0.5390625 0.316406,0.5390625 0.140625,0 0.164063,-0.0234375 0.363282,-0.19921875 0.234375,-0.234375 0.421875,-0.50390625 0.9375,-1.01953125 1.195312,0.94921875 2.894531,1.21875 4.125,1.21875 3.222656,0 4.59375,-2.19140627 4.59375,-4.38281247 0,-1.9335938 -1.277344,-3.796875 -3.539063,-4.3125 z m 0,0"
           style="fill:#00004e;fill-opacity:1;fill-rule:nonzero;stroke:none" />
      </g>
    </g>
  </g>
</svg>
