<?xml version="1.0" encoding="UTF-8" standalone="no"?>
<!-- Created with Inkscape (http://www.inkscape.org/) -->

<svg
   version="1.1"
   id="svg1"
   width="159.99342"
   height="29.008232"
   viewBox="0 0 159.99343 29.008232"
   sodipodi:docname="logo.svg"
   xml:space="preserve"
   xmlns:inkscape="http://www.inkscape.org/namespaces/inkscape"
   xmlns:sodipodi="http://sodipodi.sourceforge.net/DTD/sodipodi-0.dtd"
   xmlns="http://www.w3.org/2000/svg"
   xmlns:svg="http://www.w3.org/2000/svg"><defs
     id="defs1"><clipPath
       clipPathUnits="userSpaceOnUse"
       id="clipPath1"><path
         d="M 0,0 H 816 V 1056 H 0 Z"
         id="path1" /></clipPath></defs><sodipodi:namedview
     id="namedview1"
     pagecolor="#505050"
     bordercolor="#eeeeee"
     borderopacity="1"
     inkscape:showpageshadow="0"
     inkscape:pageopacity="0"
     inkscape:pagecheckerboard="0"
     inkscape:deskcolor="#505050" /><g
     id="g22"
     inkscape:groupmode="layer"
     inkscape:label="BACK"
     clip-path="url(#clipPath1)"
     style="display:inline;fill:#800000"
     transform="translate(-1.7136095,0.16700722)"><g
       id="g21"
       aria-label="log&#10;4&#10;(Veritas)&#10;log&#10;4&#10;(Veritas)&#10;1"
       transform="matrix(1.3333333,0,0,1.3333333,1.996,-27.214667)"
       style="fill:#800000;fill-opacity:1"><path
         id="path13"
         d="m 29.560617,-4.6026719 c 0,-0.2695312 0,-0.3398437 -0.199219,-0.3398437 -0.117187,0 -0.164062,0 -0.28125,0.1640625 l -4.3125,6.703125 v 0.421875 h 3.773438 v 1.3007812 c 0,0.5273438 -0.02344,0.6796875 -1.078125,0.6796875 h -0.28125 v 0.4101563 c 0.328125,-0.023437 1.464844,-0.023437 1.863281,-0.023437 0.398438,0 1.546875,0 1.875,0.023437 V 4.3270156 h -0.28125 c -1.03125,0 -1.078125,-0.1523437 -1.078125,-0.6796875 V 2.3465469 h 1.441406 v -0.421875 h -1.441406 z m -0.949219,1.125 V 1.9246719 H 25.13093 Z m 0,0"
         style="fill:#800000;fill-opacity:1;fill-rule:nonzero;stroke:none" /><path
         id="path14"
         d="m 41.663156,5.0389297 c 0,-0.023437 0,-0.058594 -0.05859,-0.1171875 -0.949218,-0.9726563 -3.492187,-3.6210938 -3.492187,-10.0664063 0,-6.4453129 2.507812,-9.0703129 3.515625,-10.1015629 0,-0.02344 0.03516,-0.05859 0.03516,-0.128906 0,-0.05859 -0.05859,-0.09375 -0.140625,-0.09375 -0.222656,0 -1.980469,1.523438 -2.988281,3.796875 -1.042969,2.2968752 -1.324219,4.5234377 -1.324219,6.5039064 0,1.4882813 0.140625,4.0078125 1.382813,6.6796875 0.984375,2.1445313 2.683593,3.65625 2.929687,3.65625 0.105469,0 0.140625,-0.046875 0.140625,-0.1289062 z m 0,0"
         style="fill:#800000;fill-opacity:1;fill-rule:nonzero;stroke:none" /><path
         id="path16"
         d="m 119.78327,-5.1446641 c 0,-1.4882812 -0.15234,-4.0078125 -1.38281,-6.6679689 -0.99609,-2.15625 -2.69531,-3.65625 -2.94141,-3.65625 -0.0586,0 -0.14062,0.01172 -0.14062,0.117188 0,0.04687 0.0234,0.05859 0.0352,0.105468 0.99609,1.03125 3.51562,3.65625 3.51562,10.0781254 0,6.4453125 -2.49609,9.0703125 -3.51562,10.1015625 -0.0117,0.046875 -0.0352,0.070312 -0.0352,0.1054688 0,0.1054687 0.082,0.1289062 0.14062,0.1289062 0.23438,0 1.98047,-1.5351562 3,-3.8085937 1.03125,-2.28515626 1.32422,-4.5234375 1.32422,-6.5039063 z m 0,0"
         style="fill:#800000;fill-opacity:1;fill-rule:nonzero;stroke:none" /><path
         id="path17"
         d="M 3.1641328,22.517445 0.70319531,22.75182 v 0.539063 c 1.21874999,0 1.40624999,0.117187 1.40624999,1.113281 v 11.027344 c 0,0.785156 -0.082031,0.890625 -1.40624999,0.890625 v 0.539062 C 1.1953828,36.81432 2.1094453,36.81432 2.6250703,36.81432 c 0.5390625,0 1.4414063,0 1.9453125,0.04687 v -0.539062 c -1.3242187,0 -1.40625,-0.08203 -1.40625,-0.890625 z M 14.06257,32.443227 c 0,-2.648438 -1.921875,-4.710938 -4.1718747,-4.710938 -2.25,0 -4.171875,2.0625 -4.171875,4.710938 0,2.601562 1.921875,4.582031 4.171875,4.582031 2.2499997,0 4.1718747,-1.980469 4.1718747,-4.582031 z m -4.1718747,4.207031 c -0.9726562,0 -1.8046875,-0.574219 -2.2734375,-1.382813 -0.515625,-0.925781 -0.5859375,-2.085937 -0.5859375,-2.988281 0,-0.867187 0.046875,-1.945312 0.5859375,-2.871094 0.4101563,-0.691406 1.21875,-1.347656 2.2734375,-1.347656 0.9257817,0 1.7109377,0.515625 2.2031247,1.242188 0.644532,0.972656 0.644532,2.332031 0.644532,2.976562 0,0.796875 -0.04687,2.039063 -0.597657,3.035156 -0.574218,0.949219 -1.464843,1.335938 -2.2499997,1.335938 z m 7.0400387,-3.503906 c 0.386719,0.304687 1.066407,0.65625 1.898438,0.65625 1.628906,0 3.035156,-1.277344 3.035156,-3 0,-0.527344 -0.164062,-1.359375 -0.785156,-2.003907 0.574219,-0.609375 1.429687,-0.820312 1.898437,-0.820312 0.08203,0 0.210938,0 0.316407,0.05859 -0.08203,0.02344 -0.269532,0.105468 -0.269532,0.433593 0,0.269532 0.1875,0.457032 0.457032,0.457032 0.304687,0 0.46875,-0.210938 0.46875,-0.480469 0,-0.386719 -0.304688,-0.796875 -0.972657,-0.796875 -0.820312,0 -1.546875,0.386719 -2.121093,0.925781 -0.621094,-0.5625 -1.371094,-0.761719 -2.027344,-0.761719 -1.628906,0 -3.035156,1.277344 -3.035156,2.988282 0,1.183593 0.679687,1.921875 0.890625,2.132812 -0.621094,0.726563 -0.621094,1.570313 -0.621094,1.675781 0,0.539063 0.199219,1.324219 0.902344,1.757813 -1.066407,0.269531 -1.921875,1.089844 -1.921875,2.121094 0,1.488281 1.96875,2.589843 4.324218,2.589843 2.273438,0 4.3125,-1.054687 4.3125,-2.601562 0,-2.8125 -3.058593,-2.8125 -4.640625,-2.8125 -0.480468,0 -1.324218,0 -1.429687,-0.02344 -0.644531,-0.105468 -1.078125,-0.679687 -1.078125,-1.40625 0,-0.1875 0,-0.644531 0.398437,-1.089843 z m 1.898438,0.304687 c -1.816406,0 -1.816406,-2.226562 -1.816406,-2.648437 0,-0.410157 0,-2.636719 1.816406,-2.636719 1.816406,0 1.816406,2.226562 1.816406,2.636719 0,0.421875 0,2.648437 -1.816406,2.648437 z m 0.539062,7.277344 c -2.074218,0 -3.492187,-1.101563 -3.492187,-2.238281 0,-0.632813 0.351562,-1.242188 0.808594,-1.570313 0.515625,-0.351562 0.714843,-0.351562 2.121093,-0.351562 1.699219,0 4.054688,0 4.054688,1.921875 0,1.136718 -1.429688,2.238281 -3.492188,2.238281 z m 0,0"
         style="fill:#800000;fill-opacity:1;fill-rule:nonzero;stroke:none" /><path
         id="path18"
         d="m 29.560617,32.258656 c 0,-0.269531 0,-0.339843 -0.199219,-0.339843 -0.117187,0 -0.164062,0 -0.28125,0.164062 l -4.3125,6.703125 v 0.421875 h 3.773438 v 1.300781 c 0,0.527344 -0.02344,0.679688 -1.078125,0.679688 h -0.28125 V 41.5985 c 0.328125,-0.02344 1.464844,-0.02344 1.863281,-0.02344 0.398438,0 1.546875,0 1.875,0.02344 v -0.410156 h -0.28125 c -1.03125,0 -1.078125,-0.152344 -1.078125,-0.679688 v -1.300781 h 1.441406 V 38.786 h -1.441406 z m -0.949219,1.125 V 38.786 H 25.13093 Z m 0,0"
         style="fill:#800000;fill-opacity:1;fill-rule:nonzero;stroke:none" /><path
         id="path19"
         d="m 41.663156,41.900258 c 0,-0.02344 0,-0.05859 -0.05859,-0.117188 -0.949218,-0.972656 -3.492187,-3.621093 -3.492187,-10.066406 0,-6.445312 2.507812,-9.070312 3.515625,-10.101562 0,-0.02344 0.03516,-0.05859 0.03516,-0.128907 0,-0.05859 -0.05859,-0.09375 -0.140625,-0.09375 -0.222656,0 -1.980469,1.523438 -2.988281,3.796875 -1.042969,2.296875 -1.324219,4.523438 -1.324219,6.503907 0,1.488281 0.140625,4.007812 1.382813,6.679687 0.984375,2.144531 2.683593,3.65625 2.929687,3.65625 0.105469,0 0.140625,-0.04687 0.140625,-0.128906 z m 0,0"
         style="fill:#800000;fill-opacity:1;fill-rule:nonzero;stroke:none" /><path
         id="path20"
         d="m 57.615305,24.052602 c 0.128906,-0.269532 0.210937,-0.480469 1.746093,-0.480469 h 0.339844 v -0.878906 c -0.632812,0.03516 -2.121094,0.03516 -2.285156,0.03516 -0.585938,0 -2.050781,0 -2.519531,-0.03516 v 0.878906 c 0.445312,0 1.21875,0 1.792968,0.234375 l -0.105468,0.28125 -4.230469,9.679687 -4.464844,-10.195312 h 1.921875 v -0.878906 c -0.65625,0.03516 -2.648437,0.03516 -3.433594,0.03516 -0.65625,0 -2.707031,0 -3.222656,-0.03516 v 0.878906 h 1.863281 l 5.707032,13.042969 c 0.175781,0.410156 0.363281,0.433593 0.703125,0.433593 0.328125,0 0.527343,0 0.714843,-0.433593 z m 9.999023,8.238281 c 0.46875,0 0.597656,0 0.597656,-0.515625 0,-0.621094 -0.140625,-2.167969 -1.089843,-3.140625 -0.867188,-0.867188 -2.027344,-1.136719 -3.222657,-1.136719 -3.222656,0 -4.980468,2.109375 -4.980468,4.710938 0,2.894531 2.121093,4.78125 5.238281,4.78125 3.128906,0 4.054687,-2.191407 4.054687,-2.542969 0,-0.316406 -0.304687,-0.316406 -0.433593,-0.316406 -0.328125,0 -0.351563,0.07031 -0.480469,0.328125 -0.527344,1.347656 -1.898438,1.78125 -2.882813,1.78125 -3,0 -3.023437,-2.789063 -3.023437,-3.949219 z m -6.222656,-0.597656 c 0.04687,-0.84375 0.07031,-1.652344 0.503906,-2.390625 0.386719,-0.667969 1.113281,-1.113282 2.003906,-1.113282 2.203125,0 2.390625,2.472657 2.414063,3.503907 z m 11.789062,0.515625 c 0,-0.679688 0.140625,-3.960938 2.554688,-3.960938 -0.28125,0.222656 -0.433594,0.574219 -0.433594,0.949219 0,0.84375 0.679688,1.195312 1.207031,1.195312 0.515625,0 1.195313,-0.351562 1.195313,-1.195312 0,-1.054688 -1.078125,-1.628906 -2.0625,-1.628906 -1.640625,0 -2.34375,1.417968 -2.625,2.285156 h -0.02344 v -2.285156 l -3.386718,0.164062 v 0.890625 c 1.277343,0 1.417968,0 1.417968,0.796875 v 6.550781 h -1.417968 v 0.890625 c 0.46875,-0.04687 2.015625,-0.04687 2.601562,-0.04687 0.597656,0 2.273438,0 2.765625,0.04687 V 35.97057 h -1.792969 z m 9.799805,-8.214844 c 0,-0.855469 -0.679687,-1.488281 -1.488281,-1.488281 -0.84375,0 -1.488281,0.703125 -1.488281,1.488281 0,0.785156 0.644531,1.488281 1.488281,1.488281 0.808594,0 1.488281,-0.644531 1.488281,-1.488281 z m -3.632812,3.738281 v 0.890625 c 1.21875,0 1.359375,0 1.359375,0.796875 v 6.550781 h -1.417969 v 0.890625 c 0.46875,-0.04687 1.898437,-0.04687 2.449219,-0.04687 0.585937,0 1.910156,0 2.402343,0.04687 V 35.97057 h -1.277343 v -8.402343 z m 9.84375,0.84375 h 2.976562 v -0.890625 h -2.976562 v -3.949219 h -0.867188 c -0.02344,2.050782 -1.007812,4.101563 -3.058594,4.160157 v 0.679687 h 1.675782 v 5.742188 c 0,2.191406 1.6875,2.671875 3.175781,2.671875 1.535156,0 2.4375,-1.160157 2.4375,-2.695313 V 33.204945 H 91.68757 v 1.078125 c 0,1.359375 -0.621093,1.957032 -1.253906,1.957032 -1.242187,0 -1.242187,-1.382813 -1.242187,-1.863282 z m 14.182613,2.109375 c 0,-1.898437 -1.51172,-3.1875 -4.417965,-3.1875 -1.160156,0 -3.597656,0.105469 -3.597656,1.839844 0,0.867187 0.65625,1.242187 1.21875,1.242187 0.621093,0 1.21875,-0.433593 1.21875,-1.21875 0,-0.386718 -0.140625,-0.761718 -0.492188,-0.996093 0.679688,-0.175782 1.171875,-0.175782 1.570313,-0.175782 1.406246,0 2.249996,0.785157 2.249996,2.472657 v 0.832031 c -3.269528,0 -6.550778,0.902344 -6.550778,3.199219 0,1.875 2.390625,2.296875 3.820313,2.296875 1.59375,0 2.601565,-0.867188 3.011715,-1.78125 0,0.761718 0,1.652343 2.09766,1.652343 h 1.04297 c 0.43359,0 0.60937,0 0.60937,-0.457031 0,-0.433594 -0.1875,-0.433594 -0.48047,-0.433594 -1.30078,-0.02344 -1.30078,-0.351562 -1.30078,-0.820312 z m -2.25,3.304688 c 0,1.945312 -1.734371,2.308593 -2.40234,2.308593 -1.007813,0 -1.851563,-0.679687 -1.851563,-1.628906 0,-1.875 2.226563,-2.519531 4.253903,-2.625 z m 11.83887,-5.953125 c 0,-0.386719 0,-0.539063 -0.31641,-0.539063 -0.11718,0 -0.16406,0 -0.46875,0.1875 -0.082,0.07031 -0.3164,0.210938 -0.42187,0.269531 -0.57422,-0.328125 -1.33594,-0.457031 -2.08594,-0.457031 -0.62109,0 -3.71484,0 -3.71484,2.695313 0,2.167968 2.5664,2.613281 3.19922,2.71875 0.5625,0.105468 1.24218,0.234375 1.32422,0.234375 0.83203,0.1875 1.65234,0.703125 1.65234,1.570312 0,1.582031 -1.875,1.582031 -2.30859,1.582031 -1.05469,0 -2.35547,-0.328125 -2.94141,-2.332031 -0.11719,-0.410156 -0.14063,-0.433594 -0.49219,-0.433594 -0.43359,0 -0.43359,0.05859 -0.43359,0.539063 v 2.378906 c 0,0.386719 0,0.539063 0.30469,0.539063 0.15234,0 0.1875,0 0.60937,-0.339844 l 0.52734,-0.386719 c 0.9375,0.726563 2.05079,0.726563 2.42579,0.726563 1.13671,0 3.71484,-0.257813 3.71484,-3 0,-0.996094 -0.53906,-1.675782 -0.94922,-2.050782 -0.84375,-0.703125 -1.54687,-0.820312 -2.67187,-1.03125 -1.3125,-0.222656 -2.55469,-0.457031 -2.55469,-1.441406 0,-1.347656 1.83984,-1.347656 2.27344,-1.347656 2.29687,0 2.41406,1.453125 2.46093,1.96875 0.0117,0.269531 0.17578,0.269531 0.4336,0.269531 0.43359,0 0.43359,-0.07031 0.43359,-0.539062 z m 0,0"
         style="fill:#800000;fill-opacity:1;fill-rule:nonzero;stroke:none" /><path
         id="path21"
         d="m 119.78327,31.716664 c 0,-1.488281 -0.15234,-4.007812 -1.38281,-6.667969 -0.99609,-2.15625 -2.69531,-3.65625 -2.94141,-3.65625 -0.0586,0 -0.14062,0.01172 -0.14062,0.117188 0,0.04687 0.0234,0.05859 0.0352,0.105469 0.99609,1.03125 3.51562,3.65625 3.51562,10.078125 0,6.445312 -2.49609,9.070312 -3.51562,10.101562 -0.0117,0.04687 -0.0352,0.07031 -0.0352,0.105469 0,0.105469 0.082,0.128906 0.14062,0.128906 0.23438,0 1.98047,-1.535156 3,-3.808594 1.03125,-2.285156 1.32422,-4.523437 1.32422,-6.503906 z m 0,0"
         style="fill:#800000;fill-opacity:1;fill-rule:nonzero;stroke:none" /></g></g><g
     id="g1"
     inkscape:groupmode="layer"
     inkscape:label="TOP"
     clip-path="url(#clipPath1)"
     style="display:inline"
     transform="translate(-2.0435395)"><g
       id="g2"
       aria-label="log&#10;4&#10;(Veritas)&#10;log&#10;4&#10;(Veritas)&#10;1"
       transform="matrix(1.3333333,0,0,1.3333333,1.9320735,-27.030652)"
       style="fill:#00002f;fill-opacity:1"><path
         id="path3"
         d="m 29.560617,-4.6026719 c 0,-0.2695312 0,-0.3398437 -0.199219,-0.3398437 -0.117187,0 -0.164062,0 -0.28125,0.1640625 l -4.3125,6.703125 v 0.421875 h 3.773438 v 1.3007812 c 0,0.5273438 -0.02344,0.6796875 -1.078125,0.6796875 h -0.28125 v 0.4101563 c 0.328125,-0.023437 1.464844,-0.023437 1.863281,-0.023437 0.398438,0 1.546875,0 1.875,0.023437 V 4.3270156 h -0.28125 c -1.03125,0 -1.078125,-0.1523437 -1.078125,-0.6796875 V 2.3465469 h 1.441406 v -0.421875 h -1.441406 z m -0.949219,1.125 V 1.9246719 H 25.13093 Z m 0,0"
         style="fill:#00002f;fill-opacity:1;fill-rule:nonzero;stroke:none" /><path
         id="path4"
         d="m 41.663156,5.0389297 c 0,-0.023437 0,-0.058594 -0.05859,-0.1171875 -0.949218,-0.9726563 -3.492187,-3.6210938 -3.492187,-10.0664063 0,-6.4453129 2.507812,-9.0703129 3.515625,-10.1015629 0,-0.02344 0.03516,-0.05859 0.03516,-0.128906 0,-0.05859 -0.05859,-0.09375 -0.140625,-0.09375 -0.222656,0 -1.980469,1.523438 -2.988281,3.796875 -1.042969,2.2968752 -1.324219,4.5234377 -1.324219,6.5039064 0,1.4882813 0.140625,4.0078125 1.382813,6.6796875 0.984375,2.1445313 2.683593,3.65625 2.929687,3.65625 0.105469,0 0.140625,-0.046875 0.140625,-0.1289062 z m 0,0"
         style="fill:#00002f;fill-opacity:1;fill-rule:nonzero;stroke:none" /><path
         id="path6"
         d="m 119.78327,-5.1446641 c 0,-1.4882812 -0.15234,-4.0078125 -1.38281,-6.6679689 -0.99609,-2.15625 -2.69531,-3.65625 -2.94141,-3.65625 -0.0586,0 -0.14062,0.01172 -0.14062,0.117188 0,0.04687 0.0234,0.05859 0.0352,0.105468 0.99609,1.03125 3.51562,3.65625 3.51562,10.0781254 0,6.4453125 -2.49609,9.0703125 -3.51562,10.1015625 -0.0117,0.046875 -0.0352,0.070312 -0.0352,0.1054688 0,0.1054687 0.082,0.1289062 0.14062,0.1289062 0.23438,0 1.98047,-1.5351562 3,-3.8085937 1.03125,-2.28515626 1.32422,-4.5234375 1.32422,-6.5039063 z m 0,0"
         style="fill:#00002f;fill-opacity:1;fill-rule:nonzero;stroke:none" /><path
         id="path7"
         d="M 3.1641328,22.517445 0.70319531,22.75182 v 0.539063 c 1.21874999,0 1.40624999,0.117187 1.40624999,1.113281 v 11.027344 c 0,0.785156 -0.082031,0.890625 -1.40624999,0.890625 v 0.539062 C 1.1953828,36.81432 2.1094453,36.81432 2.6250703,36.81432 c 0.5390625,0 1.4414063,0 1.9453125,0.04687 v -0.539062 c -1.3242187,0 -1.40625,-0.08203 -1.40625,-0.890625 z M 14.06257,32.443227 c 0,-2.648438 -1.921875,-4.710938 -4.1718747,-4.710938 -2.25,0 -4.171875,2.0625 -4.171875,4.710938 0,2.601562 1.921875,4.582031 4.171875,4.582031 2.2499997,0 4.1718747,-1.980469 4.1718747,-4.582031 z m -4.1718747,4.207031 c -0.9726562,0 -1.8046875,-0.574219 -2.2734375,-1.382813 -0.515625,-0.925781 -0.5859375,-2.085937 -0.5859375,-2.988281 0,-0.867187 0.046875,-1.945312 0.5859375,-2.871094 0.4101563,-0.691406 1.21875,-1.347656 2.2734375,-1.347656 0.9257817,0 1.7109377,0.515625 2.2031247,1.242188 0.644532,0.972656 0.644532,2.332031 0.644532,2.976562 0,0.796875 -0.04687,2.039063 -0.597657,3.035156 -0.574218,0.949219 -1.464843,1.335938 -2.2499997,1.335938 z m 7.0400387,-3.503906 c 0.386719,0.304687 1.066407,0.65625 1.898438,0.65625 1.628906,0 3.035156,-1.277344 3.035156,-3 0,-0.527344 -0.164062,-1.359375 -0.785156,-2.003907 0.574219,-0.609375 1.429687,-0.820312 1.898437,-0.820312 0.08203,0 0.210938,0 0.316407,0.05859 -0.08203,0.02344 -0.269532,0.105468 -0.269532,0.433593 0,0.269532 0.1875,0.457032 0.457032,0.457032 0.304687,0 0.46875,-0.210938 0.46875,-0.480469 0,-0.386719 -0.304688,-0.796875 -0.972657,-0.796875 -0.820312,0 -1.546875,0.386719 -2.121093,0.925781 -0.621094,-0.5625 -1.371094,-0.761719 -2.027344,-0.761719 -1.628906,0 -3.035156,1.277344 -3.035156,2.988282 0,1.183593 0.679687,1.921875 0.890625,2.132812 -0.621094,0.726563 -0.621094,1.570313 -0.621094,1.675781 0,0.539063 0.199219,1.324219 0.902344,1.757813 -1.066407,0.269531 -1.921875,1.089844 -1.921875,2.121094 0,1.488281 1.96875,2.589843 4.324218,2.589843 2.273438,0 4.3125,-1.054687 4.3125,-2.601562 0,-2.8125 -3.058593,-2.8125 -4.640625,-2.8125 -0.480468,0 -1.324218,0 -1.429687,-0.02344 -0.644531,-0.105468 -1.078125,-0.679687 -1.078125,-1.40625 0,-0.1875 0,-0.644531 0.398437,-1.089843 z m 1.898438,0.304687 c -1.816406,0 -1.816406,-2.226562 -1.816406,-2.648437 0,-0.410157 0,-2.636719 1.816406,-2.636719 1.816406,0 1.816406,2.226562 1.816406,2.636719 0,0.421875 0,2.648437 -1.816406,2.648437 z m 0.539062,7.277344 c -2.074218,0 -3.492187,-1.101563 -3.492187,-2.238281 0,-0.632813 0.351562,-1.242188 0.808594,-1.570313 0.515625,-0.351562 0.714843,-0.351562 2.121093,-0.351562 1.699219,0 4.054688,0 4.054688,1.921875 0,1.136718 -1.429688,2.238281 -3.492188,2.238281 z m 0,0"
         style="fill:#00002f;fill-opacity:1;fill-rule:nonzero;stroke:none" /><path
         id="path8"
         d="m 29.560617,32.258656 c 0,-0.269531 0,-0.339843 -0.199219,-0.339843 -0.117187,0 -0.164062,0 -0.28125,0.164062 l -4.3125,6.703125 v 0.421875 h 3.773438 v 1.300781 c 0,0.527344 -0.02344,0.679688 -1.078125,0.679688 h -0.28125 V 41.5985 c 0.328125,-0.02344 1.464844,-0.02344 1.863281,-0.02344 0.398438,0 1.546875,0 1.875,0.02344 v -0.410156 h -0.28125 c -1.03125,0 -1.078125,-0.152344 -1.078125,-0.679688 v -1.300781 h 1.441406 V 38.786 h -1.441406 z m -0.949219,1.125 V 38.786 H 25.13093 Z m 0,0"
         style="fill:#00002f;fill-opacity:1;fill-rule:nonzero;stroke:none" /><path
         id="path9"
         d="m 41.663156,41.900258 c 0,-0.02344 0,-0.05859 -0.05859,-0.117188 -0.949218,-0.972656 -3.492187,-3.621093 -3.492187,-10.066406 0,-6.445312 2.507812,-9.070312 3.515625,-10.101562 0,-0.02344 0.03516,-0.05859 0.03516,-0.128907 0,-0.05859 -0.05859,-0.09375 -0.140625,-0.09375 -0.222656,0 -1.980469,1.523438 -2.988281,3.796875 -1.042969,2.296875 -1.324219,4.523438 -1.324219,6.503907 0,1.488281 0.140625,4.007812 1.382813,6.679687 0.984375,2.144531 2.683593,3.65625 2.929687,3.65625 0.105469,0 0.140625,-0.04687 0.140625,-0.128906 z m 0,0"
         style="fill:#00002f;fill-opacity:1;fill-rule:nonzero;stroke:none" /><path
         id="path10"
         d="m 57.615305,24.052602 c 0.128906,-0.269532 0.210937,-0.480469 1.746093,-0.480469 h 0.339844 v -0.878906 c -0.632812,0.03516 -2.121094,0.03516 -2.285156,0.03516 -0.585938,0 -2.050781,0 -2.519531,-0.03516 v 0.878906 c 0.445312,0 1.21875,0 1.792968,0.234375 l -0.105468,0.28125 -4.230469,9.679687 -4.464844,-10.195312 h 1.921875 v -0.878906 c -0.65625,0.03516 -2.648437,0.03516 -3.433594,0.03516 -0.65625,0 -2.707031,0 -3.222656,-0.03516 v 0.878906 h 1.863281 l 5.707032,13.042969 c 0.175781,0.410156 0.363281,0.433593 0.703125,0.433593 0.328125,0 0.527343,0 0.714843,-0.433593 z m 9.999023,8.238281 c 0.46875,0 0.597656,0 0.597656,-0.515625 0,-0.621094 -0.140625,-2.167969 -1.089843,-3.140625 -0.867188,-0.867188 -2.027344,-1.136719 -3.222657,-1.136719 -3.222656,0 -4.980468,2.109375 -4.980468,4.710938 0,2.894531 2.121093,4.78125 5.238281,4.78125 3.128906,0 4.054687,-2.191407 4.054687,-2.542969 0,-0.316406 -0.304687,-0.316406 -0.433593,-0.316406 -0.328125,0 -0.351563,0.07031 -0.480469,0.328125 -0.527344,1.347656 -1.898438,1.78125 -2.882813,1.78125 -3,0 -3.023437,-2.789063 -3.023437,-3.949219 z m -6.222656,-0.597656 c 0.04687,-0.84375 0.07031,-1.652344 0.503906,-2.390625 0.386719,-0.667969 1.113281,-1.113282 2.003906,-1.113282 2.203125,0 2.390625,2.472657 2.414063,3.503907 z m 11.789062,0.515625 c 0,-0.679688 0.140625,-3.960938 2.554688,-3.960938 -0.28125,0.222656 -0.433594,0.574219 -0.433594,0.949219 0,0.84375 0.679688,1.195312 1.207031,1.195312 0.515625,0 1.195313,-0.351562 1.195313,-1.195312 0,-1.054688 -1.078125,-1.628906 -2.0625,-1.628906 -1.640625,0 -2.34375,1.417968 -2.625,2.285156 h -0.02344 v -2.285156 l -3.386718,0.164062 v 0.890625 c 1.277343,0 1.417968,0 1.417968,0.796875 v 6.550781 h -1.417968 v 0.890625 c 0.46875,-0.04687 2.015625,-0.04687 2.601562,-0.04687 0.597656,0 2.273438,0 2.765625,0.04687 V 35.97057 h -1.792969 z m 9.799805,-8.214844 c 0,-0.855469 -0.679687,-1.488281 -1.488281,-1.488281 -0.84375,0 -1.488281,0.703125 -1.488281,1.488281 0,0.785156 0.644531,1.488281 1.488281,1.488281 0.808594,0 1.488281,-0.644531 1.488281,-1.488281 z m -3.632812,3.738281 v 0.890625 c 1.21875,0 1.359375,0 1.359375,0.796875 v 6.550781 h -1.417969 v 0.890625 c 0.46875,-0.04687 1.898437,-0.04687 2.449219,-0.04687 0.585937,0 1.910156,0 2.402343,0.04687 V 35.97057 h -1.277343 v -8.402343 z m 9.84375,0.84375 h 2.976562 v -0.890625 h -2.976562 v -3.949219 h -0.867188 c -0.02344,2.050782 -1.007812,4.101563 -3.058594,4.160157 v 0.679687 h 1.675782 v 5.742188 c 0,2.191406 1.6875,2.671875 3.175781,2.671875 1.535156,0 2.4375,-1.160157 2.4375,-2.695313 V 33.204945 H 91.68757 v 1.078125 c 0,1.359375 -0.621093,1.957032 -1.253906,1.957032 -1.242187,0 -1.242187,-1.382813 -1.242187,-1.863282 z m 14.182613,2.109375 c 0,-1.898437 -1.51172,-3.1875 -4.417965,-3.1875 -1.160156,0 -3.597656,0.105469 -3.597656,1.839844 0,0.867187 0.65625,1.242187 1.21875,1.242187 0.621093,0 1.21875,-0.433593 1.21875,-1.21875 0,-0.386718 -0.140625,-0.761718 -0.492188,-0.996093 0.679688,-0.175782 1.171875,-0.175782 1.570313,-0.175782 1.406246,0 2.249996,0.785157 2.249996,2.472657 v 0.832031 c -3.269528,0 -6.550778,0.902344 -6.550778,3.199219 0,1.875 2.390625,2.296875 3.820313,2.296875 1.59375,0 2.601565,-0.867188 3.011715,-1.78125 0,0.761718 0,1.652343 2.09766,1.652343 h 1.04297 c 0.43359,0 0.60937,0 0.60937,-0.457031 0,-0.433594 -0.1875,-0.433594 -0.48047,-0.433594 -1.30078,-0.02344 -1.30078,-0.351562 -1.30078,-0.820312 z m -2.25,3.304688 c 0,1.945312 -1.734371,2.308593 -2.40234,2.308593 -1.007813,0 -1.851563,-0.679687 -1.851563,-1.628906 0,-1.875 2.226563,-2.519531 4.253903,-2.625 z m 11.83887,-5.953125 c 0,-0.386719 0,-0.539063 -0.31641,-0.539063 -0.11718,0 -0.16406,0 -0.46875,0.1875 -0.082,0.07031 -0.3164,0.210938 -0.42187,0.269531 -0.57422,-0.328125 -1.33594,-0.457031 -2.08594,-0.457031 -0.62109,0 -3.71484,0 -3.71484,2.695313 0,2.167968 2.5664,2.613281 3.19922,2.71875 0.5625,0.105468 1.24218,0.234375 1.32422,0.234375 0.83203,0.1875 1.65234,0.703125 1.65234,1.570312 0,1.582031 -1.875,1.582031 -2.30859,1.582031 -1.05469,0 -2.35547,-0.328125 -2.94141,-2.332031 -0.11719,-0.410156 -0.14063,-0.433594 -0.49219,-0.433594 -0.43359,0 -0.43359,0.05859 -0.43359,0.539063 v 2.378906 c 0,0.386719 0,0.539063 0.30469,0.539063 0.15234,0 0.1875,0 0.60937,-0.339844 l 0.52734,-0.386719 c 0.9375,0.726563 2.05079,0.726563 2.42579,0.726563 1.13671,0 3.71484,-0.257813 3.71484,-3 0,-0.996094 -0.53906,-1.675782 -0.94922,-2.050782 -0.84375,-0.703125 -1.54687,-0.820312 -2.67187,-1.03125 -1.3125,-0.222656 -2.55469,-0.457031 -2.55469,-1.441406 0,-1.347656 1.83984,-1.347656 2.27344,-1.347656 2.29687,0 2.41406,1.453125 2.46093,1.96875 0.0117,0.269531 0.17578,0.269531 0.4336,0.269531 0.43359,0 0.43359,-0.07031 0.43359,-0.539062 z m 0,0"
         style="fill:#00002f;fill-opacity:1;fill-rule:nonzero;stroke:none" /><path
         id="path11"
         d="m 119.78327,31.716664 c 0,-1.488281 -0.15234,-4.007812 -1.38281,-6.667969 -0.99609,-2.15625 -2.69531,-3.65625 -2.94141,-3.65625 -0.0586,0 -0.14062,0.01172 -0.14062,0.117188 0,0.04687 0.0234,0.05859 0.0352,0.105469 0.99609,1.03125 3.51562,3.65625 3.51562,10.078125 0,6.445312 -2.49609,9.070312 -3.51562,10.101562 -0.0117,0.04687 -0.0352,0.07031 -0.0352,0.105469 0,0.105469 0.082,0.128906 0.14062,0.128906 0.23438,0 1.98047,-1.535156 3,-3.808594 1.03125,-2.285156 1.32422,-4.523437 1.32422,-6.503906 z m 0,0"
         style="fill:#00002f;fill-opacity:1;fill-rule:nonzero;stroke:none" /></g></g></svg>
