<?xml version="1.0" encoding="UTF-8" standalone="no"?>
<!-- Created with Inkscape (http://www.inkscape.org/) -->

<svg
   version="1.1"
   id="svg1"
   width="95.523438"
   height="19.609375"
   viewBox="0 0 95.52344 19.609375"
   sodipodi:docname="ampc-logo.svg"
   inkscape:export-filename="ampc-logo.png"
   inkscape:export-xdpi="96"
   inkscape:export-ydpi="96"
   xmlns:inkscape="http://www.inkscape.org/namespaces/inkscape"
   xmlns:sodipodi="http://sodipodi.sourceforge.net/DTD/sodipodi-0.dtd"
   xmlns="http://www.w3.org/2000/svg"
   xmlns:svg="http://www.w3.org/2000/svg">
  <defs
     id="defs1" />
  <sodipodi:namedview
     id="namedview1"
     pagecolor="#505050"
     bordercolor="#eeeeee"
     borderopacity="1"
     inkscape:showpageshadow="0"
     inkscape:pageopacity="0"
     inkscape:pagecheckerboard="0"
     inkscape:deskcolor="#505050" />
  <g
     id="g1"
     inkscape:groupmode="layer"
     inkscape:label="1"
     transform="translate(-168.96176,-154.70915)"
     style="display:inline">
    <g
       id="g2"
       aria-label="AMPC&#10;AMPC&#10;1"
       transform="matrix(1.3333333,0,0,1.3333333,169.88502,173.99105)"
       style="fill:#800000">
      <path
         id="path2"
         d="m 9.4559922,-13.992672 c -0.140625,-0.363281 -0.1757813,-0.46875 -0.6796875,-0.46875 -0.515625,0 -0.5507813,0.105469 -0.703125,0.46875 L 2.9520859,-1.3832969 c -0.140625,0.328125 -0.140625,0.375 -0.7265625,0.43359377 -0.515625,0.0585938 -0.5976562,0.0585938 -1.0546875,0.0585938 H 0.80755469 V -4.84375e-4 C 1.3466172,-0.04735938 2.5770859,-0.04735938 3.1864609,-0.04735938 c 0.5507813,0 2.0625,0 2.53125,0.046875005 V -0.89110938 c -0.4453125,0 -1.2304687,0 -1.8164062,-0.22265622 0.058594,-0.1875 0.058594,-0.234375 0.1054687,-0.3164063 l 1.0898438,-2.6835937 h 5.5429688 l 1.300781,3.22265622 H 9.9950547 V -4.84375e-4 C 10.663023,-0.04735938 12.66693,-0.04735938 13.452086,-0.04735938 c 0.65625,0 2.765625,0 3.28125,0.046875005 V -0.89110938 h -1.957031 z m -1.5820313,3.046875 2.3906251,5.9414064 H 5.4481797 Z M 28.569273,-2.6254844 23.612242,-13.734859 c -0.1875,-0.433594 -0.375,-0.433594 -0.808594,-0.433594 h -4.40625 v 0.878906 h 2.191407 v 11.7773439 c 0,0.4570312 -0.02344,0.4804687 -0.550782,0.56249997 -0.375,0.0351563 -0.785156,0.0585938 -1.160156,0.0585938 h -0.480469 v 0.890625005 c 0.480469,-0.046875005 2.085938,-0.046875005 2.671875,-0.046875005 0.574219,0 2.203125,0 2.683594,0.046875005 V -0.89110938 h -0.480469 c -0.550781,0 -0.597656,0 -1.089843,-0.0585938 C 21.584898,-1.0317344 21.561461,-1.0551719 21.561461,-1.5122031 V -13.031734 h 0.02344 l 5.613282,12.59765587 c 0.105468,0.22265625 0.234375,0.433593755 0.585937,0.433593755 0.351563,0 0.46875,-0.210937505 0.574219,-0.433593755 l 5.71875,-12.85546887 h 0.02344 v 12.39843762 h -2.191406 v 0.890625005 c 0.5625,-0.046875005 2.707031,-0.046875005 3.410156,-0.046875005 0.703125,0 2.847657,0 3.410157,0.046875005 V -0.89110938 H 36.538023 V -13.289547 h 2.191407 v -0.878906 h -4.394532 c -0.433593,0 -0.621093,0 -0.808593,0.433594 z m 16.740235,-3.6796875 h 3.503906 c 3.457031,0 5.378906,-1.7578125 5.378906,-3.8789061 0,-2.238281 -1.96875,-3.984375 -5.378906,-3.984375 h -8.425781 v 0.878906 h 2.191406 v 12.39843762 h -2.191406 v 0.890625005 c 0.597656,-0.046875005 2.8125,-0.046875005 3.550781,-0.046875005 0.75,0 2.953125,0 3.550781,0.046875005 V -0.89110938 h -2.179687 z m 2.765625,-6.9843751 c 3.199219,0 3.199219,1.699219 3.199219,3.105469 0,1.3593749 0,3.0937499 -3.199219,3.0937499 h -2.871094 v -6.1992189 z m 22.875,-0.597656 c 0,-0.46875 0,-0.539063 -0.445313,-0.539063 l -1.558593,1.488282 c -1.148438,-0.984375 -2.53125,-1.488282 -4.066407,-1.488282 -4.933593,0 -8.121093,3 -8.121093,7.3359379 0,4.2539062 3.082031,7.33593747 8.144531,7.33593747 3.679687,0 6.046875,-2.51953127 6.046875,-4.95703127 0,-0.3515625 -0.117188,-0.375 -0.433594,-0.375 -0.199219,0 -0.410156,0 -0.433594,0.234375 -0.175781,3.140625 -2.847656,4.20703127 -4.710937,4.20703127 -1.335938,0 -3.152344,-0.36328127 -4.3125,-1.66406247 -0.726563,-0.7851563 -1.382813,-1.921875 -1.382813,-4.78125 0,-2.015625 0.304688,-3.5273439 1.277344,-4.6874999 1.324219,-1.546875 3.386719,-1.757813 4.382813,-1.757813 1.546875,0 4.042968,0.867188 4.664062,4.5117191 0.04687,0.1757813 0.234375,0.1757813 0.480469,0.1757813 0.46875,0 0.46875,-0.035156 0.46875,-0.5273438 z m 0,0"
         style="fill:#800000;fill-opacity:1;fill-rule:nonzero;stroke:none" />
    </g>
  </g>
  <g
     id="g10"
     inkscape:groupmode="layer"
     inkscape:label="1 copy"
     transform="translate(-168.96176,-154.70915)">
    <g
       id="g9"
       aria-label="AMPC&#10;AMPC&#10;1"
       transform="matrix(1.3333333,0,0,1.3333333,167.88502,173.99105)"
       style="display:inline;fill:#00004e;fill-opacity:1">
      <path
         id="path7"
         d="m 9.4559922,-13.992672 c -0.140625,-0.363281 -0.1757813,-0.46875 -0.6796875,-0.46875 -0.515625,0 -0.5507813,0.105469 -0.703125,0.46875 L 2.9520859,-1.3832969 c -0.140625,0.328125 -0.140625,0.375 -0.7265625,0.43359377 -0.515625,0.0585938 -0.5976562,0.0585938 -1.0546875,0.0585938 H 0.80755469 V -4.84375e-4 C 1.3466172,-0.04735938 2.5770859,-0.04735938 3.1864609,-0.04735938 c 0.5507813,0 2.0625,0 2.53125,0.046875005 V -0.89110938 c -0.4453125,0 -1.2304687,0 -1.8164062,-0.22265622 0.058594,-0.1875 0.058594,-0.234375 0.1054687,-0.3164063 l 1.0898438,-2.6835937 h 5.5429688 l 1.300781,3.22265622 H 9.9950547 V -4.84375e-4 C 10.663023,-0.04735938 12.66693,-0.04735938 13.452086,-0.04735938 c 0.65625,0 2.765625,0 3.28125,0.046875005 V -0.89110938 h -1.957031 z m -1.5820313,3.046875 2.3906251,5.9414064 H 5.4481797 Z M 28.569273,-2.6254844 23.612242,-13.734859 c -0.1875,-0.433594 -0.375,-0.433594 -0.808594,-0.433594 h -4.40625 v 0.878906 h 2.191407 v 11.7773439 c 0,0.4570312 -0.02344,0.4804687 -0.550782,0.56249997 -0.375,0.0351563 -0.785156,0.0585938 -1.160156,0.0585938 h -0.480469 v 0.890625005 c 0.480469,-0.046875005 2.085938,-0.046875005 2.671875,-0.046875005 0.574219,0 2.203125,0 2.683594,0.046875005 V -0.89110938 h -0.480469 c -0.550781,0 -0.597656,0 -1.089843,-0.0585938 C 21.584898,-1.0317344 21.561461,-1.0551719 21.561461,-1.5122031 V -13.031734 h 0.02344 l 5.613282,12.59765587 c 0.105468,0.22265625 0.234375,0.433593755 0.585937,0.433593755 0.351563,0 0.46875,-0.210937505 0.574219,-0.433593755 l 5.71875,-12.85546887 h 0.02344 v 12.39843762 h -2.191406 v 0.890625005 c 0.5625,-0.046875005 2.707031,-0.046875005 3.410156,-0.046875005 0.703125,0 2.847657,0 3.410157,0.046875005 V -0.89110938 H 36.538023 V -13.289547 h 2.191407 v -0.878906 h -4.394532 c -0.433593,0 -0.621093,0 -0.808593,0.433594 z m 16.740235,-3.6796875 h 3.503906 c 3.457031,0 5.378906,-1.7578125 5.378906,-3.8789061 0,-2.238281 -1.96875,-3.984375 -5.378906,-3.984375 h -8.425781 v 0.878906 h 2.191406 v 12.39843762 h -2.191406 v 0.890625005 c 0.597656,-0.046875005 2.8125,-0.046875005 3.550781,-0.046875005 0.75,0 2.953125,0 3.550781,0.046875005 V -0.89110938 h -2.179687 z m 2.765625,-6.9843751 c 3.199219,0 3.199219,1.699219 3.199219,3.105469 0,1.3593749 0,3.0937499 -3.199219,3.0937499 h -2.871094 v -6.1992189 z m 22.875,-0.597656 c 0,-0.46875 0,-0.539063 -0.445313,-0.539063 l -1.558593,1.488282 c -1.148438,-0.984375 -2.53125,-1.488282 -4.066407,-1.488282 -4.933593,0 -8.121093,3 -8.121093,7.3359379 0,4.2539062 3.082031,7.33593747 8.144531,7.33593747 3.679687,0 6.046875,-2.51953127 6.046875,-4.95703127 0,-0.3515625 -0.117188,-0.375 -0.433594,-0.375 -0.199219,0 -0.410156,0 -0.433594,0.234375 -0.175781,3.140625 -2.847656,4.20703127 -4.710937,4.20703127 -1.335938,0 -3.152344,-0.36328127 -4.3125,-1.66406247 -0.726563,-0.7851563 -1.382813,-1.921875 -1.382813,-4.78125 0,-2.015625 0.304688,-3.5273439 1.277344,-4.6874999 1.324219,-1.546875 3.386719,-1.757813 4.382813,-1.757813 1.546875,0 4.042968,0.867188 4.664062,4.5117191 0.04687,0.1757813 0.234375,0.1757813 0.480469,0.1757813 0.46875,0 0.46875,-0.035156 0.46875,-0.5273438 z m 0,0"
         style="fill:#00004e;fill-opacity:1;fill-rule:nonzero;stroke:none" />
    </g>
  </g>
</svg>
